<svg width="28" height="28" viewBox="0 0 28 28" fill="none" xmlns="http://www.w3.org/2000/svg">
<path d="M11.8373 6.87687L7.94688 2.38638C7.49839 1.86892 6.67614 1.87122 6.15519 2.39328L2.95591 5.59814C2.00372 6.55143 1.73117 7.967 2.28202 9.10198C5.57286 15.9153 11.068 21.4178 17.8771 24.718C19.011 25.2689 20.4255 24.9963 21.3777 24.043L24.6068 20.8083C25.1301 20.2851 25.1312 19.4583 24.6091 19.0098L20.1012 15.1403C19.6297 14.7355 18.8971 14.7884 18.4245 15.2622L16.8559 16.833C16.7756 16.9171 16.6699 16.9726 16.555 16.9909C16.4401 17.0092 16.3224 16.9892 16.2199 16.9342C13.656 15.4578 11.5291 13.3282 10.056 10.7625C10.0008 10.6599 9.98083 10.542 9.99911 10.4269C10.0174 10.3118 10.0729 10.2059 10.1572 10.1254L11.7212 8.56036C12.195 8.08429 12.2467 7.34834 11.8373 6.87572V6.87687Z" stroke="white" stroke-width="2" stroke-linecap="round" stroke-linejoin="round"/>
</svg>
