<svg width="39" height="39" viewBox="0 0 39 39" fill="none" xmlns="http://www.w3.org/2000/svg">
<path d="M14.2857 31H23.7143C27.1856 31 30 28.1856 30 24.7143V15.2857C30 11.8144 27.1856 9 23.7143 9H14.2857C10.8144 9 8 11.8144 8 15.2857V24.7143C8 28.1856 10.8144 31 14.2857 31Z" stroke="#017BFF" stroke-width="1.5" stroke-miterlimit="10"/>
<path d="M19 15C17.6739 15 16.4021 15.5268 15.4645 16.4645C14.5268 17.4021 14 18.6739 14 20C14 21.3261 14.5268 22.5979 15.4645 23.5355C16.4021 24.4732 17.6739 25 19 25C20.3261 25 21.5979 24.4732 22.5355 23.5355C23.4732 22.5979 24 21.3261 24 20C24 18.6739 23.4732 17.4021 22.5355 16.4645C21.5979 15.5268 20.3261 15 19 15Z" stroke="#017BFF" stroke-width="1.5" stroke-miterlimit="10"/>
<path d="M25 13C24.7348 13 24.4804 13.1054 24.2929 13.2929C24.1054 13.4804 24 13.7348 24 14C24 14.2652 24.1054 14.5196 24.2929 14.7071C24.4804 14.8946 24.7348 15 25 15C25.2652 15 25.5196 14.8946 25.7071 14.7071C25.8946 14.5196 26 14.2652 26 14C26 13.7348 25.8946 13.4804 25.7071 13.2929C25.5196 13.1054 25.2652 13 25 13Z" fill="#017BFF"/>
</svg>
