<svg width="39" height="39" viewBox="0 0 39 39" fill="none" xmlns="http://www.w3.org/2000/svg">
<path d="M30.4301 8.41206C30.2029 8.21165 29.9265 8.07793 29.6304 8.02522C29.3343 7.9725 29.0297 8.00278 28.7492 8.11281L7.05111 16.7912C6.71818 16.9226 6.43624 17.1607 6.24781 17.4695C6.05939 17.7784 5.97471 18.1412 6.00656 18.5034C6.03841 18.8655 6.18505 19.2073 6.42436 19.4772C6.66367 19.747 6.98266 19.9303 7.33321 19.9993L13.034 21.1604V28.3665C13.0343 28.6967 13.1305 29.0194 13.3103 29.2941C13.4902 29.5688 13.7457 29.7833 14.0448 29.9107C14.2465 29.9944 14.4618 30.039 14.6795 30.0423C14.8958 30.0437 15.1102 30.0009 15.3101 29.9167C15.5099 29.8324 15.6912 29.7082 15.8432 29.5515L19.0521 26.2837L23.8478 30.581C24.1448 30.8522 24.5302 31.0015 24.9291 30.9999C25.1011 31.0014 25.272 30.9731 25.4346 30.9162C25.706 30.8283 25.9499 30.6692 26.1418 30.4549C26.3337 30.2405 26.4668 29.9785 26.5277 29.6952L30.959 10.052C31.0252 9.75549 31.011 9.44623 30.9178 9.15734C30.8246 8.86845 30.656 8.61083 30.4301 8.41206ZM7.42724 18.3713C7.41902 18.3209 7.4287 18.2691 7.45454 18.2252C7.48038 18.1813 7.5207 18.1483 7.56829 18.1319L25.7284 10.866L13.5747 19.8078L7.61531 18.5868C7.56336 18.5809 7.51541 18.5556 7.48068 18.5158C7.44595 18.476 7.42692 18.4245 7.42724 18.3713ZM14.8441 28.5341C14.8115 28.5689 14.7689 28.5923 14.7225 28.6009C14.676 28.6095 14.628 28.6028 14.5855 28.582C14.5442 28.5636 14.5089 28.5335 14.4839 28.4953C14.4589 28.4571 14.4452 28.4124 14.4445 28.3665V22.1539L17.9825 25.338L14.8441 28.5341ZM25.1642 29.372C25.1562 29.4135 25.1375 29.4521 25.11 29.4839C25.0826 29.5156 25.0473 29.5394 25.0079 29.5528C24.9685 29.5662 24.9263 29.5687 24.8856 29.5601C24.8449 29.5514 24.8072 29.532 24.7763 29.5037L14.8676 20.6217L29.5603 9.82455L25.1642 29.372Z" fill="#017BFF"/>
</svg>
