<svg width="56" height="55" viewBox="0 0 56 55" fill="none" xmlns="http://www.w3.org/2000/svg">
<path d="M54 27C54 41.3422 42.1529 53 27.5 53C12.8471 53 1 41.3422 1 27C1 12.6578 12.8471 1 27.5 1C42.1529 1 54 12.6578 54 27Z" stroke="#017BFF" stroke-width="2"/>
<path fill-rule="evenodd" clip-rule="evenodd" d="M26.234 34.3065L27.9777 40H15.8984L17.5471 34.3065H26.234ZM24.7439 28.6949H19.1006L21.9539 18.7415L24.7439 28.6949Z" fill="#017BFF"/>
<path fill-rule="evenodd" clip-rule="evenodd" d="M30.5308 29L24.2891 11H25.9984H35.9766V14.5339H29.4247V17.9407H31.6287C33.2182 17.9407 34.5072 18.3898 35.4957 19.2881C36.4975 20.1695 36.9984 21.5593 36.9984 23.4576C36.9984 25.3051 36.4909 26.6949 35.4757 27.6271C34.4739 28.5424 33.1982 29 31.6487 29H30.5308ZM31.9984 39H33.9984L31.9984 33.2324V30H34.432V37.8983H34.4896L38.4064 30H40.9984V42H38.5648V34.2881H38.5216L34.6336 42H31.9984V39ZM31.268 25.5424H29.4247V21.322H31.268C32.7908 21.322 33.5522 22.0254 33.5522 23.4322C33.5522 24.839 32.7908 25.5424 31.268 25.5424Z" fill="#017BFF"/>
</svg>
