<svg width="32" height="32" viewBox="0 0 32 32" fill="none" xmlns="http://www.w3.org/2000/svg">
<path d="M28.3433 14.616C28.9753 15.4427 28.9753 16.5587 28.3433 17.384C26.3527 19.9827 21.5767 25.3333 16.0007 25.3333C10.4247 25.3333 5.64867 19.9827 3.658 17.384C3.35051 16.9882 3.18359 16.5012 3.18359 16C3.18359 15.4988 3.35051 15.0118 3.658 14.616C5.64867 12.0173 10.4247 6.66666 16.0007 6.66666C21.5767 6.66666 26.3527 12.0173 28.3433 14.616V14.616Z" stroke="white" stroke-width="2" stroke-linecap="round" stroke-linejoin="round"/>
<path d="M16 20C18.2091 20 20 18.2091 20 16C20 13.7909 18.2091 12 16 12C13.7909 12 12 13.7909 12 16C12 18.2091 13.7909 20 16 20Z" stroke="white" stroke-width="2" stroke-linecap="round" stroke-linejoin="round"/>
</svg>
