<svg width="23" height="24" viewBox="0 0 23 24" fill="none" xmlns="http://www.w3.org/2000/svg">
<path d="M8.91667 13.2626V13.366V20.5525C8.9168 20.6715 8.94722 20.7884 9.00498 20.8923C9.06274 20.9961 9.14592 21.0833 9.24655 21.1458C9.34718 21.2082 9.46198 21.2438 9.58007 21.2493C9.698 21.2547 9.8154 21.2299 9.9212 21.1772L8.91667 13.2626ZM8.91667 13.2626L8.84372 13.1895L3.72766 8.05753C3.42498 7.75392 3.25 7.33046 3.25 6.90108V4.44738C3.25 4.26217 3.32335 4.08471 3.45367 3.95398C3.58397 3.82328 3.76052 3.75 3.94444 3.75H19.0556C19.2395 3.75 19.416 3.82328 19.5463 3.95398C19.6766 4.08471 19.75 4.26217 19.75 4.44738V6.90108C19.75 7.33046 19.575 7.75392 19.2723 8.05753L14.1563 13.1895L14.0833 13.2626V13.366V18.658C14.0833 18.9226 13.9344 19.164 13.6988 19.2826C13.6987 19.2826 13.6987 19.2826 13.6987 19.2826L9.92161 21.177L8.91667 13.2626ZM12.8979 12.4808L12.8982 12.4805L18.291 7.07095L18.3641 6.99764L18.3639 6.89413L18.3621 5.39444L18.3617 5.14475H18.1121H4.88889H4.63889V5.39475V6.90108V7.00446L4.7119 7.07764L10.1018 12.4805L10.1021 12.4808C10.1667 12.5453 10.2179 12.622 10.2528 12.7066C10.2878 12.7911 10.3057 12.8818 10.3056 12.9734V12.9738V19.0199V19.425L10.6676 19.2434L12.5565 18.296L12.6944 18.2268V18.0725V12.9738V12.9734C12.6943 12.8818 12.7122 12.7911 12.7472 12.7066C12.7821 12.622 12.8333 12.5453 12.8979 12.4808ZM10.2788 12.304L4.88889 6.90108L10.5556 12.9738C10.5557 12.8493 10.5314 12.7261 10.4839 12.6111C10.4364 12.4962 10.3667 12.3918 10.2788 12.304Z" stroke="#1E1E1E" stroke-width="0.5"/>
</svg>
