<svg width="21" height="21" viewBox="0 0 21 21" fill="none" xmlns="http://www.w3.org/2000/svg">
<g clip-path="url(#clip0_224_21144)">
<path d="M16.8396 15.4998H13.9746V12.4538C13.9786 12.2688 13.9092 12.0898 13.7816 11.9558C13.7227 11.8903 13.6504 11.8381 13.5697 11.8028C13.489 11.7674 13.4017 11.7497 13.3136 11.7508C13.2253 11.7496 13.1378 11.7672 13.0569 11.8026C12.976 11.8379 12.9036 11.8902 12.8446 11.9558C12.717 12.0898 12.6476 12.2688 12.6516 12.4538V15.5008H9.93359C9.84549 15.4997 9.75816 15.5174 9.67745 15.5528C9.59675 15.5881 9.52452 15.6403 9.46559 15.7058C9.33797 15.8398 9.26858 16.0188 9.27259 16.2038C9.26858 16.3888 9.33797 16.5678 9.46559 16.7018C9.52452 16.7673 9.59675 16.8195 9.67745 16.8549C9.75816 16.8902 9.84549 16.9079 9.93359 16.9068H12.6516V19.7968C12.6476 19.9818 12.717 20.1608 12.8446 20.2948C12.9036 20.3604 12.976 20.4127 13.0569 20.4481C13.1378 20.4834 13.2253 20.5011 13.3136 20.4998C13.4966 20.4998 13.6536 20.4318 13.7816 20.2948C13.9092 20.1608 13.9786 19.9818 13.9746 19.7968V16.9068H16.8396C16.9277 16.9079 17.015 16.8901 17.0957 16.8548C17.1764 16.8194 17.2486 16.7673 17.3076 16.7018C17.4352 16.5678 17.5046 16.3888 17.5006 16.2038C17.5046 16.0188 17.4352 15.8398 17.3076 15.7058C17.2487 15.6403 17.1764 15.5881 17.0957 15.5528C17.015 15.5174 16.9277 15.4997 16.8396 15.5008V15.4998ZM17.3556 5.52681L13.3306 0.980811L12.8906 0.501811H3.78059C3.61059 0.501811 3.42059 0.491811 3.25459 0.518811C3.05543 0.547091 2.8734 0.646992 2.74259 0.799811C2.46159 1.11781 2.50259 1.51681 2.50259 1.90781V19.0928C2.50259 19.4838 2.45759 19.9068 2.74259 20.2028C3.02759 20.4988 3.21859 20.4988 3.58559 20.4988H8.61059C8.69885 20.5 8.78635 20.4823 8.86723 20.447C8.94812 20.4116 9.02052 20.3594 9.07959 20.2938C9.20721 20.1598 9.2766 19.9808 9.27259 19.7958C9.2766 19.6108 9.20721 19.4318 9.07959 19.2978C9.02056 19.2322 8.94816 19.1799 8.86727 19.1446C8.78638 19.1092 8.69886 19.0916 8.61059 19.0928H3.84559L3.83959 1.86381H11.1146V5.45681C11.1146 5.84781 11.2666 6.19981 11.5056 6.45281C11.7456 6.70581 12.0756 6.86281 12.4426 6.86281H16.1776V11.0478C16.1736 11.2328 16.243 11.4118 16.3706 11.5458C16.4295 11.6113 16.5017 11.6635 16.5825 11.6988C16.6632 11.7342 16.7505 11.7519 16.8386 11.7508C17.0226 11.7508 17.1786 11.6818 17.3076 11.5458C17.4348 11.4117 17.5039 11.2327 17.4996 11.0478V5.97481L17.5006 5.69581L17.3556 5.52681ZM12.5186 5.35481C12.4776 5.30181 12.4526 5.20881 12.4436 5.07481V2.01981L15.5026 5.45681H12.7606C12.6406 5.44081 12.5606 5.40681 12.5186 5.35381V5.35481Z" fill="#017BFF"/>
</g>
<defs>
<clipPath id="clip0_224_21144">
<rect width="20" height="20" fill="white" transform="translate(0.5 0.5)"/>
</clipPath>
</defs>
</svg>
