<svg width="28" height="29" viewBox="0 0 28 29" fill="none" xmlns="http://www.w3.org/2000/svg">
<path d="M23.368 8.75107C23.532 8.91514 23.625 9.13662 23.625 9.36904V26.2319C23.625 26.7159 23.234 27.1069 22.75 27.1069H5.25C4.76602 27.1069 4.375 26.7159 4.375 26.2319V3.48193C4.375 2.99795 4.76602 2.60693 5.25 2.60693H16.8629C17.0953 2.60693 17.3195 2.6999 17.4836 2.86396L23.368 8.75107ZM21.607 9.771L16.4609 4.6249V9.771H21.607ZM17.3146 18.282C16.8995 18.2683 16.4582 18.3003 15.957 18.3629C15.2925 17.9531 14.8452 17.3901 14.5275 16.5629L14.5567 16.4431L14.5906 16.3015C14.7082 15.8058 14.7714 15.444 14.7902 15.0792C14.8045 14.8039 14.7891 14.5499 14.7402 14.3144C14.65 13.8061 14.2904 13.5089 13.8373 13.4906C13.4148 13.4733 13.0266 13.7093 12.9273 14.0749C12.7657 14.6661 12.8603 15.444 13.2029 16.7707C12.7665 17.8112 12.1898 19.031 11.8029 19.7113C11.2864 19.9776 10.8842 20.2199 10.5462 20.4884C10.1005 20.843 9.82215 21.2075 9.74559 21.5903C9.7084 21.7678 9.76445 21.9997 9.89215 22.1897C10.0371 22.4052 10.2553 22.5452 10.517 22.5654C11.1773 22.6165 11.9889 21.9357 12.8849 20.3981C12.9749 20.3681 13.07 20.3363 13.1862 20.297L13.5116 20.187C13.7175 20.1176 13.8668 20.0678 14.0145 20.02C14.6543 19.8116 15.1383 19.6801 15.5786 19.6052C16.3436 20.0148 17.2279 20.2833 17.8235 20.2833C18.3151 20.2833 18.6473 20.0285 18.7674 19.6273C18.8727 19.2751 18.7893 18.8666 18.5629 18.6408C18.3288 18.4108 17.8984 18.3009 17.3146 18.282ZM10.5336 21.7935V21.7837L10.5372 21.7744C10.5772 21.6709 10.6286 21.5722 10.6903 21.4801C10.8073 21.3002 10.9684 21.111 11.168 20.9095C11.2752 20.8015 11.3868 20.6962 11.5177 20.5781C11.547 20.5518 11.734 20.3853 11.769 20.3525L12.0745 20.0681L11.8524 20.4217C11.5155 20.9587 11.2109 21.3453 10.9501 21.5974C10.8541 21.6904 10.7696 21.7588 10.7012 21.8028C10.6787 21.8179 10.6548 21.8309 10.6299 21.8416C10.6187 21.8463 10.6088 21.849 10.599 21.8498C10.5886 21.8511 10.578 21.8497 10.5684 21.8457C10.5581 21.8414 10.5493 21.8342 10.5431 21.8249C10.5369 21.8156 10.5336 21.8047 10.5336 21.7935ZM13.9773 15.8249L13.9155 15.9343L13.8772 15.8145C13.7925 15.5457 13.7301 15.1408 13.7129 14.7754C13.6932 14.3598 13.7263 14.1104 13.8575 14.1104C14.0418 14.1104 14.1263 14.4058 14.1329 14.8501C14.1389 15.2406 14.0774 15.6469 13.977 15.8249H13.9773ZM13.8184 17.4234L13.8603 17.3127L13.9174 17.4166C14.2371 17.9974 14.6519 18.4819 15.108 18.8196L15.2064 18.8923L15.0864 18.9169C14.6398 19.0094 14.2239 19.1483 13.6552 19.3777C13.7145 19.3536 13.064 19.6199 12.8994 19.6831L12.7559 19.7381L12.8324 19.6046C13.1701 19.0167 13.4821 18.3107 13.8182 17.4234H13.8184ZM18.1284 19.5087C17.9134 19.5934 17.4508 19.5177 16.6362 19.1699L16.4295 19.0818L16.6537 19.0654C17.2908 19.0181 17.742 19.0531 18.005 19.1494C18.1171 19.1904 18.1918 19.2421 18.2249 19.3011C18.2423 19.3291 18.2481 19.3627 18.2412 19.3949C18.2343 19.4271 18.2151 19.4553 18.1877 19.4737C18.1703 19.489 18.1502 19.5008 18.1284 19.5087Z" fill="white"/>
</svg>
