<svg width="19" height="19" viewBox="0 0 19 19" fill="none" xmlns="http://www.w3.org/2000/svg">
<path d="M12.5482 6.73682C12.5482 6.65947 12.485 6.59619 12.4076 6.59619L11.2475 6.60147L9.5002 8.68447L7.75469 6.60322L6.59277 6.59795C6.51543 6.59795 6.45215 6.65947 6.45215 6.73857C6.45215 6.77197 6.46445 6.80361 6.48555 6.82998L8.77246 9.55459L6.48555 12.2774C6.46431 12.3032 6.45252 12.3355 6.45215 12.3688C6.45215 12.4462 6.51543 12.5095 6.59277 12.5095L7.75469 12.5042L9.5002 10.4212L11.2457 12.5024L12.4059 12.5077C12.4832 12.5077 12.5465 12.4462 12.5465 12.3671C12.5465 12.3337 12.5342 12.3021 12.5131 12.2757L10.2297 9.55283L12.5166 6.82822C12.5377 6.80361 12.5482 6.77021 12.5482 6.73682Z" fill="#D93B29"/>
<path d="M9.5 1.64258C5.15117 1.64258 1.625 5.16875 1.625 9.51758C1.625 13.8664 5.15117 17.3926 9.5 17.3926C13.8488 17.3926 17.375 13.8664 17.375 9.51758C17.375 5.16875 13.8488 1.64258 9.5 1.64258ZM9.5 16.0566C5.88945 16.0566 2.96094 13.1281 2.96094 9.51758C2.96094 5.90703 5.88945 2.97852 9.5 2.97852C13.1105 2.97852 16.0391 5.90703 16.0391 9.51758C16.0391 13.1281 13.1105 16.0566 9.5 16.0566Z" fill="#D93B29"/>
</svg>
