<svg width="31" height="32" viewBox="0 0 31 32" fill="none" xmlns="http://www.w3.org/2000/svg">
<path d="M9.71429 29.3569H21.2857C25.5459 29.3569 29 25.9029 29 21.6426V10.0712C29 5.81101 25.5459 2.35693 21.2857 2.35693H9.71429C5.45407 2.35693 2 5.81101 2 10.0712V21.6426C2 25.9029 5.45407 29.3569 9.71429 29.3569Z" stroke="white" stroke-width="2" stroke-miterlimit="10"/>
<path d="M15 9.35693C13.4087 9.35693 11.8826 9.98907 10.7574 11.1143C9.63214 12.2395 9 13.7656 9 15.3569C9 16.9482 9.63214 18.4744 10.7574 19.5996C11.8826 20.7248 13.4087 21.3569 15 21.3569C16.5913 21.3569 18.1174 20.7248 19.2426 19.5996C20.3679 18.4744 21 16.9482 21 15.3569C21 13.7656 20.3679 12.2395 19.2426 11.1143C18.1174 9.98907 16.5913 9.35693 15 9.35693Z" stroke="white" stroke-width="2" stroke-miterlimit="10"/>
<path d="M23 7.35693C22.7348 7.35693 22.4804 7.46229 22.2929 7.64983C22.1054 7.83736 22 8.09172 22 8.35693C22 8.62215 22.1054 8.8765 22.2929 9.06404C22.4804 9.25158 22.7348 9.35693 23 9.35693C23.2652 9.35693 23.5196 9.25158 23.7071 9.06404C23.8946 8.8765 24 8.62215 24 8.35693C24 8.09172 23.8946 7.83736 23.7071 7.64983C23.5196 7.46229 23.2652 7.35693 23 7.35693Z" fill="white"/>
</svg>
