<?xml version="1.0" encoding="utf-8"?>
<!-- Generator: Adobe Illustrator 24.1.2, SVG Export Plug-In . SVG Version: 6.00 Build 0)  -->
<svg version="1.1" id="Слой_6" xmlns="http://www.w3.org/2000/svg" xmlns:xlink="http://www.w3.org/1999/xlink" x="0px" y="0px"
	 viewBox="0 0 25 25" style="enable-background:new 0 0 25 25;" xml:space="preserve">
<style type="text/css">
	.st0{fill:#A162F7;}
</style>
<g>
	<g>
		<path class="st0" d="M12.5,0C5.6,0,0,5.6,0,12.5C0,19.4,5.6,25,12.5,25S25,19.4,25,12.5C25,5.6,19.4,0,12.5,0z M7.5,3.3
			C7.2,3.8,7,4.4,6.7,4.9C6.4,4.8,6.2,4.6,5.9,4.4C6.4,4,7,3.6,7.5,3.3z M4.5,5.9c0.5,0.4,1,0.7,1.5,1c-0.4,1.4-0.7,2.9-0.8,4.6H2.2
			C2.4,9.3,3.2,7.4,4.5,5.9z M2.2,13.6h3.1c0.1,1.6,0.4,3.2,0.8,4.6c-0.6,0.3-1.1,0.6-1.5,1C3.2,17.6,2.4,15.7,2.2,13.6z M5.9,20.6
			c0.2-0.2,0.5-0.3,0.8-0.5c0.3,0.6,0.5,1.1,0.8,1.6C7,21.4,6.4,21,5.9,20.6z M11.4,22.7c-1.1-0.5-2.1-1.7-2.8-3.4
			c0.9-0.3,1.8-0.4,2.8-0.5V22.7z M11.4,16.7C10.2,16.8,9,17,7.9,17.4c-0.3-1.2-0.5-2.4-0.6-3.8h4.1V16.7z M11.4,11.4H7.4
			c0.1-1.4,0.3-2.6,0.6-3.8C9,8,10.2,8.2,11.4,8.3V11.4z M11.4,6.2c-1-0.1-2-0.3-2.8-0.5c0.7-1.7,1.7-2.9,2.8-3.4V6.2z M22.8,11.4
			h-3.1c-0.1-1.6-0.4-3.2-0.8-4.6c0.6-0.3,1.1-0.6,1.5-1C21.8,7.4,22.6,9.3,22.8,11.4z M19.1,4.4c-0.2,0.2-0.5,0.3-0.8,0.5
			c-0.3-0.6-0.5-1.1-0.8-1.6C18,3.6,18.6,4,19.1,4.4z M13.6,2.3c1.1,0.5,2.1,1.7,2.8,3.4c-0.9,0.3-1.8,0.4-2.8,0.5V2.3z M13.6,8.3
			C14.8,8.2,16,8,17.1,7.6c0.3,1.2,0.5,2.4,0.6,3.8h-4.1V8.3z M13.6,22.7v-3.9c1,0.1,2,0.3,2.8,0.5C15.7,21,14.7,22.2,13.6,22.7z
			 M13.6,16.7v-3.1h4.1c-0.1,1.4-0.3,2.6-0.6,3.8C16,17,14.8,16.8,13.6,16.7z M17.5,21.7c0.3-0.5,0.6-1,0.8-1.6
			c0.3,0.2,0.5,0.3,0.8,0.5C18.6,21,18,21.4,17.5,21.7z M20.5,19.1c-0.5-0.4-1-0.7-1.5-1c0.4-1.4,0.7-3,0.8-4.6h3.1
			C22.6,15.7,21.8,17.6,20.5,19.1z"/>
	</g>
</g>
</svg>
