<?xml version="1.0" encoding="utf-8"?>
<!-- Generator: Adobe Illustrator 24.1.2, SVG Export Plug-In . SVG Version: 6.00 Build 0)  -->
<svg version="1.1" id="Слой_1" xmlns="http://www.w3.org/2000/svg" xmlns:xlink="http://www.w3.org/1999/xlink" x="0px" y="0px"
	 viewBox="0 0 29 20" style="enable-background:new 0 0 29 20;" xml:space="preserve">
<style type="text/css">
	.st0{fill:#FFFFFF;}
</style>
<path class="st0" d="M29,18.6c0,0.1,0,0.2,0,0.2L20,10l9-8.8c0,0.1,0,0.2,0,0.2V18.6z M27.6,20H1.5c-0.2,0-0.3,0-0.5-0.1l9-8.9
	l2.5,2.5c0.6,0.5,1.3,0.8,2,0.8c0.7,0,1.5-0.3,2-0.8L19,11l9,8.9C27.9,20,27.7,20,27.6,20z M0,18.6V1.4c0-0.1,0-0.2,0-0.2L9,10
	l-9,8.8C0,18.8,0,18.7,0,18.6z M1.5,0h26.1c0.2,0,0.3,0,0.5,0.1L15.5,12.5c-0.3,0.3-0.6,0.4-1,0.4c-0.4,0-0.7-0.1-1-0.4L1,0.1
	C1.1,0,1.3,0,1.5,0z"/>
</svg>
