<svg width="60" height="60" viewBox="0 0 60 60" fill="none" xmlns="http://www.w3.org/2000/svg">
<path d="M30.624 34.1911L30.6415 34.1083C30.9793 32.6945 31.4044 30.9318 31.0724 29.3347C30.8511 28.0748 29.9368 27.5838 29.1564 27.5483C28.2362 27.5069 27.4151 28.0393 27.2112 28.8142C26.8268 30.2338 27.1705 32.174 27.7994 34.6465C27.0074 36.5631 25.7436 39.3491 24.8176 41.0054C23.0938 41.9104 20.7817 43.3064 20.4381 45.0691C20.3682 45.3944 20.4497 45.8085 20.6419 46.1811C20.8574 46.5952 21.201 46.9146 21.6028 47.0684C21.7776 47.1335 21.9872 47.1867 22.2318 47.1867C23.2568 47.1867 24.9166 46.3468 27.1297 42.4901C27.4675 42.3777 27.8169 42.2594 28.1547 42.1411C29.7388 41.5969 31.3811 41.029 32.8662 40.7747C34.5085 41.6679 36.378 42.2416 37.6476 42.2416C38.9055 42.2416 39.4006 41.4845 39.5869 41.029C39.9131 40.2305 39.7558 39.2249 39.2259 38.6866C38.4571 37.9176 36.5876 37.7165 33.6757 38.0833C32.243 37.196 31.3054 35.9893 30.624 34.1911ZM24.2352 43.1762C23.4257 44.3711 22.8142 44.9685 22.4822 45.2288C22.8724 44.5012 23.6354 43.7323 24.2352 43.1762ZM29.3369 29.246C29.6398 29.7724 29.599 31.3636 29.3661 32.1681C29.0807 30.991 29.0399 29.3229 29.2088 29.1277C29.2554 29.1336 29.2962 29.1691 29.3369 29.246ZM29.2437 36.3738C29.8669 37.4681 30.6531 38.4086 31.5209 39.1066C30.2629 39.3964 29.1156 39.8756 28.0906 40.3015C27.846 40.402 27.6072 40.5026 27.3743 40.5972C28.1489 39.1717 28.7953 37.5568 29.2437 36.3738ZM38.3057 40.2482C38.3115 40.26 38.3173 40.2778 38.2824 40.3015H38.2707L38.2591 40.3192C38.2125 40.3488 37.7349 40.6327 35.6791 39.8105C38.0436 39.6981 38.2999 40.2423 38.3057 40.2482ZM49.4526 17.2855L36.9196 4.55603C36.5702 4.20112 36.0984 4 35.6034 4H10.8636C9.83281 4 9 4.84587 9 5.89286V55.1071C9 56.1541 9.83281 57 10.8636 57H48.1364C49.1672 57 50 56.1541 50 55.1071V18.6282C50 18.1254 49.802 17.6404 49.4526 17.2855ZM45.702 19.4978H34.7415V8.3654L45.702 19.4978ZM45.8068 52.7411H13.1932V8.25893H30.7812V21.0357C30.7812 21.6946 31.039 22.3265 31.4977 22.7924C31.9564 23.2583 32.5785 23.5201 33.2273 23.5201H45.8068V52.7411Z" fill="#017BFF"/>
</svg>
