<svg width="428" height="68" viewBox="0 0 428 68" fill="none" xmlns="http://www.w3.org/2000/svg">
<path d="M72.1602 22.2394H79.0154V27.1941C79.8723 25.6564 80.9766 24.4984 82.3287 23.7201C84.0616 22.657 86.1181 22.1254 88.4984 22.1254C89.1457 22.1254 89.7361 22.1635 90.2693 22.2394V29.4721C89.679 29.2824 88.9459 29.1873 88.0699 29.1873C86.6227 29.1873 85.3374 29.4532 84.2138 29.9846C82.8428 30.6111 81.7955 31.5413 81.0719 32.7754C80.3482 34.0092 79.9865 35.509 79.9865 37.2744V52.993H72.1602V22.2394Z" fill="#0D4CD3"/>
<path d="M106.042 53.9042C102.424 53.9042 99.7201 52.9834 97.9301 51.142C96.1592 49.3006 95.0547 47.3547 94.6168 45.3045C94.1979 43.2543 93.9883 41.318 93.9883 39.4955V22.2394H101.872V36.7619C101.872 38.3186 101.986 39.7802 102.215 41.1472C102.443 42.514 103.043 43.7669 104.014 44.9059C105.004 46.0449 106.499 46.6144 108.499 46.6144C110.289 46.6144 111.831 46.007 113.126 44.792C114.421 43.558 115.068 41.2421 115.068 37.8439V22.2394H122.894V52.993H116.039V49.8322C114.878 51.123 113.459 52.1292 111.783 52.8505C110.108 53.5529 108.194 53.9042 106.042 53.9042Z" fill="#0D4CD3"/>
<path d="M141.789 53.8472C137.904 53.8472 134.762 52.9739 132.363 51.2275C129.983 49.4809 128.536 46.994 128.021 43.7669L135.962 42.5709C136.286 44.0326 137 45.1716 138.104 45.9879C139.228 46.7852 140.646 47.1839 142.36 47.1839C143.75 47.1839 144.826 46.9182 145.588 46.3866C146.369 45.8361 146.759 45.0767 146.759 44.1086C146.759 43.4631 146.597 42.9696 146.273 42.6279C145.969 42.2671 145.321 41.9159 144.331 41.5742C143.36 41.2325 141.694 40.7484 139.333 40.1219C136.781 39.4766 134.762 38.7551 133.277 37.9578C131.792 37.1605 130.716 36.2114 130.049 35.1103C129.383 34.0092 129.05 32.6615 129.05 31.0667C129.05 29.1115 129.554 27.4028 130.563 25.9412C131.573 24.4794 133.001 23.3594 134.848 22.5811C136.695 21.7837 138.856 21.385 141.332 21.385C143.731 21.385 145.864 21.7553 147.73 22.4956C149.615 23.236 151.129 24.2992 152.272 25.6848C153.433 27.0518 154.147 28.6559 154.414 30.4972L146.473 31.9211C146.34 30.7819 145.845 29.8803 144.988 29.2159C144.131 28.5514 142.97 28.1622 141.503 28.0483L140.904 28.0199C139.647 28.0199 138.637 28.2571 137.876 28.7317C137.133 29.2064 136.762 29.8519 136.762 30.668C136.762 31.2187 136.952 31.6743 137.333 32.035C137.714 32.3767 138.457 32.7373 139.561 33.1171C140.666 33.4776 142.474 33.9713 144.988 34.5978C147.349 35.2052 149.235 35.9171 150.644 36.7335C152.053 37.5308 153.081 38.4894 153.728 39.6094C154.376 40.7295 154.7 42.0963 154.7 43.7099C154.7 45.798 154.185 47.6111 153.157 49.1488C152.129 50.6674 150.644 51.8349 148.701 52.6513C146.759 53.4486 144.455 53.8472 141.789 53.8472Z" fill="#0D4CD3"/>
<path d="M171.889 53.8472C168.004 53.8472 164.862 52.9739 162.463 51.2275C160.082 49.4809 158.635 46.994 158.121 43.7669L166.062 42.5709C166.385 44.0326 167.099 45.1716 168.204 45.9879C169.327 46.7852 170.746 47.1839 172.46 47.1839C173.85 47.1839 174.926 46.9182 175.687 46.3866C176.468 45.8361 176.859 45.0767 176.859 44.1086C176.859 43.4631 176.697 42.9696 176.373 42.6279C176.068 42.2671 175.421 41.9159 174.431 41.5742C173.46 41.2325 171.793 40.7484 169.432 40.1219C166.88 39.4766 164.862 38.7551 163.377 37.9578C161.891 37.1605 160.816 36.2114 160.149 35.1103C159.483 34.0092 159.149 32.6615 159.149 31.0667C159.149 29.1115 159.654 27.4028 160.663 25.9412C161.672 24.4794 163.101 23.3594 164.948 22.5811C166.795 21.7837 168.956 21.385 171.432 21.385C173.831 21.385 175.964 21.7553 177.83 22.4956C179.715 23.236 181.229 24.2992 182.371 25.6848C183.533 27.0518 184.246 28.6559 184.513 30.4972L176.573 31.9211C176.44 30.7819 175.944 29.8803 175.088 29.2159C174.231 28.5514 173.069 28.1622 171.603 28.0483L171.003 28.0199C169.746 28.0199 168.737 28.2571 167.975 28.7317C167.233 29.2064 166.861 29.8519 166.861 30.668C166.861 31.2187 167.052 31.6743 167.433 32.035C167.814 32.3767 168.556 32.7373 169.661 33.1171C170.765 33.4776 172.574 33.9713 175.088 34.5978C177.449 35.2052 179.335 35.9171 180.742 36.7335C182.152 37.5308 183.181 38.4894 183.829 39.6094C184.476 40.7295 184.8 42.0963 184.8 43.7099C184.8 45.798 184.285 47.6111 183.257 49.1488C182.228 50.6674 180.742 51.8349 178.801 52.6513C176.859 53.4486 174.555 53.8472 171.889 53.8472Z" fill="#0D4CD3"/>
<path d="M203.814 53.8472C200.747 53.8472 198.034 53.1638 195.673 51.797C193.312 50.4112 191.475 48.4937 190.161 46.0449C188.866 43.577 188.219 40.7674 188.219 37.6161C188.219 34.4458 188.875 31.6362 190.189 29.1873C191.522 26.7194 193.369 24.8022 195.73 23.4354C198.111 22.0684 200.806 21.385 203.814 21.385C206.879 21.385 209.594 22.0779 211.955 23.4638C214.334 24.8306 216.182 26.748 217.496 29.2159C218.81 31.6838 219.466 34.4839 219.466 37.6161C219.466 40.7674 218.8 43.577 217.468 46.0449C216.154 48.4937 214.306 50.4112 211.925 51.797C209.564 53.1638 206.86 53.8472 203.814 53.8472ZM196.444 37.6161C196.444 40.4257 197.072 42.6279 198.33 44.2225C199.605 45.8171 201.434 46.6144 203.814 46.6144C206.232 46.6144 208.069 45.798 209.327 44.1655C210.602 42.5329 211.241 40.3497 211.241 37.6161C211.241 34.8256 210.602 32.6329 209.327 31.0383C208.05 29.4247 206.212 28.6178 203.814 28.6178C201.358 28.6178 199.509 29.4247 198.273 31.0383C197.055 32.6329 196.444 34.8256 196.444 37.6161Z" fill="#0D4CD3"/>
<path d="M222.32 22.2395H227.175C227.175 20.9485 227.195 19.9139 227.233 19.1356C227.29 18.3383 227.47 17.465 227.775 16.5158C228.081 15.5666 228.565 14.7218 229.232 13.9815C230.279 12.8235 231.441 12.0641 232.716 11.7034C234.012 11.3238 235.42 11.1339 236.945 11.1339H238.259H242.086V17.3985H238.544C237.362 17.3985 236.467 17.6928 235.859 18.2813C235.249 18.8697 234.945 19.6196 234.945 20.5308V22.2395H242.086V28.2192H234.945V52.993H227.175V28.2192H222.32V22.2395Z" fill="#0D4CD3"/>
<path d="M264.008 52.993C262.027 53.3536 260.181 53.5339 258.467 53.5339C256.143 53.5339 254.125 53.1922 252.411 52.5088C250.698 51.8064 249.421 50.6959 248.584 49.1772C248.069 48.2281 247.726 47.2599 247.555 46.2727C247.383 45.2855 247.298 44.1181 247.298 42.7702L247.327 39.9511V28.2192H242.07V22.2395H247.327V13.6967H255.096V22.2395H264.008V28.2192H255.096V39.4955V41.1187C255.096 42.1058 255.133 42.9031 255.209 43.5106C255.287 44.1181 255.457 44.6212 255.724 45.0198C256.506 46.2537 258.048 46.8708 260.352 46.8708C261.228 46.8708 262.446 46.7662 264.008 46.5575V52.993Z" fill="#0D4CD3"/>
<path d="M40.59 17.129H19.5433C8.74985 17.129 0 25.8519 0 36.6122C0 47.3725 8.74985 56.0955 19.5433 56.0955H40.59C51.3834 56.0955 60.1333 47.3725 60.1333 36.6122C60.1333 25.8519 51.3834 17.129 40.59 17.129Z" fill="url(#paint0_linear_268_24758)" fill-opacity="0.4"/>
<path d="M40.588 51.5991C48.8907 51.5991 55.6214 44.8892 55.6214 36.612C55.6214 28.3348 48.8907 21.6249 40.588 21.6249C32.2853 21.6249 25.5547 28.3348 25.5547 36.612C25.5547 44.8892 32.2853 51.5991 40.588 51.5991Z" fill="#0D4CD3"/>
<path d="M322.398 18.5798H320.504V26.6022H322.398V18.5798Z" fill="#0B1F33"/>
<path d="M322.398 26.6021H320.504V34.6242H322.398V26.6021Z" fill="#0B1F33"/>
<path d="M322.398 34.6239H320.504V42.6461H322.398V34.6239Z" fill="#0B1F33"/>
<path d="M322.398 42.6464H320.504V50.6684H322.398V42.6464Z" fill="#0B1F33"/>
<path d="M301.685 33.609C301.678 33.6013 301.506 33.4068 301.213 33.4068C301.057 33.4068 300.896 33.4613 300.737 33.5623C300.709 33.5778 300.691 33.6129 300.698 33.648C300.698 33.6557 300.815 34.5271 300.726 34.9007C300.659 35.1807 300.442 35.5115 300.049 35.5115C299.962 35.5115 299.877 35.4959 299.786 35.4686H299.782L300.081 35.2468C300.102 35.2313 300.116 35.2041 300.116 35.1729C300.116 35.1419 300.102 35.1186 300.081 35.0991L299.488 34.6517C299.676 34.4961 299.793 34.3871 299.807 34.3716C299.824 34.3561 299.835 34.3326 299.835 34.3093C299.835 34.2859 299.828 34.2626 299.81 34.2432L299.704 34.1265C299.69 34.1108 299.669 34.0992 299.648 34.0992C299.63 34.0992 299.612 34.1069 299.598 34.1187C299.591 34.1226 299.434 34.2549 299.197 34.4338L298.96 34.2549L299.888 33.5545L299.959 33.7568C299.971 33.788 299.999 33.8112 300.031 33.8112C300.031 33.8112 300.031 33.8112 300.035 33.8112C300.063 33.8112 300.091 33.7919 300.106 33.7647L300.55 32.8697C300.564 32.8387 300.56 32.8038 300.546 32.7765C300.532 32.7532 300.507 32.7375 300.477 32.7375C300.473 32.7375 300.47 32.7375 300.466 32.7375L299.552 32.8893C299.52 32.8932 299.495 32.9164 299.485 32.9515C299.478 32.9827 299.485 33.0177 299.51 33.0409L299.658 33.185L298.601 33.9825L297.546 33.185L297.695 33.0409C297.716 33.0177 297.727 32.9827 297.716 32.9515C297.709 32.9164 297.684 32.8932 297.653 32.8893L296.736 32.7375C296.733 32.7375 296.729 32.7375 296.726 32.7375C296.698 32.7375 296.673 32.7493 296.659 32.7765C296.641 32.8038 296.641 32.8387 296.655 32.8697L297.095 33.7647C297.11 33.7919 297.138 33.8112 297.166 33.8112C297.17 33.8112 297.17 33.8112 297.17 33.8112C297.202 33.8112 297.226 33.788 297.24 33.7568L297.315 33.5545L298.245 34.2549L298.008 34.4338C297.769 34.2549 297.614 34.1226 297.61 34.1187C297.596 34.1069 297.578 34.0992 297.561 34.0992C297.539 34.0992 297.518 34.1069 297.504 34.1265L297.396 34.2432C297.382 34.2587 297.371 34.282 297.371 34.3093C297.371 34.3326 297.382 34.3561 297.401 34.3716C297.419 34.3871 297.536 34.4961 297.723 34.6517L297.131 35.0991C297.11 35.1146 297.095 35.1419 297.095 35.1729C297.095 35.2041 297.11 35.2274 297.131 35.2468L297.43 35.4686C297.43 35.4686 297.43 35.4686 297.426 35.4686C297.332 35.4959 297.248 35.5115 297.163 35.5115C296.768 35.5115 296.549 35.1807 296.482 34.9007C296.393 34.5271 296.51 33.6557 296.51 33.648C296.514 33.6129 296.499 33.5778 296.471 33.5623C296.307 33.4613 296.147 33.4068 295.995 33.4068C295.697 33.4068 295.527 33.5974 295.52 33.609C295.506 33.6207 295.498 33.6441 295.498 33.6596C295.495 33.7141 295.403 34.9707 295.935 35.6088C296.13 35.8422 296.39 35.9627 296.698 35.9627C296.751 35.9627 296.811 35.9627 296.867 35.951C297.17 35.9122 297.465 35.8227 297.752 35.7139L298.245 36.0796L297.156 36.8887C297.134 36.9082 297.12 36.9315 297.12 36.9627C297.12 36.9899 297.131 37.017 297.156 37.0364L298.249 37.8653L297.315 38.5734L297.244 38.3748C297.233 38.3438 297.205 38.3242 297.173 38.3204C297.173 38.3204 297.173 38.3204 297.17 38.3204C297.141 38.3204 297.113 38.3399 297.099 38.3671L296.659 39.2619C296.644 39.2892 296.648 39.328 296.662 39.3513C296.676 39.3747 296.701 39.3902 296.729 39.3902C296.733 39.3902 296.736 39.3902 296.74 39.3902L297.656 39.2425C297.688 39.2386 297.713 39.2113 297.72 39.1802C297.73 39.1452 297.72 39.1102 297.699 39.0868L297.546 38.939L298.604 38.1375L299.662 38.939L299.51 39.0868C299.485 39.1102 299.478 39.1452 299.485 39.1802C299.492 39.2113 299.52 39.2347 299.552 39.2425L300.466 39.3902C300.47 39.3902 300.473 39.3902 300.477 39.3902C300.504 39.3902 300.528 39.3786 300.546 39.3513C300.564 39.3241 300.564 39.2892 300.55 39.2619L300.106 38.3671C300.091 38.3399 300.067 38.3204 300.035 38.3204H300.031C299.996 38.3204 299.971 38.3438 299.959 38.3748L299.888 38.5734L298.956 37.8653L300.049 37.0364C300.07 37.0209 300.084 36.9938 300.084 36.9627C300.084 36.9315 300.07 36.9082 300.049 36.8887L298.96 36.0796L299.451 35.7139C299.736 35.8265 300.031 35.9122 300.332 35.951C300.392 35.9588 300.449 35.9627 300.504 35.9627C300.815 35.9627 301.071 35.8422 301.266 35.6088C301.798 34.9707 301.706 33.7141 301.703 33.6596C301.703 33.6441 301.696 33.6245 301.685 33.609ZM298.597 34.535L298.83 34.7099C298.756 34.7607 298.678 34.815 298.597 34.8695C298.516 34.815 298.438 34.7646 298.362 34.7099L298.597 34.535ZM297.745 35.1768L298.068 34.9317C298.132 34.9746 298.196 35.0213 298.266 35.0719C298.139 35.1458 298.012 35.2158 297.882 35.2819L297.745 35.1768ZM299.43 36.9627L298.597 37.5929L297.766 36.9627L298.597 36.344L299.43 36.9627ZM298.597 35.811L298.196 35.5115C298.337 35.4376 298.47 35.3637 298.597 35.2858C298.724 35.3637 298.859 35.4376 299.002 35.5115L298.597 35.811ZM299.313 35.2819C299.186 35.2197 299.055 35.1497 298.926 35.0719C298.998 35.0252 299.062 34.9785 299.126 34.9317L299.451 35.1768L299.313 35.2819Z" fill="#0B1F33"/>
<path d="M301.967 34.3474C302 34.2778 302.015 34.1459 302.015 34.1459L301.967 34.1304V34.3474Z" fill="#0B1F33"/>
<path d="M312.453 31.2314C312.111 31.0058 311.547 30.9279 310.972 30.9863C311.871 30.6439 312.484 29.9125 312.516 29.2589C312.047 29.111 311.561 29.1889 311.138 29.2938C311.575 28.9359 312.293 28.2825 312.203 27.3214C311.782 27.2087 311.008 27.5315 310.686 27.6911C311.722 27.053 312.093 25.5436 311.543 24.6876C311.218 24.8977 309.738 26.5549 309.495 26.7457C310.263 25.7848 310.62 25.0961 310.827 24.4502C311.071 23.746 311.089 22.5168 310.295 22.1044C309.918 23.0459 308.606 25.4618 307.874 26.4655C307.792 26.3878 307.729 26.2827 307.626 26.2633C307.451 26.8741 306.933 27.6871 306.461 28.0762C306.436 28.0256 306.39 27.8856 306.308 27.7338C305.808 28.5547 304.51 29.6791 304.091 30.3716C303.763 30.8851 303.763 31.3481 304.218 31.8266C304.402 32.029 304.75 32.3829 304.45 32.881C304.038 33.5384 303.21 33.6162 302.762 33.2272C302.762 33.1105 302.759 32.9977 302.755 32.8926C303.284 32.6669 303.41 31.8772 303.019 31.387C302.934 31.566 302.791 31.6982 302.621 31.7644C302.575 31.5582 302.536 31.4609 302.532 31.4493L302.511 31.4026H302.465C302.462 31.4026 302.287 31.3909 302.028 31.3597C302.322 31.2546 302.511 30.9552 302.469 30.5545C302.014 30.9824 301.56 30.5739 301.457 30.461C301.172 30.0954 301.091 29.683 301.204 29.0528C301.3 28.5041 301.818 27.6327 302.159 27.3526C302.209 27.4032 302.287 27.5081 302.455 27.4926C302.55 27.4577 302.709 27.3681 302.83 27.3175C303.174 27.2048 303.509 27.2903 303.721 27.442C304.112 27.7027 304.076 27.9907 304.066 28.2007C304.658 27.835 304.453 27.2242 303.675 26.9985C304.207 26.9985 304.644 27.5315 304.757 27.5977C305.053 27.835 305.474 27.7805 305.719 27.6521C306.192 27.4071 306.287 26.7963 306.16 26.6718C306.114 26.8896 305.96 27.0841 305.688 27.1191C305.283 27.1697 304.892 26.9791 304.584 26.8273C304.32 26.7067 303.898 26.6173 303.611 26.6367C304.144 26.3139 304.97 26.3488 305.265 26.8469C305.442 26.6912 305.553 26.5511 305.603 26.2282C305.755 25.3567 305.134 24.9094 304.471 24.9094C304.489 24.6994 304.352 24.5941 304.175 24.6643C304.175 24.5747 304.154 24.5047 304.108 24.4698C304.122 24.4698 304.144 24.4619 304.158 24.4619C304.825 24.4113 305.456 24.1858 305.797 23.7928C306.393 23.0924 305.442 22.2054 305.783 21.5169C306.11 21.6724 306.351 21.8748 306.802 21.9448C306.848 22.0499 306.89 22.2599 306.904 22.3727C307.051 23.1508 306.351 23.2793 306.533 24.1078C306.611 24.4853 306.869 24.6137 306.954 25.0612C306.954 25.0612 306.986 25.3724 306.738 25.6446C307.313 25.6601 307.615 25.1271 307.437 24.6331C307.359 24.4309 307.161 24.2401 307.161 24.0029C307.454 24.4309 307.718 24.4152 308.172 24.2558C308.378 24.1858 308.395 24.5009 308.268 24.7537C308.579 24.5515 308.659 24.2207 308.659 24.0729C308.659 23.7228 308.409 23.5593 308.172 23.6295C308.036 23.645 307.767 23.8472 307.75 23.5593C307.693 23.0614 308.409 23.0808 308.264 22.2794C308.187 21.8787 307.778 21.6569 307.143 21.5714C307.079 21.5014 306.919 21.334 306.834 21.1939C306.485 20.5598 306.124 20.3925 305.907 20.5209C305.652 20.6609 305.521 20.7815 305.311 20.9061C305.145 21.0033 304.966 21.0539 304.856 21.1939C304.58 21.5714 304.842 22.155 304.986 22.5129C305.081 22.7229 305.311 23.2014 305.208 23.5593C305.095 23.9874 304.453 24.2558 304.062 24.3453C304.038 24.3453 304.02 24.3531 303.995 24.3531V24.1858C304.108 23.9678 304.204 23.7073 304.282 23.4699C304.545 22.6996 304.154 22.3884 303.576 22.2405C303.502 22.1899 303.424 22.1705 303.327 22.2054H303.309L303.295 22.3339L303.217 22.3066L303.235 22.1511H303.199C303.266 22.1005 303.295 22.0109 303.295 21.9254C303.295 21.832 303.263 21.7581 303.231 21.7075H303.309L303.277 21.6724C303.263 21.6375 303.231 21.6024 303.182 21.5479C303.167 21.5324 303.15 21.4975 303.15 21.4779C303.164 21.4934 303.182 21.513 303.213 21.5285C303.245 21.5636 303.291 21.5985 303.309 21.6336L303.355 21.6685V20.9645L303.309 21.0072C303.295 21.0228 303.245 21.0578 303.213 21.0967C303.182 21.1316 303.167 21.1316 303.15 21.1473C303.15 21.1316 303.164 21.1122 303.182 21.0773C303.231 21.0422 303.263 20.9916 303.277 20.9645L303.309 20.91H302.656L302.688 20.9645C302.72 20.9878 302.759 21.0422 302.791 21.0773C302.805 21.1122 302.822 21.1316 302.837 21.1473C302.819 21.1316 302.791 21.1316 302.773 21.0967C302.716 21.0616 302.688 21.0267 302.656 21.0072L302.631 20.9645V21.6803L302.663 21.6452C302.695 21.6103 302.727 21.5752 302.78 21.5402C302.798 21.5246 302.826 21.5052 302.844 21.4896C302.826 21.5052 302.812 21.5402 302.798 21.5597C302.766 21.6142 302.723 21.6452 302.695 21.6842L302.663 21.7191H302.766C302.709 21.7697 302.695 21.8436 302.695 21.937C302.695 22.0226 302.727 22.1121 302.78 22.1627H302.766L302.78 22.3182L302.695 22.3456L302.677 22.2172H302.663C302.568 22.1821 302.49 22.2015 302.426 22.2521C301.836 22.4 301.447 22.7151 301.708 23.4816C301.79 23.7189 301.887 23.9795 302.004 24.1974V24.3103C301.415 24.1001 300.354 23.392 300.069 22.9641C300.037 22.9214 300.012 22.8863 299.998 22.8592H299.995L300.005 22.3962C300.21 22.0187 300.396 21.5557 300.537 21.1316C300.911 20.023 300.361 19.56 299.487 19.3694C299.398 19.2994 299.289 19.2643 299.142 19.3188L299.11 19.4938L298.926 19.4783L298.94 19.2526C298.916 19.2604 298.884 19.2604 298.852 19.2604C298.976 19.1904 299.064 19.0231 299.064 18.8519C299.064 18.7274 299.008 18.5796 298.912 18.5095H299.064C298.976 18.424 298.834 18.2411 298.806 18.1165C298.916 18.1516 299.082 18.315 299.16 18.4046V17.498C299.082 17.568 298.916 17.7431 298.806 17.7586C298.834 17.6575 298.976 17.4824 299.064 17.3929H298.238C298.302 17.4824 298.461 17.6575 298.475 17.7586C298.38 17.7431 298.219 17.568 298.13 17.498V18.4046C298.219 18.315 298.376 18.1516 298.475 18.1165C298.461 18.2372 298.302 18.4201 298.238 18.5095H298.38C298.284 18.5796 298.238 18.7274 298.238 18.8519C298.238 19.0231 298.316 19.1943 298.443 19.2604C298.412 19.2604 298.38 19.2604 298.33 19.2449L298.348 19.4706L298.162 19.4861L298.145 19.311C298.003 19.2604 297.893 19.2955 297.798 19.3614C296.931 19.5561 296.381 20.0152 296.754 21.1239C296.882 21.5479 297.066 22.0148 297.287 22.3884V22.8669C297.273 22.8824 297.255 22.9174 297.223 22.9524C296.945 23.3804 295.877 24.0884 295.288 24.2986V24.1858C295.405 23.9678 295.504 23.7073 295.582 23.4699C295.845 22.6996 295.455 22.3884 294.866 22.2405C294.798 22.1899 294.724 22.1705 294.629 22.2054H294.614L294.595 22.3339L294.517 22.3066L294.531 22.1511H294.517C294.563 22.1005 294.595 22.0109 294.595 21.9254C294.595 21.832 294.581 21.7581 294.531 21.7075H294.629L294.595 21.6724C294.563 21.6375 294.531 21.6024 294.499 21.5479C294.485 21.5324 294.461 21.4975 294.443 21.4779C294.461 21.4934 294.499 21.513 294.514 21.5285C294.56 21.5636 294.591 21.5985 294.629 21.6336L294.66 21.6685V20.9645L294.629 21.0072C294.595 21.0228 294.563 21.0578 294.514 21.0967C294.499 21.1316 294.461 21.1316 294.443 21.1473C294.461 21.1316 294.482 21.1122 294.499 21.0773C294.531 21.0422 294.563 20.9916 294.595 20.9645L294.629 20.91H293.974L294.006 20.9645C294.02 20.9878 294.063 21.0422 294.096 21.0773C294.128 21.1122 294.142 21.1316 294.142 21.1473C294.132 21.1278 294.114 21.1278 294.084 21.0928C294.045 21.0578 293.995 21.0228 293.981 21.0033L293.932 20.9604V21.6764L293.981 21.6414C293.995 21.6065 294.045 21.5714 294.084 21.5363C294.117 21.5208 294.132 21.5014 294.146 21.4857C294.146 21.5014 294.132 21.5363 294.1 21.5557C294.066 21.6103 294.024 21.6414 294.01 21.6803L293.978 21.7152H294.063C294.024 21.7658 293.988 21.8397 293.988 21.9332C293.988 22.0187 294.02 22.1082 294.096 22.1588H294.063L294.08 22.3144L293.992 22.3417L293.978 22.2133H293.96C293.865 22.1782 293.787 22.1976 293.723 22.2482C293.134 22.3962 292.743 22.7112 293.005 23.4777C293.088 23.715 293.184 23.9756 293.3 24.1935V24.3609C293.276 24.3609 293.254 24.3531 293.237 24.3531C292.846 24.2635 292.193 23.9952 292.084 23.5671C291.979 23.2092 292.211 22.7306 292.306 22.5206C292.459 22.1627 292.715 21.5791 292.444 21.2018C292.324 21.0616 292.151 21.011 291.979 20.9139C291.774 20.7933 291.647 20.6688 291.383 20.5286C291.175 20.4003 290.819 20.5637 290.458 21.2018C290.379 21.3418 290.212 21.5052 290.145 21.5791C289.517 21.6646 289.112 21.8826 289.024 22.2872C288.877 23.0886 289.595 23.073 289.549 23.5671C289.531 23.855 289.254 23.6528 289.126 23.6373C288.877 23.5671 288.633 23.7305 288.633 24.0807C288.633 24.2284 288.721 24.5592 289.024 24.7614C288.895 24.5086 288.911 24.1935 289.126 24.2635C289.581 24.4231 289.832 24.4386 290.131 24.0107C290.131 24.2441 289.938 24.4386 289.853 24.6408C289.677 25.1389 289.972 25.6679 290.554 25.6524C290.29 25.3801 290.343 25.0689 290.343 25.0689C290.425 24.6215 290.681 24.4931 290.766 24.1158C290.943 23.2871 290.241 23.1586 290.393 22.3805C290.407 22.2676 290.439 22.0576 290.49 21.9526C290.943 21.8826 291.192 21.6842 291.509 21.5246C291.834 22.2133 290.893 23.1004 291.493 23.8005C291.838 24.1935 292.473 24.419 293.134 24.4698C293.148 24.4698 293.17 24.4776 293.187 24.4815C293.141 24.5164 293.116 24.5825 293.116 24.6721C292.941 24.6021 292.807 24.7071 292.832 24.9171C292.147 24.9171 291.544 25.3646 291.693 26.236C291.739 26.5588 291.852 26.699 292.038 26.8547C292.324 26.3566 293.152 26.3217 293.691 26.6445C293.396 26.6251 292.973 26.7145 292.715 26.8351C292.409 26.983 292.023 27.1775 291.618 27.1269C291.337 27.092 291.196 26.9012 291.139 26.6796C291.012 26.8041 291.107 27.4109 291.583 27.6599C291.82 27.7883 292.243 27.8427 292.538 27.6054C292.651 27.5354 293.088 27.0063 293.624 27.0063C292.849 27.232 292.634 27.8427 293.24 28.2084C293.215 27.9984 293.187 27.7105 293.575 27.4499C293.79 27.302 294.132 27.2126 294.468 27.3253C294.584 27.3759 294.745 27.4654 294.841 27.5003C295.007 27.516 295.085 27.4109 295.136 27.3603C295.479 27.6405 295.98 28.5119 296.089 29.0606C296.211 29.6907 296.121 30.0992 295.835 30.469C295.739 30.5816 295.278 30.9902 294.827 30.5622C294.784 30.963 294.972 31.2585 295.267 31.3676C295.004 31.3987 294.827 31.4103 294.823 31.4103H294.777L294.759 31.457C294.756 31.4648 294.717 31.566 294.667 31.7682C294.503 31.6982 294.362 31.5699 294.277 31.3909C293.886 31.8811 294.006 32.6669 294.531 32.8926C294.528 33.0016 294.524 33.1144 294.524 33.235C294.073 33.6162 293.258 33.5346 292.853 32.881C292.542 32.3829 292.899 32.025 293.078 31.8266C293.53 31.3481 293.53 30.8851 293.201 30.3716C292.779 29.6829 291.482 28.5547 290.984 27.7338C290.9 27.8817 290.854 28.0217 290.837 28.0762C290.368 27.6871 289.843 26.8741 289.669 26.2633C289.574 26.2788 289.503 26.3878 289.42 26.4655C288.697 25.4618 287.377 23.0459 287.004 22.1044C286.215 22.5168 286.23 23.746 286.472 24.4502C286.684 25.0961 287.043 25.7848 287.798 26.7457C287.561 26.5511 286.081 24.8977 285.754 24.6876C285.207 25.5436 285.58 27.053 286.613 27.6911C286.297 27.5315 285.517 27.2087 285.094 27.3214C285.016 28.2825 285.722 28.9359 286.159 29.2938C285.733 29.1889 285.246 29.111 284.779 29.2589C284.811 29.9125 285.432 30.6479 286.304 30.9863C285.747 30.924 285.183 31.0058 284.839 31.2314C284.903 31.9123 285.605 32.4996 286.447 32.6398C285.883 32.7098 285.382 32.9822 285.119 33.3556C285.428 33.799 285.883 34.1414 286.574 34.1259C286.415 34.1882 286.23 34.3088 286.074 34.4722C286.056 34.4565 286.024 34.4371 285.996 34.4371C285.961 34.4526 285.95 34.5071 285.961 34.5422C285.961 34.5422 285.961 34.5422 285.961 34.5694C285.894 34.62 285.858 34.6822 285.851 34.7444C285.786 34.8457 285.718 34.9624 285.683 35.0673C285.701 35.0752 285.715 35.0946 285.729 35.1024C285.725 35.1569 285.74 35.223 285.779 35.2891C285.747 35.3242 285.733 35.3748 285.715 35.4293L285.312 35.2503C285.29 35.6549 285.372 35.9855 285.556 36.1918C285.701 36.3747 285.869 36.3473 285.819 36.4096L286.258 36.7053C286.337 36.8881 286.497 36.8881 286.606 36.8375C286.606 36.8375 286.606 36.853 286.606 36.8726C286.606 37.0632 286.727 37.2189 286.884 37.2811C286.852 37.4405 286.916 37.5417 287.114 37.6156L288.767 42.0118C288.704 42.222 288.767 42.4048 288.914 42.4748C288.877 42.5254 288.849 42.5799 288.849 42.685C288.914 42.6344 289.01 42.6148 289.056 42.7628C289.088 42.8678 288.914 43.2062 289.176 43.4358C289.141 43.6382 289.24 43.8443 289.429 43.9339C289.429 44.0388 289.517 44.3773 289.532 44.4979C289.413 44.6807 289.141 44.9609 289.176 45.2682C289.208 45.4861 289.286 45.5561 289.447 45.6106C289.381 46.0034 289.581 46.1785 289.882 46.1981C289.882 46.486 290.128 46.587 290.287 46.6064C290.439 46.7311 290.504 46.7815 290.678 46.8789C290.518 47.0851 290.632 47.3574 290.922 47.4469C290.953 47.5675 291.037 47.6724 291.199 47.7153C291.295 47.8904 291.468 47.8904 291.572 47.8398C291.636 47.8049 291.749 47.6025 291.65 47.4274C291.714 47.3419 291.682 47.1745 291.636 47.0694C291.732 46.8789 291.65 46.6415 291.519 46.5715C291.537 46.4665 291.486 46.2991 291.454 46.1981C291.686 46.0385 291.972 45.8402 292.077 45.7702C292.641 45.3266 293.279 44.9297 294.003 44.8793C294.188 44.8597 294.528 44.8442 294.721 44.8597C295.014 44.8948 295.419 44.9919 295.658 44.7897C295.732 44.7391 295.778 44.6497 295.764 44.564C295.732 44.3618 295.532 44.1867 295.469 44.0077C295.451 43.9532 295.423 43.8714 295.391 43.7977C295.596 43.8365 295.789 43.8055 295.906 43.7431C296.033 43.6925 296.342 43.4398 296.328 43.0623C296.079 43.1907 295.483 43.3658 295.419 42.7044C295.355 42.1208 295.824 41.6229 296.558 41.8408C297.059 41.9808 297.791 43.1478 297.122 43.6576C296.797 43.9026 296.296 44.1361 296.36 44.7742C296.572 44.4862 296.861 44.3463 297.234 44.3812C296.687 44.8248 296.265 44.8793 295.69 45.2176C295.189 45.5406 294.816 46.0734 294.422 46.0891C294.121 46.1046 293.953 45.7116 294.248 45.4084C293.953 45.3382 293.562 45.5912 293.452 45.9296C293.311 46.3926 293.421 46.7233 293.684 46.9101C293.329 47.1201 293.063 47.5286 293.191 48.1122C293.311 48.5907 293.748 48.5907 293.582 49.2015C293.826 49.1315 293.985 48.9486 294.056 48.688C294.087 48.5052 294.121 48.3144 294.202 48.225C294.167 48.5907 294.358 49.1315 294.816 49.3765C295.126 49.5439 295.61 49.61 295.983 49.1859C296.135 49.6645 296.65 50.0769 297.188 50.0573C297.432 50.0573 297.672 49.9408 297.855 49.8239C297.982 50.1779 298.309 50.5397 298.631 50.7109C298.965 50.5397 299.292 50.1779 299.427 49.8239C299.604 49.9446 299.849 50.0573 300.086 50.0573C300.601 50.073 301.144 49.6645 301.289 49.1859C301.662 49.61 302.149 49.5439 302.458 49.3765C302.913 49.1315 303.104 48.5907 303.072 48.225C303.157 48.3144 303.189 48.5052 303.224 48.688C303.288 48.9486 303.445 49.1315 303.693 49.2015C303.526 48.5907 303.974 48.5907 304.083 48.1122C304.211 47.5286 303.949 47.1162 303.597 46.9101C303.852 46.7272 303.974 46.3965 303.82 45.9296C303.71 45.5912 303.319 45.3382 303.026 45.4084C303.319 45.7116 303.16 46.1046 302.851 46.0891C302.462 46.0734 302.089 45.5366 301.584 45.2176C301.013 44.8754 300.591 44.8248 300.04 44.3812C300.414 44.3463 300.707 44.4862 300.914 44.7742C300.978 44.1361 300.477 43.9026 300.15 43.6576C299.49 43.1478 300.214 41.9808 300.725 41.8408C301.45 41.6229 301.929 42.1208 301.855 42.7044C301.775 43.3696 301.194 43.1946 300.932 43.0623C300.932 43.4358 301.24 43.6886 301.369 43.7431C301.517 43.821 301.793 43.8637 302.039 43.747C302.032 43.8132 302.021 43.8832 302.021 43.9026C301.972 44.4707 301.694 44.5213 301.79 44.7546C301.926 44.9297 302.815 44.8948 303.058 44.9493C303.48 45.0115 303.838 45.1827 304.243 45.2721C304.697 45.3772 305.18 45.3772 305.589 45.56C305.85 45.6845 306.146 45.9179 306.4 46.0579C306.791 46.1281 306.728 46.3032 306.975 46.3032C307.2 46.3032 307.285 46.093 307.573 46.0073C307.771 45.9569 307.994 46.0424 308.194 45.9724C308.339 45.9373 308.402 45.7741 308.537 45.6845C308.698 45.5794 308.921 45.5794 309.069 45.4278C309.149 45.3498 309.166 45.2021 309.152 45.097L309.156 45.1203C309.46 44.887 309.692 44.5446 309.819 44.1516C309.897 44.1361 309.961 44.0582 309.961 43.9688C309.961 43.9532 309.961 43.9339 309.961 43.9339C310.038 43.8637 310.088 43.7588 310.088 43.6537C310.088 43.5213 310.042 43.4164 309.961 43.3307C309.961 43.3307 309.961 43.3113 309.961 43.2958C309.961 43.2258 309.929 43.1752 309.897 43.1284C309.77 42.3698 309.244 41.759 308.565 41.5684C308.565 41.5488 308.565 41.5488 308.565 41.5333H308.551C308.551 41.4984 308.537 41.4788 308.512 41.4788C308.417 41.3737 308.303 41.2105 308.289 41.1054C308.399 41.1405 308.583 41.3311 308.68 41.4088V40.4051C308.583 40.4828 308.402 40.6736 308.289 40.7085C308.303 40.584 308.477 40.3663 308.565 40.2806H307.637C307.722 40.3663 307.898 40.584 307.913 40.7085C307.803 40.6736 307.619 40.4828 307.525 40.4051V41.4088C307.622 41.3311 307.803 41.1405 307.913 41.1054C307.898 41.2299 307.722 41.4478 307.637 41.5333L307.668 41.5488C306.975 41.7239 306.418 42.3542 306.291 43.1284C306.245 43.1713 306.213 43.2258 306.213 43.2958C306.213 43.3113 306.213 43.3307 306.213 43.3307C306.132 43.4164 306.086 43.5213 306.086 43.6537C306.086 43.7549 306.132 43.8637 306.213 43.9339C306.213 43.9339 306.213 43.9494 306.213 43.9688C306.213 44.0816 306.277 44.1361 306.354 44.1516C306.386 44.2489 306.425 44.3463 306.468 44.4318C306.468 44.424 306.468 44.424 306.478 44.4122C306.422 44.7003 306.103 44.8754 306.032 44.8754C305.463 44.9648 304.835 44.7003 304.264 44.4669C304.013 44.3618 303.668 44.2412 303.502 43.9688C303.397 43.7704 303.351 43.6459 303.406 43.4708C303.47 43.5564 303.572 43.6537 303.717 43.7392C303.732 43.6537 303.732 43.5564 303.763 43.4864C303.908 43.7237 304.14 43.8443 304.416 43.8288C304.25 43.6731 304.172 43.2607 304.25 42.9028C304.481 43.3307 305.357 43.4164 305.518 42.6499C305.191 42.8172 304.982 42.6344 304.92 42.4398C304.825 42.1324 305.145 41.3894 304.856 40.8175C304.626 40.3896 304.363 40.129 303.753 40.0239C303.799 39.9421 303.816 39.8721 303.831 39.7515C303.266 39.9771 302.78 39.8021 302.55 39.308C302.663 39.3586 302.826 39.378 302.987 39.378C302.486 38.9307 302.518 37.6662 302.876 37.0126C302.923 36.9777 302.941 36.9426 302.987 36.9271C303.097 37.1721 303.424 37.1721 303.59 37.3705C303.654 37.3005 303.686 37.2811 303.749 37.2227C303.749 37.2227 303.763 38.2614 303.827 38.6893C303.891 39.1679 304.313 39.1174 304.531 39.3274C304.786 39.0201 305.247 39.0356 305.176 38.5065C305.113 37.9774 305.017 37.4951 305.003 37.1372C305.145 37.4601 305.424 38.6738 305.536 39.0201C305.716 39.5337 306.17 39.378 306.425 39.5803C306.593 39.2223 307.014 39.1174 306.848 38.5767C306.802 38.4365 306.11 36.8414 306.008 36.5341C306.252 36.9271 306.922 38.3314 307.129 38.7244C307.359 39.1329 307.782 38.9346 308.084 39.0356C308.141 38.7399 308.547 38.3977 308.25 37.8841C307.877 37.2032 307 36.0167 306.954 35.8494C307.129 36.0323 308.487 37.8841 308.595 37.9853C308.91 38.2887 309.372 38.0553 309.646 38.0553C309.646 37.7168 309.89 37.3317 309.534 36.9387C309.209 36.5963 308.459 36.0129 308.3 35.8143C308.8 36.1918 309.389 36.7909 309.741 36.8881C310.362 37.0632 310.585 36.7909 310.817 36.6859C310.624 36.0673 310.88 35.7792 309.566 35.1764C310.703 35.6199 311.207 35.4019 311.611 35.0518C311.451 34.6083 311.046 34.2349 310.718 34.1104C311.413 34.1259 311.874 33.7874 312.175 33.3401C311.92 32.9665 311.413 32.6942 310.831 32.6243C311.688 32.4957 312.375 31.9123 312.453 31.2314ZM286.106 35.8027C286.092 35.8027 286.092 35.8182 286.074 35.8378C285.978 35.8221 285.978 35.6976 285.996 35.5925C286.042 35.5925 286.074 35.577 286.106 35.5421L286.12 35.5615L286.074 35.5964C286.092 35.6627 286.092 35.7327 286.106 35.8027ZM286.419 36.5341L286.261 36.433C286.327 36.3512 286.387 36.3512 286.451 36.3979C286.451 36.4485 286.451 36.499 286.419 36.5341ZM286.887 35.4448C286.866 35.4448 286.845 35.4448 286.822 35.4448C286.818 35.4409 286.815 35.4331 286.811 35.4293C286.841 35.4213 286.873 35.4213 286.898 35.4136C286.898 35.4213 286.891 35.4331 286.887 35.4448ZM295.913 48.1899C295.522 48.1899 295.246 47.9216 295.444 47.5441C295.547 47.7153 295.753 47.7932 295.93 47.8126C295.913 47.9916 295.913 48.042 295.913 48.1899ZM301.85 47.5441C302.05 47.9216 301.772 48.1899 301.383 48.1899C301.383 48.042 301.383 47.9916 301.351 47.8126C301.531 47.7971 301.744 47.7231 301.85 47.5441ZM295.898 24.4502C296.79 24.2401 297.697 23.6916 298.106 23.2287C298.443 23.252 298.88 23.2559 299.209 23.2326C299.611 23.6993 300.506 24.2362 301.401 24.4464C300.882 24.4464 299.977 24.3958 299.864 24.2558C299.895 24.6137 300.587 25.0183 301.042 25.1271C300.665 25.1777 300.318 25.1271 300.023 24.9794C300.182 25.2324 300.368 25.423 300.668 25.5357C300.354 25.9637 299.699 26.2399 299.054 26.1737C299.213 26.3839 299.508 26.5161 299.763 26.4772C299.181 27.4926 298.751 28.5353 298.649 29.7413H298.645V29.7452C298.55 28.5353 298.12 27.4926 297.541 26.4772C297.805 26.5123 298.092 26.3839 298.242 26.1737C297.587 26.2437 296.96 25.9637 296.632 25.5357C296.938 25.423 297.119 25.2324 297.28 24.9794C296.991 25.1271 296.632 25.1777 296.261 25.1271C296.716 25.0145 297.414 24.6137 297.446 24.2558C297.322 24.3996 296.417 24.4502 295.898 24.4502ZM287.731 35.1842C287.65 35.223 287.551 35.2697 287.476 35.3048C287.476 35.297 287.476 35.2891 287.476 35.2813C287.554 35.2462 287.653 35.2152 287.731 35.1842ZM293.46 39.7553C293.477 39.8759 293.491 39.9459 293.537 40.0278C292.924 40.1328 292.665 40.3934 292.441 40.8213C292.13 41.3972 292.455 42.1402 292.367 42.4436C292.303 42.6344 292.101 42.8211 291.774 42.6538C291.933 43.4241 292.807 43.3346 293.037 42.9068C293.116 43.2647 293.037 43.677 292.878 43.8326C293.152 43.8482 293.382 43.7276 293.523 43.4902C293.555 43.5602 293.555 43.6576 293.571 43.7431C293.723 43.6576 293.819 43.5602 293.882 43.4747C293.907 43.5602 293.935 43.7626 293.9 43.9259C293.783 44.0116 293.652 44.0932 293.445 44.21C293.12 44.385 292.522 44.6379 292.183 44.6885C291.901 44.7391 291.415 44.564 291.291 44.1361C291.178 43.7276 290.869 43.5953 290.624 43.8482C290.561 43.7977 290.386 43.7588 290.311 43.8871C290.311 43.8871 290.234 43.6925 290.138 43.5992C290.202 43.389 290.152 43.1362 289.979 43.0507C289.965 42.6383 289.733 42.6383 289.652 42.4983C289.606 42.4126 289.606 42.3036 289.715 42.2881C289.669 42.2104 289.57 42.1948 289.556 42.1948C289.588 42.0198 289.539 41.8018 289.325 41.7317L287.437 37.4601C287.558 37.3201 287.494 37.1177 287.36 37.0477C287.36 37.0477 287.36 37.032 287.36 37.0126C287.37 36.9777 287.374 36.9544 287.377 36.9271C287.427 36.9193 287.491 36.9036 287.544 36.8881C287.917 36.7909 288.499 36.1918 289.003 35.8143C288.824 36.0167 288.094 36.6003 287.766 36.9387C287.462 37.2695 287.59 37.6001 287.639 37.8996L287.71 38.0669C287.988 38.0863 288.403 38.2692 288.711 37.9892C288.806 37.8841 290.17 36.0323 290.35 35.8533C290.28 36.0206 289.42 37.207 289.031 37.888C288.743 38.4016 289.165 38.7399 289.215 39.0395C289.524 38.9346 289.945 39.1368 290.17 38.7283C290.386 38.3353 291.047 36.9309 291.291 36.5379C291.196 36.8453 290.497 38.4404 290.446 38.5805C290.28 39.1213 290.702 39.2262 290.869 39.5841C291.125 39.3819 291.583 39.5415 291.76 39.024C291.87 38.6777 292.151 37.4639 292.296 37.1411C292.278 37.499 292.183 37.9814 292.119 38.5104C292.055 39.0434 292.508 39.024 292.747 39.3313C292.977 39.1213 293.399 39.1717 293.463 38.6932C293.527 38.2653 293.541 37.2266 293.541 37.2266C293.606 37.2889 293.638 37.3044 293.709 37.3744C293.865 37.1721 294.195 37.1721 294.305 36.9309C294.354 36.9465 294.369 36.9815 294.418 37.0165C294.777 37.6702 294.805 38.9346 294.305 39.3819C294.45 39.3819 294.632 39.3625 294.742 39.3119C294.521 39.8059 294.027 39.981 293.46 39.7553ZM296.988 45.7312C296.694 46.1746 296.463 46.4977 296.272 47.0501C295.927 47.015 295.994 46.5521 296.104 46.3187C296.335 45.8557 297.273 45.2527 297.745 44.6497C297.534 45.0348 297.244 45.3849 296.988 45.7312ZM298.007 46.5521C297.816 47.369 297.679 48.575 297.745 49.1159C297.083 48.7385 297.457 47.2835 297.713 46.657C298.067 45.7857 298.316 44.7197 298.397 44.0388C298.603 44.5562 298.145 45.9996 298.007 46.5521ZM299.551 49.1159C299.614 48.575 299.487 47.369 299.289 46.5521C299.149 45.9996 298.695 44.5562 298.898 44.0388C298.976 44.7197 299.223 45.7818 299.582 46.657C299.839 47.2835 300.21 48.7385 299.551 49.1159ZM301.19 46.3148C301.303 46.5521 301.369 47.0111 301.024 47.0462C300.833 46.4938 300.601 46.1746 300.318 45.7273C300.051 45.3849 299.759 45.0309 299.551 44.6458C300.019 45.2527 300.96 45.8518 301.19 46.3148ZM301.109 40.0706C300.246 41.9067 298.666 43.4008 298.649 43.3813C298.631 43.4047 297.052 41.9067 296.19 40.0706C295.327 38.2381 294.774 35.3554 294.745 33.978C294.713 32.6008 294.961 32.0133 294.961 32.0133C294.961 32.0133 296.04 31.9472 296.903 31.6203C297.633 31.3442 298.429 30.64 298.652 30.4339C298.877 30.64 299.671 31.3403 300.407 31.6203C301.264 31.9511 302.343 32.0133 302.343 32.0133C302.343 32.0133 302.589 32.6047 302.557 33.978C302.522 35.3554 301.968 38.2381 301.109 40.0706Z" fill="#0B1F33"/>
<path d="M330.65 35.7837C331.193 35.6553 331.786 35.5659 332.428 35.5192C333.072 35.4686 333.699 35.4453 334.324 35.4453C334.983 35.4453 335.656 35.5076 336.333 35.6359C337.014 35.7643 337.633 35.9977 338.19 36.3401C338.747 36.6825 339.202 37.1531 339.561 37.7563C339.914 38.3591 340.095 39.1374 340.095 40.0866C340.095 40.9814 339.932 41.744 339.608 42.3742C339.286 43.0045 338.853 43.522 338.317 43.9187C337.781 44.3156 337.164 44.6074 336.471 44.7902C335.779 44.9731 335.063 45.0663 334.324 45.0663C334.246 45.0663 334.126 45.0625 333.965 45.0547C333.802 45.0469 333.636 45.0392 333.462 45.0353C333.287 45.0275 333.118 45.0157 332.958 45.0041C332.794 44.9886 332.677 44.9769 332.599 44.9614V50.5402H330.657V35.7837H330.65ZM334.38 37.3165C334.03 37.3165 333.692 37.3243 333.362 37.3359C333.033 37.3516 332.776 37.3865 332.596 37.441V43.0861C332.66 43.1135 332.766 43.1329 332.914 43.1406C333.065 43.1484 333.22 43.1561 333.379 43.1718C333.544 43.1873 333.696 43.1912 333.844 43.1912C333.995 43.1912 334.108 43.1912 334.186 43.1912C334.651 43.1912 335.113 43.1523 335.567 43.0745C336.02 42.9967 336.428 42.8488 336.802 42.6231C337.171 42.3974 337.468 42.0862 337.696 41.6777C337.923 41.2731 338.036 40.748 338.036 40.1022C338.036 39.542 337.926 39.0829 337.707 38.7172C337.486 38.3552 337.203 38.0675 336.851 37.8573C336.503 37.6471 336.11 37.5033 335.677 37.4255C335.24 37.3555 334.807 37.3165 334.38 37.3165Z" fill="#0B1F33"/>
<path d="M340.537 44.9616C340.537 44.0395 340.647 43.2108 340.868 42.4794C341.087 41.7481 341.409 41.1255 341.839 40.616C342.265 40.1062 342.787 39.7132 343.404 39.4449C344.018 39.1763 344.722 39.0402 345.514 39.0402C346.34 39.0402 347.069 39.1882 347.689 39.4877C348.31 39.7873 348.828 40.1997 349.244 40.7327C349.658 41.2657 349.964 41.8881 350.165 42.6078C350.369 43.3236 350.468 44.1095 350.468 44.9616C350.468 45.8681 350.355 46.6851 350.126 47.4087C349.9 48.1323 349.578 48.7508 349.155 49.2605C348.733 49.7701 348.215 50.1631 347.601 50.4316C346.985 50.7 346.29 50.8361 345.514 50.8361C344.658 50.8361 343.92 50.6883 343.298 50.3888C342.677 50.0892 342.162 49.6807 341.754 49.1555C341.347 48.6304 341.041 48.0078 340.843 47.292C340.636 46.5761 340.537 45.7981 340.537 44.9616ZM342.479 44.9616C342.479 45.4867 342.532 46.0003 342.642 46.5061C342.751 47.0118 342.926 47.4591 343.171 47.8599C343.416 48.2607 343.728 48.5757 344.111 48.8171C344.495 49.0581 344.966 49.1789 345.532 49.1789C347.525 49.1789 348.522 47.7744 348.522 44.9655C348.522 44.4129 348.469 43.8799 348.36 43.3665C348.25 42.8569 348.078 42.4056 347.841 42.0164C347.604 41.6275 347.295 41.3122 346.911 41.0672C346.529 40.826 346.066 40.7053 345.532 40.7053C344.534 40.7053 343.777 41.0555 343.259 41.7597C342.737 42.4562 342.479 43.526 342.479 44.9616Z" fill="#0B1F33"/>
<path d="M360.254 49.7701C359.801 50.1241 359.27 50.3927 358.66 50.5677C358.05 50.7467 357.412 50.8361 356.736 50.8361C355.882 50.8361 355.153 50.6922 354.55 50.4082C353.947 50.1241 353.461 49.7274 353.084 49.2177C352.709 48.7081 352.438 48.0895 352.269 47.3659C352.101 46.6423 352.016 45.8407 352.016 44.9616C352.016 43.0747 352.435 41.6158 353.27 40.5848C354.103 39.5577 355.307 39.0402 356.872 39.0402C357.557 39.0402 358.153 39.1063 358.66 39.2426C359.164 39.3788 359.619 39.5461 360.02 39.7444L359.559 41.3396C359.21 41.141 358.834 40.9855 358.43 40.8727C358.025 40.7598 357.585 40.7015 357.109 40.7015C355.012 40.7015 353.965 42.1215 353.965 44.9616C353.965 45.5024 354.021 46.0236 354.14 46.5255C354.255 47.0314 354.44 47.4787 354.7 47.8678C354.959 48.2568 355.296 48.5757 355.71 48.8171C356.129 49.0581 356.64 49.1789 357.244 49.1789C357.783 49.1789 358.259 49.0971 358.664 48.9337C359.069 48.7704 359.407 48.5757 359.679 48.35L360.254 49.7701Z" fill="#0B1F33"/>
<path d="M369.306 49.7701C368.85 50.1241 368.321 50.3927 367.711 50.5677C367.101 50.7467 366.462 50.8361 365.789 50.8361C364.933 50.8361 364.206 50.6922 363.601 50.4082C362.998 50.1241 362.511 49.7274 362.136 49.2177C361.76 48.7081 361.489 48.0895 361.319 47.3659C361.151 46.6423 361.066 45.8407 361.066 44.9616C361.066 43.0747 361.486 41.6158 362.32 40.5848C363.153 39.5577 364.358 39.0402 365.923 39.0402C366.607 39.0402 367.203 39.1063 367.711 39.2426C368.215 39.3788 368.67 39.5461 369.071 39.7444L368.609 41.3396C368.263 41.141 367.886 40.9855 367.481 40.8727C367.076 40.7598 366.636 40.7015 366.16 40.7015C364.062 40.7015 363.015 42.1215 363.015 44.9616C363.015 45.5024 363.072 46.0236 363.189 46.5255C363.307 47.0314 363.491 47.4787 363.751 47.8678C364.006 48.2568 364.347 48.5757 364.765 48.8171C365.184 49.0581 365.695 49.1789 366.298 49.1789C366.839 49.1789 367.315 49.0971 367.718 48.9337C368.123 48.7704 368.461 48.5757 368.73 48.35L369.306 49.7701Z" fill="#0B1F33"/>
<path d="M378.16 44.1516L378.434 41.938H378.221L377.27 44.0233L372.491 50.5399H371.115V39.3586H372.903V45.9567L372.769 47.9177H372.981L373.876 46.023L378.557 39.3586H379.956V50.536H378.168V44.1516H378.16Z" fill="#0B1F33"/>
<path d="M389.642 44.1516L389.916 41.938H389.702L388.75 44.0233L383.973 50.5399H382.596V39.3586H384.382V45.9567L384.246 47.9177H384.46L385.355 46.023L390.036 39.3586H391.433V50.536H389.645V44.1516H389.642Z" fill="#0B1F33"/>
<path d="M341.621 23.1748L341.83 20.9728H341.727L340.937 22.9842L337.149 29.6096H336.627L332.612 22.9648L331.864 20.9728H331.761L332.051 23.1516V33.0254H330.43V18.3506H331.719L336.275 25.8554L336.961 27.4894H337.004L337.649 25.8125L341.998 18.3506H343.349V33.0215H341.621V23.1748Z" fill="#0B1F33"/>
<path d="M353.209 26.8202L353.273 25.5207H353.209L352.357 26.8628L347.675 33.0254H346.717V22.5445H348.381V28.9366L348.317 30.1737H348.399L349.212 28.8742L353.894 22.5445H354.87V33.0254H353.204V26.8202H353.209Z" fill="#0B1F33"/>
<path d="M364.439 28.3918H359.737V33.0254H358.072V22.5445H359.737V26.9252H364.439V22.5445H366.103V33.0254H364.439V28.3918Z" fill="#0B1F33"/>
<path d="M378.654 35.6865H377.527L377.216 33.0254H369.311V22.5445H370.977V31.5586H375.49V22.5445H377.154V31.5586H378.654V35.6865Z" fill="#0B1F33"/>
<path d="M387.202 26.8202L387.265 25.5207H387.202L386.351 26.8628L381.67 33.0254H380.711V22.5445H382.375V28.9366L382.312 30.1737H382.396L383.21 28.8742L387.89 22.5445H388.866V33.0254H387.202V26.8202Z" fill="#0B1F33"/>
<path d="M396.751 33.1072C396.514 33.1927 396.268 33.2395 396.013 33.2551C395.757 33.2707 395.523 33.2745 395.318 33.2745C394.054 33.2745 393.084 32.8271 392.403 31.9323C391.723 31.0375 391.385 29.6564 391.385 27.7811C391.385 25.9915 391.758 24.6455 392.51 23.7352C393.259 22.8285 394.342 22.3733 395.755 22.3733C396.141 22.3733 396.475 22.4006 396.751 22.459V18.3506H398.334V22.4786C398.583 22.4357 398.806 22.4084 399.002 22.3929C399.197 22.3772 399.382 22.3733 399.563 22.3733C400.935 22.3733 401.97 22.7741 402.661 23.5795C403.353 24.3847 403.701 25.7154 403.701 27.5711C403.701 28.4504 403.609 29.244 403.42 29.9482C403.233 30.6524 402.96 31.2515 402.598 31.7417C402.235 32.2318 401.795 32.6093 401.277 32.8738C400.755 33.1384 400.155 33.2707 399.478 33.2707C399.352 33.2707 399.168 33.259 398.926 33.2395C398.686 33.2201 398.487 33.1811 398.334 33.1227V37.2117H396.751V33.1072ZM395.732 31.8935C395.9 31.8935 396.066 31.8855 396.232 31.8739C396.4 31.8584 396.581 31.8312 396.772 31.7884V23.8439C396.606 23.8168 396.45 23.7933 396.303 23.7817C396.158 23.7662 395.981 23.7623 395.774 23.7623C394.917 23.7623 394.246 24.0853 393.765 24.7387C393.288 25.3885 393.049 26.4039 393.049 27.7888C393.049 28.3765 393.102 28.9211 393.205 29.4229C393.309 29.9247 393.472 30.3645 393.695 30.734C393.916 31.1036 394.199 31.3915 394.536 31.5937C394.874 31.7923 395.274 31.8935 395.732 31.8935ZM399.246 23.7584C399.08 23.7584 398.931 23.7623 398.799 23.7701C398.668 23.7778 398.505 23.809 398.309 23.8635V31.8273C398.449 31.8545 398.604 31.8739 398.778 31.8778C398.953 31.8855 399.144 31.8894 399.349 31.8894C400.237 31.8894 400.907 31.5199 401.358 30.7769C401.809 30.0377 402.035 28.9679 402.035 27.5711C402.035 26.3845 401.83 25.4507 401.422 24.7738C401.015 24.1008 400.29 23.7584 399.246 23.7584Z" fill="#0B1F33"/>
<path d="M406.218 22.5442H407.36L407.673 23.8009H407.755C408.075 23.3106 408.485 22.9372 408.993 22.6805C409.5 22.4236 410.078 22.2913 410.729 22.2913C412.116 22.2913 413.149 22.7037 413.828 23.5285C414.505 24.3533 414.847 25.7032 414.847 27.5746C414.847 28.4539 414.732 29.2475 414.502 29.9517C414.272 30.6559 413.952 31.255 413.533 31.7452C413.117 32.2354 412.613 32.6127 412.024 32.8773C411.435 33.1418 410.779 33.274 410.057 33.274C409.543 33.274 409.139 33.243 408.84 33.1808C408.542 33.1185 408.22 33.0096 407.871 32.854V37.2152H406.207V22.5442H406.218ZM410.42 23.7581C409.714 23.7581 409.154 23.9448 408.745 24.3144C408.336 24.6839 408.048 25.2481 407.882 26.0029V31.2006C408.131 31.395 408.414 31.5468 408.734 31.6517C409.053 31.7568 409.475 31.8074 410.004 31.8074C410.963 31.8074 411.723 31.4495 412.284 30.7298C412.845 30.0101 413.124 28.9518 413.124 27.5551C413.124 26.9833 413.075 26.4619 412.979 25.995C412.883 25.5281 412.728 25.1275 412.51 24.8006C412.295 24.4739 412.017 24.217 411.679 24.0342C411.34 23.8514 410.92 23.7581 410.42 23.7581Z" fill="#0B1F33"/>
<path d="M419.135 26.5477C419.469 26.4933 419.789 26.4545 420.094 26.431C420.399 26.4116 420.69 26.4 420.967 26.4C421.673 26.4 422.267 26.4816 422.745 26.6412C423.224 26.8006 423.608 27.0224 423.9 27.3026C424.19 27.5825 424.395 27.9133 424.513 28.2984C424.63 28.6836 424.69 29.0922 424.69 29.524C424.69 30.7961 424.338 31.7182 423.64 32.2902C422.941 32.862 421.804 33.1499 420.239 33.1499C419.352 33.1499 418.429 33.107 417.471 33.0254V22.5445H419.135V26.5477ZM419.135 31.5586C419.646 31.6443 420.14 31.6831 420.612 31.6831C421.485 31.6831 422.096 31.5121 422.444 31.1697C422.791 30.8273 422.966 30.341 422.966 29.7146C422.966 29.1544 422.794 28.6953 422.455 28.3296C422.113 27.9678 421.521 27.785 420.675 27.785C420.438 27.785 420.182 27.7927 419.906 27.8043C419.628 27.82 419.374 27.8588 419.135 27.9288V31.5586ZM426.333 22.5445H427.999V33.0254H426.333V22.5445Z" fill="#0B1F33"/>
<defs>
<linearGradient id="paint0_linear_268_24758" x1="60.1333" y1="36.6122" x2="-6.76461" y2="36.4488" gradientUnits="userSpaceOnUse">
<stop stop-color="#0D4CD3"/>
<stop offset="1" stop-color="#0D4CD3" stop-opacity="0"/>
</linearGradient>
</defs>
</svg>
