<svg width="28" height="28" viewBox="0 0 28 28" fill="none" xmlns="http://www.w3.org/2000/svg">
<path d="M21.8162 7.38815C21.9341 7.26525 22.0748 7.16763 22.23 7.10098C22.3853 7.03433 22.552 7 22.7204 7C22.8889 7 23.0556 7.03433 23.2108 7.10098C23.3661 7.16763 23.5068 7.26525 23.6247 7.38815C24.1187 7.89818 24.1256 8.72236 23.642 9.24122L13.4284 21.5774C13.3124 21.7075 13.1717 21.812 13.0148 21.8847C12.858 21.9573 12.6882 21.9965 12.516 21.9998C12.3438 22.0031 12.1728 21.9705 12.0134 21.9039C11.8539 21.8373 11.7095 21.7382 11.5888 21.6127L5.37395 15.1781C5.13426 14.9284 5 14.5925 5 14.2427C5 13.893 5.13426 13.5571 5.37395 13.3074C5.49183 13.1845 5.63252 13.0869 5.78779 13.0202C5.94306 12.9536 6.10978 12.9192 6.27819 12.9192C6.44661 12.9192 6.61333 12.9536 6.7686 13.0202C6.92386 13.0869 7.06456 13.1845 7.18244 13.3074L12.4542 18.766L21.7816 7.42697C21.7924 7.41333 21.8039 7.40037 21.8162 7.38815Z" fill="white"/>
</svg>
