<svg width="25" height="25" viewBox="0 0 25 25" fill="none" xmlns="http://www.w3.org/2000/svg">
<path d="M12.4981 5.8746C8.84044 5.8746 5.87533 8.84043 5.87533 12.497C5.87533 16.1556 8.84044 19.1215 12.4981 19.1215C16.1558 19.1215 19.1209 16.1556 19.1209 12.497C19.1209 8.84043 16.1558 5.8746 12.4981 5.8746ZM11.0736 4.66819H13.9246C14.0564 4.66819 14.1784 4.60324 14.2552 4.495C14.3299 4.38873 14.3476 4.249 14.3024 4.12501L12.8759 0.263717C12.8169 0.104306 12.6673 0 12.4981 0C12.3289 0 12.1794 0.106274 12.1204 0.263717L10.6939 4.12698C10.6486 4.25096 10.6663 4.38873 10.7411 4.49697C10.8178 4.60521 10.9418 4.66819 11.0736 4.66819ZM19.0422 7.97056C19.117 8.04731 19.2213 8.08864 19.3256 8.08864C19.3492 8.08864 19.3728 8.08667 19.3964 8.08274C19.5263 8.05912 19.6345 7.97449 19.6915 7.85444L21.4151 4.1132C21.4859 3.95969 21.4525 3.7806 21.3344 3.66055C21.2144 3.5405 21.0334 3.50901 20.8799 3.5779L17.1416 5.30387C17.0215 5.35897 16.9369 5.46918 16.9133 5.59907C16.8897 5.72896 16.933 5.86082 17.0235 5.95529L19.0422 7.97056ZM24.7324 12.1212L20.8681 10.6963C20.7442 10.651 20.6064 10.6687 20.4982 10.7435C20.39 10.8183 20.327 10.9403 20.327 11.0722L20.329 13.9239C20.329 14.0557 20.3939 14.1797 20.5022 14.2545C20.571 14.2998 20.6517 14.3254 20.7324 14.3254C20.7796 14.3254 20.8268 14.3175 20.8721 14.2998L24.7363 12.8749C24.8938 12.8178 25 12.6663 25 12.4951C24.9961 12.3298 24.8918 12.1802 24.7324 12.1212ZM19.6915 17.1436C19.6643 17.0846 19.6233 17.033 19.5719 16.9933C19.5205 16.9535 19.4603 16.9268 19.3964 16.9153C19.2665 16.8936 19.1327 16.935 19.0422 17.0275L17.0255 19.0447C16.933 19.1372 16.8897 19.271 16.9133 19.4009C16.9369 19.5289 17.0215 19.641 17.1416 19.6961L20.8819 21.4201C20.935 21.4457 20.9921 21.4556 21.0511 21.4556C21.1554 21.4556 21.2577 21.4142 21.3344 21.3375C21.4545 21.2174 21.4859 21.0383 21.4151 20.8848L19.6915 17.1436ZM13.9226 20.3279L11.0716 20.3298C10.9398 20.3298 10.8178 20.3948 10.7431 20.503C10.6683 20.6113 10.6506 20.749 10.6939 20.8711L12.1204 24.7363C12.1794 24.8937 12.3289 25 12.4981 25C12.6673 25 12.8169 24.8937 12.8759 24.7363L14.3024 20.8711C14.3476 20.7471 14.3299 20.6093 14.2552 20.5011C14.1784 20.3928 14.0564 20.3279 13.9226 20.3279ZM5.95403 17.0275C5.86155 16.935 5.72973 16.8936 5.59987 16.9153C5.47001 16.9389 5.35983 17.0235 5.30473 17.1436L3.58115 20.8848C3.51032 21.0383 3.54377 21.2194 3.66379 21.3375C3.72185 21.3957 3.79641 21.4347 3.87735 21.4491C3.9583 21.4636 4.04173 21.4528 4.11633 21.4182L7.85666 19.6922C7.91566 19.665 7.96721 19.624 8.00695 19.5726C8.04669 19.5212 8.07343 19.4609 8.0849 19.397C8.10851 19.2671 8.06522 19.1352 7.97274 19.0427L5.95403 17.0275ZM4.26783 14.3273C4.3485 14.3273 4.42917 14.3017 4.49804 14.2545C4.60625 14.1797 4.67118 14.0557 4.67118 13.9239L4.66921 11.0722C4.66922 11.0074 4.65359 10.9435 4.62364 10.8861C4.59369 10.8286 4.55031 10.7792 4.49719 10.7421C4.44406 10.705 4.38277 10.6813 4.31852 10.673C4.25426 10.6647 4.18895 10.672 4.12813 10.6943L0.263848 12.1212C0.186476 12.1495 0.11968 12.201 0.0724924 12.2686C0.0253045 12.3361 0 12.4166 0 12.499C0 12.5814 0.0253045 12.6619 0.0724924 12.7295C0.11968 12.797 0.186476 12.8485 0.263848 12.8769L4.1301 14.3017C4.17536 14.3195 4.22061 14.3273 4.26783 14.3273ZM5.3067 7.85444C5.33395 7.91342 5.37503 7.96493 5.42645 8.00462C5.47788 8.0443 5.53812 8.07098 5.60206 8.08238C5.666 8.09378 5.73175 8.08956 5.79371 8.0701C5.85568 8.05063 5.91202 8.01648 5.95796 7.97056L7.97274 5.95332C8.06522 5.85885 8.10654 5.72699 8.08293 5.5971C8.05932 5.46918 7.97471 5.35897 7.85469 5.30387L4.11239 3.57986C3.95892 3.50901 3.77988 3.54247 3.65986 3.66252C3.53983 3.78257 3.50835 3.96166 3.57919 4.11517L5.3067 7.85444Z" fill="#FCC21B"/>
</svg>
