<?xml version="1.0" encoding="utf-8"?>
<!-- Generator: Adobe Illustrator 24.1.2, SVG Export Plug-In . SVG Version: 6.00 Build 0)  -->
<svg version="1.1" id="Слой_6" xmlns="http://www.w3.org/2000/svg" xmlns:xlink="http://www.w3.org/1999/xlink" x="0px" y="0px"
	 viewBox="0 0 32.8 28.7" style="enable-background:new 0 0 32.8 28.7;" xml:space="preserve">
<style type="text/css">
	.st0{fill:#FFFFFF;}
</style>
<path class="st0" d="M26.1,7.9C25.4,3.4,21.4,0,16.4,0c-5.5,0-9.8,4.1-9.8,9.4v0.5c0,0,0,0.1,0,0.1v9.3C4.1,19,2.1,17,2.1,14.6
	c0-1.7,0.9-3.2,2.4-4.1C5.1,10.2,5.3,9.6,5,9.1C4.7,8.6,4,8.4,3.5,8.7C1.4,9.9,0,12.1,0,14.6c0,3.7,3.1,6.7,6.9,6.7
	c0.2,0,0.5,0,0.7,0c0,0,0,0,0,0c0,0,0.1,0,0.1,0c0,0,0,0,0,0c0,0,0,0,0,0c0.5-0.1,1-0.5,1-1v-9.1c0,0,0-0.1,0-0.1V9.4
	c0-4.2,3.3-7.3,7.7-7.3c4.4,0,7.7,3.1,7.7,7.3v0.4c0,0,0,0.1,0,0.1v10c0,0,0,0.1,0,0.1v2.3c0,1.6-1.1,2.7-2.8,2.7h-1.4c0,0,0,0,0,0
	c-0.4-1-1.4-1.7-2.6-1.7h-1.8c-1.5,0-2.8,1.2-2.8,2.7c0,1.5,1.2,2.7,2.8,2.7h1.8c1.1,0,2.1-0.7,2.5-1.6c0,0,0.1,0,0.1,0h1.4
	c2.8,0,4.9-2,4.9-4.8v-1c3.6-0.2,6.6-3.1,6.6-6.7C32.8,11,29.8,8,26.1,7.9z M17.3,26.6h-1.8c-0.3,0-0.6-0.3-0.6-0.6
	c0-0.3,0.3-0.6,0.6-0.6h1.8c0.3,0,0.6,0.3,0.6,0.6C18,26.3,17.7,26.6,17.3,26.6z M26.2,19.2v-8.1c0,0,0-0.1,0-0.1v-1
	c2.5,0.2,4.4,2.2,4.4,4.6C30.7,17.1,28.7,19.1,26.2,19.2z"/>
</svg>
