<svg width="32" height="33" viewBox="0 0 32 33" fill="none" xmlns="http://www.w3.org/2000/svg">
<path d="M28.9803 4.4303C28.7387 4.22102 28.4447 4.08138 28.1299 4.02633C27.815 3.97129 27.4911 4.0029 27.1928 4.1178L4.11781 13.1803C3.76376 13.3175 3.46392 13.5661 3.26354 13.8886C3.06316 14.2111 2.97311 14.59 3.00698 14.9682C3.04084 15.3464 3.19679 15.7033 3.45129 15.9851C3.70578 16.2669 4.04502 16.4582 4.41781 16.5303L10.4803 17.7428V25.2678C10.4807 25.6126 10.583 25.9496 10.7742 26.2364C10.9655 26.5233 11.2372 26.7473 11.5553 26.8803C11.7698 26.9677 11.9987 27.0143 12.2303 27.0178C12.4603 27.0192 12.6883 26.9746 12.9008 26.8866C13.1134 26.7985 13.3061 26.6689 13.4678 26.5053L16.8803 23.0928L21.9803 27.5803C22.2962 27.8636 22.706 28.0195 23.1303 28.0178C23.3131 28.0193 23.4949 27.9897 23.6678 27.9303C23.9565 27.8385 24.2159 27.6724 24.4199 27.4486C24.624 27.2248 24.7655 26.9512 24.8303 26.6553L29.5428 6.1428C29.6132 5.83318 29.5981 5.51023 29.499 5.20856C29.3999 4.90688 29.2206 4.63786 28.9803 4.4303ZM4.51781 14.8303C4.50907 14.7776 4.51936 14.7235 4.54684 14.6777C4.57432 14.6319 4.6172 14.5974 4.66781 14.5803L23.9803 6.9928L11.0553 16.3303L4.71781 15.0553C4.66257 15.0491 4.61157 15.0227 4.57464 14.9812C4.53771 14.9396 4.51746 14.8859 4.51781 14.8303ZM12.4053 25.4428C12.3706 25.4791 12.3254 25.5036 12.2759 25.5125C12.2265 25.5215 12.1755 25.5146 12.1303 25.4928C12.0864 25.4736 12.0489 25.4422 12.0223 25.4023C11.9957 25.3624 11.9811 25.3157 11.9803 25.2678V18.7803L15.7428 22.1053L12.4053 25.4428ZM23.3803 26.3178C23.3718 26.3612 23.3519 26.4015 23.3227 26.4346C23.2935 26.4678 23.256 26.4927 23.2141 26.5066C23.1722 26.5206 23.1273 26.5232 23.084 26.5142C23.0408 26.5052 23.0007 26.4849 22.9678 26.4553L12.4303 17.1803L28.0553 5.9053L23.3803 26.3178Z" fill="white"/>
</svg>
