<?xml version="1.0" encoding="utf-8"?>
<!-- Generator: Adobe Illustrator 24.1.2, SVG Export Plug-In . SVG Version: 6.00 Build 0)  -->
<svg version="1.1" id="Слой_6" xmlns="http://www.w3.org/2000/svg" xmlns:xlink="http://www.w3.org/1999/xlink" x="0px" y="0px"
	 viewBox="0 0 28.7 23.7" style="enable-background:new 0 0 28.7 23.7;" xml:space="preserve">
<style type="text/css">
	.st0{fill:#FFFFFF;}
</style>
<g>
	<g>
		<path class="st0" d="M26.3,0.2c0,0-5.7,2.3-7.4,3.1c-4.4,1.8-17.1,7-17.1,7c-3,1.2-1.2,2.3-1.2,2.3s2.6,0.9,4.8,1.5
			c2.2,0.7,3.4-0.1,3.4-0.1s5.1-3.4,10.3-7c3.7-2.5,2.8-0.4,1.9,0.4c-1.9,1.9-5.1,4.9-7.7,7.3c-1.2,1-0.6,1.9-0.1,2.3
			c1.9,1.6,7.1,4.9,7.4,5.1c0.4,0.3,2.4,1.6,3.7,1.3c1.2-0.3,1.4-2,1.4-2s1-6,1.8-11.5c0.6-3.9,1.2-7.5,1.2-8.5
			C28.9-0.8,26.3,0.2,26.3,0.2z"/>
	</g>
</g>
</svg>
