<?xml version="1.0" encoding="utf-8"?>
<!-- Generator: Adobe Illustrator 24.1.2, SVG Export Plug-In . SVG Version: 6.00 Build 0)  -->
<svg version="1.1" id="Слой_6" xmlns="http://www.w3.org/2000/svg" xmlns:xlink="http://www.w3.org/1999/xlink" x="0px" y="0px"
	 viewBox="0 0 26.2 23.7" style="enable-background:new 0 0 26.2 23.7;" xml:space="preserve">
<style type="text/css">
	.st0{fill:#FFFFFF;}
</style>
<g>
	<g>
		<path class="st0" d="M15.9,10c2.9-3.3,5.8-6.7,8.8-10c-0.1,0-2.6,0-3.9,0c-0.1,0-0.2,0.1-0.2,0.1c-1.9,2.1-6.2,7.1-6.5,7.4
			c0,0-3.8-5-5.6-7.4C8.3,0,8.2,0,8.1,0C5.5,0,0.1,0,0,0C3.3,4.3,6.6,8.6,9.9,13c-3.1,3.6-6.3,7.1-9.4,10.7c0,0,2.6,0,3.9,0
			c0.1,0,0.1,0,0.2-0.1c2.3-2.6,7-8,7.2-8.2c0.1,0.1,4.2,5.5,6.2,8.1c0.1,0.1,0.1,0.1,0.3,0.1c2.6,0,7.9,0,7.9,0
			C22.8,19.1,19.3,14.6,15.9,10z M19.1,21.2C14.4,14.9,4.7,2.3,4.7,2.3c0.8,0,1.6,0,2.3,0c0.1,0,0.1,0.1,0.2,0.1
			c1.6,2.2,14.2,18.8,14.3,18.9c-0.1,0-1.4,0-2.1,0C19.3,21.3,19.2,21.3,19.1,21.2z"/>
	</g>
</g>
</svg>
