<?xml version="1.0" encoding="utf-8"?>
<!-- Generator: Adobe Illustrator 24.1.2, SVG Export Plug-In . SVG Version: 6.00 Build 0)  -->
<svg version="1.1" id="Слой_6" xmlns="http://www.w3.org/2000/svg" xmlns:xlink="http://www.w3.org/1999/xlink" x="0px" y="0px"
	 viewBox="0 0 31.9 17.8" style="enable-background:new 0 0 31.9 17.8;" xml:space="preserve">
<style type="text/css">
	.st0{fill:#FFFFFF;}
</style>
<g>
	<g>
		<path class="st0" d="M31.7,15.9c-0.1-0.1-0.6-1.3-3.2-3.6c-2.7-2.4-2.3-2,0.9-6.2c2-2.6,2.7-4.1,2.5-4.8c-0.2-0.6-1.7-0.5-1.7-0.5
			l-4.8,0c0,0-0.3,0-0.6,0.1c-0.3,0.2-0.4,0.5-0.4,0.5s-0.8,2-1.8,3.7c-2.1,3.6-3,3.7-3.3,3.5c-0.8-0.5-0.6-2.1-0.6-3.2
			c0-3.4,0.5-4.8-1-5.2C17.1,0.1,16.7,0,15.4,0c-1.7,0-3.2,0-4,0.4c-0.6,0.3-1,0.9-0.7,0.9c0.3,0,1,0.2,1.4,0.7
			c0.5,0.7,0.5,2.1,0.5,2.1s0.3,4-0.7,4.6C11.3,9,10.4,8.3,8.5,5.1c-1-1.6-1.7-3.5-1.7-3.5S6.6,1.3,6.4,1.1C6.1,0.9,5.6,0.8,5.6,0.8
			H1.1c0,0-0.7,0-0.9,0.3c-0.2,0.3,0,0.8,0,0.8s3.6,8.2,7.6,12.3c3.7,3.8,8,3.5,8,3.5h1.9c0,0,0.6-0.1,0.9-0.4
			c0.3-0.3,0.3-0.8,0.3-0.8s0-2.5,1.1-2.9c1.2-0.4,2.7,2.4,4.3,3.5c1.2,0.8,2.1,0.6,2.1,0.6l4.3-0.1C30.5,17.7,32.7,17.6,31.7,15.9z
			"/>
	</g>
</g>
</svg>
