<svg width="660" height="319" viewBox="0 0 660 319" fill="none" xmlns="http://www.w3.org/2000/svg">
<path d="M215.994 158.6C215.994 168.213 216.389 177.481 217.183 186.4H210.6V17.8V12.8H205.6H125.2H122.534L121.049 15.0131L5.8487 186.613L5 187.877V189.4V245.8V250.8H10H138.2V301V306H143.2H206H211V301V250.8H232.889C240.468 266.52 251.044 280.021 264.605 291.251L264.619 291.263L264.634 291.275C282.987 306.24 305.618 313.6 332.194 313.6C352.349 313.6 370.143 309.455 385.407 300.979C400.817 292.569 412.944 281.024 421.681 266.373C424.693 261.384 427.428 256.192 429.887 250.8H543.388V301V306H548.388H611.188H616.188V301V250.8H649.988H654.988V245.8V191.4V186.4H649.988H615.787V17.8V12.8H610.787H530.388H527.722L526.236 15.0131L446.525 133.749C445.478 121.985 443.658 110.814 441.057 100.24C436.949 82.453 430.498 66.3617 421.67 52.0092C412.93 37.361 400.797 25.9453 385.375 17.8028C370.118 9.33878 352.334 5.19998 332.194 5.19998C312.043 5.19998 294.137 9.34273 278.63 17.7937C263.202 25.9354 250.941 37.3458 241.935 51.9795C233.106 66.3279 226.517 82.4166 222.139 100.205L222.13 100.24L222.122 100.276C218.024 118.034 215.994 137.484 215.994 158.6ZM367.224 129.552L367.225 129.56L367.226 129.568C368.269 138.694 368.794 148.37 368.794 158.6C368.794 169.1 368.269 179.047 367.225 188.445C366.193 197.465 364.254 206.918 361.391 216.81L361.379 216.852L361.367 216.895C358.88 226.096 354.981 233.291 349.819 238.704C344.894 243.61 339.11 246 332.194 246C324.964 246 319.06 243.577 314.169 238.704C308.988 233.273 304.956 226.057 302.209 216.85C299.605 206.945 297.656 197.322 296.356 187.98C295.316 178.597 294.794 168.805 294.794 158.6C294.794 148.392 295.316 138.736 296.355 129.628C297.655 120.286 299.603 110.799 302.204 101.166C304.956 91.9364 308.987 84.878 314.129 79.7355C319.376 74.4885 325.324 72 332.194 72C339.055 72 344.829 74.4792 349.781 79.6561L349.819 79.6962L349.858 79.7355C354.979 84.856 358.876 91.8875 361.367 101.105L361.383 101.165L361.401 101.225C364.255 110.825 366.193 120.266 367.224 129.552ZM84.3457 186.4L138.6 101.789V186.4H84.3457ZM489.533 186.4L543.788 101.789V186.4H489.533Z" stroke="#017BFF" stroke-width="10"/>
</svg>
