<svg width="90" height="89" viewBox="0 0 90 89" fill="none" xmlns="http://www.w3.org/2000/svg">
<g filter="url(#filter0_bd_599_25398)">
<path fill-rule="evenodd" clip-rule="evenodd" d="M73.7723 19.7872L48.9002 5.42728C46.4518 4.01371 45.6037 3.55085 44.7477 3.36891C43.9252 3.19409 43.0752 3.19409 42.2528 3.36891C41.3968 3.55085 40.5486 4.01371 38.1002 5.42728L13.2281 19.7872C10.7797 21.2008 9.95481 21.7039 9.36926 22.3542C8.80663 22.9791 8.38162 23.7152 8.12179 24.5149C7.85136 25.3472 7.82812 26.3131 7.82812 29.1403V57.8601C7.82812 60.6873 7.85136 61.6532 8.12179 62.4855C8.38162 63.2852 8.80663 64.0213 9.36926 64.6462C9.95481 65.2965 10.7797 65.7996 13.2281 67.2132L38.1002 81.5731C40.5486 82.9867 41.3968 83.4495 42.2528 83.6315C43.0752 83.8063 43.9252 83.8063 44.7477 83.6315C45.6037 83.4495 46.4518 82.9867 48.9002 81.5731L73.7723 67.2132C76.2207 65.7996 77.0456 65.2965 77.6312 64.6462C78.1938 64.0213 78.6188 63.2852 78.8787 62.4855C79.1491 61.6532 79.1723 60.6873 79.1723 57.8601V29.1403C79.1723 26.3131 79.1491 25.3472 78.8787 24.5149C78.6188 23.7152 78.1938 22.9791 77.6312 22.3542C77.0456 21.7039 76.2207 21.2008 73.7723 19.7872ZM41.8369 1.41261C40.5975 1.67605 39.4318 2.34911 37.1002 3.69523L12.2281 18.0551C9.89658 19.4013 8.73081 20.0743 7.88297 21.0159C7.1328 21.8491 6.56612 22.8306 6.21967 23.8969C5.82812 25.1019 5.82812 26.448 5.82812 29.1403V57.8601C5.82812 60.5523 5.82812 61.8985 6.21967 63.1035C6.56612 64.1698 7.1328 65.1513 7.88297 65.9844C8.73081 66.9261 9.89658 67.5991 12.2281 68.9452L37.1002 83.3051C39.4318 84.6513 40.5975 85.3243 41.8369 85.5878C42.9335 85.8209 44.0669 85.8209 45.1635 85.5878C46.4029 85.3243 47.5687 84.6513 49.9002 83.3052L74.7723 68.9452C77.1039 67.5991 78.2697 66.9261 79.1175 65.9844C79.8677 65.1513 80.4343 64.1698 80.7808 63.1035C81.1723 61.8985 81.1723 60.5523 81.1723 57.8601V29.1403C81.1723 26.448 81.1723 25.1019 80.7808 23.8969C80.4343 22.8306 79.8677 21.8491 79.1175 21.0159C78.2697 20.0743 77.1039 19.4013 74.7723 18.0551L49.9002 3.69523C47.5687 2.34911 46.4029 1.67605 45.1635 1.41261C44.0669 1.17952 42.9335 1.17952 41.8369 1.41261Z" fill="white"/>
</g>
<path fill-rule="evenodd" clip-rule="evenodd" d="M42.8778 54.1652L45.7113 63H26.0825L28.7615 54.1652H42.8778ZM40.4564 45.4576H31.286L35.9227 30.0127L40.4564 45.4576Z" fill="white"/>
<path fill-rule="evenodd" clip-rule="evenodd" d="M48.2328 46.5L38.271 18H42.0002H58.3281V23.5953H47.6068V28.9894H51.2133C53.8144 28.9894 55.9237 29.7006 57.5412 31.1229C59.1805 32.5184 60.0002 34.7189 60.0002 37.7246C60.0002 40.6497 59.1696 42.8503 57.5084 44.3263C55.869 45.7754 53.7816 46.5 51.2461 46.5H48.2328ZM51.0002 63H54.0002L51.0002 54.4172V48H55.0562V60.8347H55.1522L61.6802 48H66.0002V67.5H61.9442V54.9682H61.8722L55.3922 67.5H51.0002V63ZM50.6231 41.0254H47.6068V34.3432H50.6231C53.1149 34.3432 54.3608 35.4569 54.3608 37.6843C54.3608 39.9117 53.1149 41.0254 50.6231 41.0254Z" fill="white"/>
<defs>
<filter id="filter0_bd_599_25398" x="-52.1719" y="-54.7622" width="213.344" height="222.525" filterUnits="userSpaceOnUse" color-interpolation-filters="sRGB">
<feFlood flood-opacity="0" result="BackgroundImageFix"/>
<feGaussianBlur in="BackgroundImageFix" stdDeviation="11"/>
<feComposite in2="SourceAlpha" operator="in" result="effect1_backgroundBlur_599_25398"/>
<feColorMatrix in="SourceAlpha" type="matrix" values="0 0 0 0 0 0 0 0 0 0 0 0 0 0 0 0 0 0 127 0" result="hardAlpha"/>
<feOffset dx="11" dy="13"/>
<feGaussianBlur stdDeviation="34.5"/>
<feComposite in2="hardAlpha" operator="out"/>
<feColorMatrix type="matrix" values="0 0 0 0 0 0 0 0 0 0 0 0 0 0 0 0 0 0 0.06 0"/>
<feBlend mode="normal" in2="effect1_backgroundBlur_599_25398" result="effect2_dropShadow_599_25398"/>
<feBlend mode="normal" in="SourceGraphic" in2="effect2_dropShadow_599_25398" result="shape"/>
</filter>
</defs>
</svg>
