<?xml version="1.0" encoding="utf-8"?>
<!-- Generator: Adobe Illustrator 24.1.2, SVG Export Plug-In . SVG Version: 6.00 Build 0)  -->
<svg version="1.1" xmlns="http://www.w3.org/2000/svg" xmlns:xlink="http://www.w3.org/1999/xlink" x="0px" y="0px"
	 viewBox="0 0 164.9 66.7" style="enable-background:new 0 0 164.9 66.7;" xml:space="preserve">
<style type="text/css">
	.st0{fill:#FFFFFF;}
	.st1{fill-rule:evenodd;clip-rule:evenodd;fill:url(#SVGID_1_);}
	.st2{fill-rule:evenodd;clip-rule:evenodd;fill:url(#SVGID_2_);}
	.st3{fill-rule:evenodd;clip-rule:evenodd;fill:url(#SVGID_3_);}
	.st4{fill-rule:evenodd;clip-rule:evenodd;fill:#A162F7;}
	.st5{fill:#A162F7;}
</style>
<g id="Слой_1">
	<g>
		<g>
			<path class="st0" d="M66.5,65.6L66.5,65.6l-1.9-5h-1.1v6h0.6v-3.8c0-0.6,0-1.1-0.1-1.5h0l2,5.3h0.6l2.1-5.3h0
				c0,0.5-0.1,1-0.1,1.4v3.9h0.7v-6h-1L66.5,65.6z M72.8,66.6h3.4V66h-2.7v-2.2H76v-0.6h-2.5v-1.9h2.7v-0.6h-3.4V66.6z M81,60.6
				h-1.8v6h1.7c1,0,1.8-0.3,2.3-0.8c0.5-0.5,0.8-1.3,0.8-2.3c0-0.9-0.3-1.7-0.8-2.2C82.7,60.9,81.9,60.6,81,60.6z M82.6,65.4
				c-0.4,0.4-1,0.6-1.9,0.6h-0.9v-4.8h1c0.8,0,1.4,0.2,1.8,0.6c0.4,0.4,0.6,1,0.6,1.8C83.2,64.4,83,65,82.6,65.4z M87,66.6h0.7v-6
				H87V66.6z M92.6,60.6l-2.4,6h0.7l0.7-1.9H94l0.7,1.9h0.7l-2.4-6H92.6z M91.9,64.1l0.7-1.9c0.1-0.3,0.2-0.6,0.3-0.9
				c0.1,0.3,0.2,0.6,0.3,0.9l0.7,1.9H91.9z M104.9,65.6L104.9,65.6l-1.9-5h-1.1v6h0.6v-3.8c0-0.6,0-1.1-0.1-1.5h0l2,5.3h0.6l2.1-5.3
				h0c0,0.5-0.1,1-0.1,1.4v3.9h0.7v-6h-1L104.9,65.6z M112.7,60.6l-2.4,6h0.7l0.7-1.9h2.4l0.7,1.9h0.7l-2.4-6H112.7z M112.1,64.1
				l0.7-1.9c0.1-0.3,0.2-0.6,0.3-0.9c0.1,0.3,0.2,0.6,0.3,0.9l0.7,1.9H112.1z M122,62.3c0-0.6-0.2-1-0.5-1.3
				c-0.4-0.3-0.9-0.4-1.6-0.4h-1.6v6h0.7v-2.5h1.3l1.5,2.5h0.8l-1.6-2.7C121.6,63.7,122,63.1,122,62.3z M119.9,63.5h-1v-2.3h0.9
				c0.5,0,0.9,0.1,1.1,0.3c0.2,0.2,0.4,0.5,0.4,0.9c0,0.4-0.1,0.7-0.3,0.9C120.7,63.4,120.4,63.5,119.9,63.5z M129.4,60.6h-0.8
				l-2.7,3v-3h-0.7v6h0.7v-2.4l0.6-0.6l2.2,2.9h0.8l-2.5-3.4L129.4,60.6z M132,66.6h3.4V66h-2.7v-2.2h2.5v-0.6h-2.5v-1.9h2.7v-0.6
				H132V66.6z M137.6,61.2h1.9v5.4h0.7v-5.4h1.9v-0.6h-4.5V61.2z M149.3,60.6h-0.7v6h3.4V66h-2.7V60.6z M155.3,60.6h-0.7v6h3.4V66
				h-2.7V60.6z M161.7,65.5c-0.4-0.4-0.6-1-0.6-1.8c0-0.8,0.2-1.4,0.6-1.8s0.9-0.7,1.6-0.7c0.5,0,0.9,0.1,1.4,0.3l0.3-0.6
				c-0.5-0.2-1-0.3-1.7-0.3c-0.6,0-1.1,0.1-1.5,0.4c-0.4,0.3-0.8,0.6-1,1.1c-0.2,0.5-0.3,1-0.3,1.6c0,1,0.2,1.8,0.7,2.3
				c0.5,0.5,1.2,0.8,2.1,0.8c0.6,0,1.1-0.1,1.5-0.2v-0.6c-0.5,0.2-1,0.2-1.4,0.2C162.6,66.1,162,65.9,161.7,65.5z"/>
		</g>
	</g>
</g>
<g id="Слой_2">
	<linearGradient id="SVGID_1_" gradientUnits="userSpaceOnUse" x1="43.4036" y1="23.5977" x2="5.6976" y2="2.6969">
		<stop  offset="0" style="stop-color:#063C94"/>
		<stop  offset="1" style="stop-color:#A162F7"/>
	</linearGradient>
	<path class="st1" d="M42,18.9c0.4-1,0.2-6.4-1-10.2C33.3,1,22.2-1.3,11.5,0.7C27.7,2.8,36.7,8.3,42,18.9z M37,34.9
		c0.8-0.7,3.1-5.6,3.8-9.6C35.9,9.8,20,2.8,4.5,4.9C15.8,7.1,36.9,13.3,37,34.9z"/>
</g>
<g id="Слой_3">
	<linearGradient id="SVGID_2_" gradientUnits="userSpaceOnUse" x1="33.5222" y1="56.4246" x2="46.7184" y2="15.8108">
		<stop  offset="0" style="stop-color:#063C94"/>
		<stop  offset="1" style="stop-color:#A162F7"/>
	</linearGradient>
	<path class="st2" d="M50.5,21.2c1,15.9-3.5,25.8-12.8,32.9c1.1,0.2,6.2-1,9.7-2.9C53.3,42.4,54.5,31.1,50.5,21.2z M21.4,52.3
		c0.9,0.7,6,2,9.9,1.8c14-7.6,18.8-24.4,13.8-38.9C45.1,26.6,42.1,48.1,21.4,52.3z"/>
</g>
<g id="Слой_4">
	<linearGradient id="SVGID_3_" gradientUnits="userSpaceOnUse" x1="-2.0846" y1="48.6524" x2="39.227" y2="54.4584">
		<stop  offset="0" style="stop-color:#063C94"/>
		<stop  offset="1" style="stop-color:#A162F7"/>
	</linearGradient>
	<path class="st3" d="M0,53.2l0,7c10,7.3,23.2,8.2,33.9,2.6C17.2,65.6,6.5,60.3,0,53.2z M0.1,33.8C0.1,33.8,0,33.8,0.1,33.8L0,48.3
		c0.7,0.8,1.4,1.6,2.3,2.5C12.5,61,26.8,62.9,38.8,57.2C14,61.2-0.6,44.5,0.1,33.8z"/>
</g>
<g id="Слой_5">
	<path class="st4" d="M19.3,26.2c4.6,0,8.4,3.8,8.4,8.4s-3.8,8.4-8.4,8.4c-4.6,0-8.4-3.8-8.4-8.4S14.6,26.2,19.3,26.2z"/>
	<path class="st5" d="M75.7,37.9c-1.6-1.6-4-2.4-6.9-2.4h-5.7v18.3h5.2c3.2,0,5.7-0.8,7.4-2.4c1.7-1.6,2.6-3.9,2.6-6.9
		C78.2,41.7,77.4,39.5,75.7,37.9z M68.6,50.6h-1.7V38.7H69c3.5,0,5.2,2,5.2,5.9C74.2,48.6,72.3,50.6,68.6,50.6L68.6,50.6z"/>
	<path class="st5" d="M93.2,50.6h-6.6v-4.7h6.2v-3.2h-6.2v-4h6.6v-3.2H82.6v18.3h10.5V50.6z"/>
	<path class="st5" d="M108.9,53.8v-3.2h-7.4V35.5h-3.9v18.3H108.9z"/>
	<path class="st5" d="M123.7,35.5v11.2c0,1.4-0.3,2.5-0.9,3.1c-0.6,0.7-1.5,1-2.8,1c-1.3,0-2.2-0.3-2.8-1c-0.6-0.7-0.8-1.7-0.8-3.1
		V35.5h-3.9v11.8c0,2.1,0.6,3.7,1.9,4.9c1.3,1.2,3.1,1.8,5.5,1.8c1.6,0,2.9-0.3,4-0.8c1.1-0.5,2-1.3,2.6-2.3c0.6-1,0.9-2.2,0.9-3.5
		V35.5H123.7z"/>
	<path class="st5" d="M141.3,44.6l5.7-9.1h-4.2l-3.9,6.6l-3.9-6.6h-4.3l5.7,8.8l-6.1,9.4h4.1l4.2-6.9l4.2,6.9h4.4L141.3,44.6z"/>
	<path class="st5" d="M160.9,50.6h-6.6v-4.7h6.2v-3.2h-6.2v-4h6.6v-3.2h-10.5v18.3h10.5V50.6z"/>
</g>
</svg>
