<svg width="96" height="97" viewBox="0 0 96 97" fill="none" xmlns="http://www.w3.org/2000/svg">
<path d="M39.0009 5.23381C44.5701 2.01842 51.4316 2.01842 57.0009 5.23381L80.5701 18.8415C86.1393 22.0569 89.5701 27.9992 89.5701 34.43V61.6454C89.5701 68.0761 86.1393 74.0184 80.5701 77.2338L57.0009 90.8415C51.4316 94.0569 44.5701 94.0569 39.0009 90.8415L15.4316 77.2338C9.86242 74.0184 6.43164 68.0761 6.43164 61.6454V34.43C6.43164 27.9992 9.86242 22.0569 15.4316 18.8415L39.0009 5.23381Z" fill="#D9534A"/>
<path d="M17.4333 64.9497C17.3748 64.9497 17.328 64.9321 17.2929 64.897C17.2578 64.862 17.2402 64.8152 17.2402 64.7567V59.0121C17.2402 58.9478 17.2578 58.8981 17.2929 58.863C17.328 58.8279 17.3748 58.8104 17.4333 58.8104H19.5652C19.9747 58.8104 20.3285 58.8805 20.6268 59.0209C20.931 59.1553 21.165 59.357 21.3287 59.626C21.4983 59.895 21.5832 60.2282 21.5832 60.6258C21.5832 61.0234 21.4983 61.3567 21.3287 61.6257C21.165 61.8946 20.931 62.0993 20.6268 62.2396C20.3285 62.3741 19.9747 62.4413 19.5652 62.4413H17.793V64.7567C17.793 64.8152 17.7754 64.862 17.7403 64.897C17.7052 64.9321 17.6555 64.9497 17.5912 64.9497H17.4333ZM17.793 61.9151H19.5214C20.0302 61.9151 20.4075 61.804 20.6532 61.5818C20.9047 61.3596 21.0304 61.041 21.0304 60.6258C21.0304 60.2107 20.9047 59.892 20.6532 59.6699C20.4075 59.4477 20.0302 59.3366 19.5214 59.3366H17.793V61.9151Z" fill="white"/>
<path d="M25.4946 64.9497C25.4478 64.9497 25.4069 64.9321 25.3718 64.897C25.3367 64.862 25.3191 64.821 25.3191 64.7742C25.3191 64.745 25.325 64.7129 25.3367 64.6778L27.5564 58.9858C27.5798 58.9273 27.609 58.8834 27.6441 58.8542C27.6851 58.825 27.7406 58.8104 27.8108 58.8104H28.1091C28.1793 58.8104 28.232 58.825 28.2671 58.8542C28.308 58.8834 28.3402 58.9273 28.3636 58.9858L30.5833 64.6778C30.595 64.7129 30.6008 64.745 30.6008 64.7742C30.6008 64.821 30.5833 64.862 30.5482 64.897C30.5131 64.9321 30.4721 64.9497 30.4254 64.9497H30.2499C30.1914 64.9497 30.1475 64.935 30.1183 64.9058C30.089 64.8707 30.0686 64.8415 30.0569 64.8181L29.5129 63.4148H26.4071L25.8631 64.8181C25.8572 64.8415 25.8368 64.8707 25.8017 64.9058C25.7724 64.935 25.7286 64.9497 25.6701 64.9497H25.4946ZM26.6176 62.8886H29.3023L27.96 59.4331L26.6176 62.8886Z" fill="white"/>
<path d="M36.5975 64.9497C36.5215 64.9497 36.4601 64.9321 36.4133 64.897C36.3665 64.862 36.3284 64.8093 36.2992 64.7392L34.2637 59.0822C34.252 59.0472 34.2462 59.015 34.2462 58.9858C34.2462 58.939 34.2637 58.8981 34.2988 58.863C34.3339 58.8279 34.3749 58.8104 34.4217 58.8104H34.6059C34.6644 58.8104 34.7083 58.8279 34.7375 58.863C34.7726 58.8922 34.7931 58.9185 34.7989 58.9419L36.7203 64.3094L38.6418 58.9419C38.6534 58.9185 38.6739 58.8922 38.7032 58.863C38.7324 58.8279 38.7763 58.8104 38.8348 58.8104H39.019C39.0658 58.8104 39.1068 58.8279 39.1418 58.863C39.1769 58.8981 39.1945 58.939 39.1945 58.9858C39.1945 59.015 39.1886 59.0472 39.1769 59.0822L37.1415 64.7392C37.1181 64.8093 37.083 64.862 37.0362 64.897C36.9894 64.9321 36.9251 64.9497 36.8432 64.9497H36.5975Z" fill="white"/>
<path d="M44.0436 64.9497C43.9851 64.9497 43.9383 64.9321 43.9032 64.897C43.8681 64.862 43.8506 64.8152 43.8506 64.7567V59.0033C43.8506 58.9448 43.8681 58.8981 43.9032 58.863C43.9383 58.8279 43.9851 58.8104 44.0436 58.8104H44.2103C44.2688 58.8104 44.3156 58.8279 44.3507 58.863C44.3858 58.8981 44.4033 58.9448 44.4033 59.0033V64.7567C44.4033 64.8152 44.3858 64.862 44.3507 64.897C44.3156 64.9321 44.2688 64.9497 44.2103 64.9497H44.0436Z" fill="white"/>
<path d="M49.755 64.9497C49.6965 64.9497 49.6497 64.9321 49.6146 64.897C49.5795 64.862 49.562 64.8152 49.562 64.7567V59.0033C49.562 58.9448 49.5795 58.8981 49.6146 58.863C49.6497 58.8279 49.6965 58.8104 49.755 58.8104H49.9217C49.9802 58.8104 50.027 58.8279 50.0621 58.863C50.0972 58.8981 50.1147 58.9448 50.1147 59.0033V64.4234H53.1416C53.2059 64.4234 53.2557 64.441 53.2908 64.4761C53.3259 64.5111 53.3434 64.5608 53.3434 64.6251V64.7567C53.3434 64.8152 53.3259 64.862 53.2908 64.897C53.2557 64.9321 53.2059 64.9497 53.1416 64.9497H49.755Z" fill="white"/>
<path d="M58.0711 64.9497C58.0126 64.9497 57.9658 64.9321 57.9307 64.897C57.8956 64.862 57.878 64.8152 57.878 64.7567V59.0033C57.878 58.9448 57.8956 58.8981 57.9307 58.863C57.9658 58.8279 58.0126 58.8104 58.0711 58.8104H58.2378C58.2962 58.8104 58.343 58.8279 58.3781 58.863C58.4132 58.8981 58.4308 58.9448 58.4308 59.0033V64.7567C58.4308 64.8152 58.4132 64.862 58.3781 64.897C58.343 64.9321 58.2962 64.9497 58.2378 64.9497H58.0711Z" fill="white"/>
<path d="M65.6688 65.0374C65.1833 65.0374 64.771 64.9526 64.4317 64.783C64.0925 64.6076 63.8322 64.3416 63.6509 63.9849C63.4695 63.6224 63.3701 63.1663 63.3526 62.6167C63.3467 62.3536 63.3438 62.108 63.3438 61.88C63.3438 61.652 63.3467 61.4064 63.3526 61.1433C63.3701 60.5995 63.4754 60.1493 63.6684 59.7926C63.8614 59.4301 64.1276 59.1612 64.4668 58.9858C64.8119 58.8104 65.2126 58.7227 65.6688 58.7227C66.125 58.7227 66.5227 58.8104 66.862 58.9858C67.2071 59.1612 67.4761 59.4301 67.6692 59.7926C67.868 60.1493 67.9733 60.5995 67.985 61.1433C67.9967 61.4064 68.0026 61.652 68.0026 61.88C68.0026 62.108 67.9967 62.3536 67.985 62.6167C67.9733 63.1663 67.8739 63.6224 67.6867 63.9849C67.5054 64.3416 67.2451 64.6076 66.9059 64.783C66.5666 64.9526 66.1543 65.0374 65.6688 65.0374ZM65.6688 64.5111C66.1718 64.5111 66.5842 64.3591 66.9059 64.0551C67.2334 63.751 67.4089 63.257 67.4323 62.5729C67.444 62.3098 67.4498 62.0788 67.4498 61.88C67.4498 61.6812 67.444 61.4503 67.4323 61.1871C67.4206 60.7311 67.3358 60.3598 67.1778 60.0733C67.0258 59.7868 66.8181 59.5792 66.5549 59.4506C66.2976 59.3161 66.0022 59.2489 65.6688 59.2489C65.3412 59.2489 65.0459 59.3161 64.7826 59.4506C64.5253 59.5792 64.3176 59.7868 64.1597 60.0733C64.0076 60.3598 63.9228 60.7311 63.9053 61.1871C63.8994 61.4503 63.8965 61.6812 63.8965 61.88C63.8965 62.0788 63.8994 62.3098 63.9053 62.5729C63.9287 63.257 64.1042 63.751 64.4317 64.0551C64.7593 64.3591 65.1716 64.5111 65.6688 64.5111Z" fill="white"/>
<path d="M73.101 64.9497C73.0425 64.9497 72.9957 64.9321 72.9606 64.897C72.9255 64.862 72.9079 64.8152 72.9079 64.7567V59.0121C72.9079 58.9478 72.9255 58.8981 72.9606 58.863C72.9957 58.8279 73.0425 58.8104 73.101 58.8104H73.2852C73.3437 58.8104 73.3876 58.825 73.4168 58.8542C73.4461 58.8834 73.4636 58.9039 73.4695 58.9156L76.7069 63.8621V59.0121C76.7069 58.9478 76.7245 58.8981 76.7596 58.863C76.7946 58.8279 76.8414 58.8104 76.8999 58.8104H77.0579C77.1222 58.8104 77.1719 58.8279 77.207 58.863C77.2421 58.8981 77.2596 58.9478 77.2596 59.0121V64.7479C77.2596 64.8064 77.2421 64.8561 77.207 64.897C77.1719 64.9321 77.1251 64.9497 77.0666 64.9497H76.8736C76.8151 64.9497 76.7712 64.935 76.742 64.9058C76.7186 64.8766 76.7011 64.8561 76.6894 64.8444L73.4607 59.9154V64.7567C73.4607 64.8152 73.4431 64.862 73.408 64.897C73.3729 64.9321 73.3232 64.9497 73.2589 64.9497H73.101Z" fill="white"/>
<path d="M50.0469 52.6712H56.7733M56.7733 52.6712H59.6978V41.562H53.5563C54.8677 43.2922 57.2402 47.8039 56.7733 52.6712Z" stroke="white"/>
<path d="M69.6407 41.5621H59.6973C59.6973 41.5621 60.0095 38.7475 60.6385 37.0586C61.619 34.4261 64.8144 31.0376 64.8144 31.0376C64.8144 31.0376 67.8881 34.3161 68.835 37.0586C69.4168 38.7438 69.6407 41.5621 69.6407 41.5621Z" stroke="white" stroke-width="0.5"/>
<path d="M17.5844 52.1715C17.3082 52.1715 17.0844 52.3954 17.0844 52.6715C17.0844 52.9477 17.3082 53.1715 17.5844 53.1715V52.1715ZM36.6326 35.5635L36.9719 35.9307L38.1522 34.84L36.5615 35.0686L36.6326 35.5635ZM36.019 36.1305L35.6797 35.7633L36.019 36.1305ZM17.5844 53.1715H28.1127V52.1715H17.5844V53.1715ZM36.5615 35.0686L30.6327 35.9204L30.7749 36.9102L36.7037 36.0584L36.5615 35.0686ZM36.3584 36.4977L36.9719 35.9307L36.2933 35.1963L35.6797 35.7633L36.3584 36.4977ZM28.6116 52.705C29.0268 46.5108 31.799 40.711 36.3584 36.4977L35.6797 35.7633C30.9325 40.1501 28.0462 46.1888 27.6138 52.6381L28.6116 52.705ZM30.6327 35.9204C22.4157 37.1009 16.5045 44.4256 17.0856 52.7065L18.0832 52.6365C17.5387 44.8784 23.0768 38.0162 30.7749 36.9102L30.6327 35.9204Z" fill="white"/>
<path d="M46.8302 52.6715H56.7735C57.431 44.6758 51.7547 37.5484 43.8146 36.3997L38.0347 35.5635L39.0921 36.5242C43.6784 40.6916 46.4551 46.4859 46.8302 52.6715Z" stroke="white"/>
<path fill-rule="evenodd" clip-rule="evenodd" d="M37.4728 34.46L37.8027 34.7592L38.902 35.7563C43.7207 40.1272 46.7252 46.1462 47.3221 52.6245L46.8242 52.6704V53.1704L40.1813 53.1704H39.6813V52.6704V44.3999H37.4668H35.0582V52.6704V53.1704H34.5582H28.1236V52.6704L27.625 52.6328C28.1198 46.0736 31.1715 39.9714 36.1226 35.6409L37.1376 34.7532L37.4728 34.46ZM28.6688 52.1704H34.0582V43.8999V43.3999H34.5582H37.4668H40.1813H40.6813V43.8999V52.1704L46.27 52.1704C45.5818 46.1497 42.7279 40.5767 38.2302 36.497L37.4607 35.7991L36.781 36.3936C32.1629 40.4329 29.2658 46.0776 28.6688 52.1704Z" fill="white"/>
<path d="M69.6406 52.6712V41.562H78.9991V52.6712H69.6406Z" stroke="white"/>
<path d="M51.2168 39.5158L50.7207 39.4534L50.6902 39.6963L50.8633 39.8694L51.2168 39.5158ZM64.3772 31.3301L64.7594 31.6525L65.526 30.7436L64.3402 30.8314L64.3772 31.3301ZM59.449 41.5622V42.0622H59.8828L59.944 41.6328L59.449 41.5622ZM53.264 41.5622L52.9105 41.9159L53.0569 42.0622H53.264V41.5622ZM51.7129 39.5782C51.8283 38.6606 52.7193 36.891 54.7628 35.2521C56.7849 33.6303 59.9088 32.1625 64.4141 31.8287L64.3402 30.8314C59.6464 31.1792 56.327 32.7157 54.1371 34.472C51.9687 36.2112 50.8791 38.1938 50.7207 39.4534L51.7129 39.5782ZM63.995 31.0077C62.717 32.5227 59.8099 35.4898 58.954 41.4916L59.944 41.6328C60.7557 35.9408 63.482 33.1667 64.7594 31.6525L63.995 31.0077ZM59.449 41.0622H53.264V42.0622H59.449V41.0622ZM53.6175 41.2086L53.0326 40.6239L52.3256 41.3312L52.9105 41.9159L53.6175 41.2086ZM53.0326 40.6239L51.5703 39.1622L50.8633 39.8694L52.3256 41.3312L53.0326 40.6239Z" fill="white"/>
<path d="M59.6973 41.562H69.6407" stroke="white"/>
<path d="M78.9997 41.5622H69.695C69.6601 38.3658 68.5849 35.2676 66.6322 32.7367L65.5469 31.3301L71.2724 32.4844C75.6347 33.3639 78.8281 37.1154 78.9997 41.5622Z" stroke="white"/>
</svg>
