<svg width="96" height="97" viewBox="0 0 96 97" fill="none" xmlns="http://www.w3.org/2000/svg">
<path d="M39.0009 6.19621C44.5701 2.98082 51.4316 2.98082 57.0009 6.19621L80.5701 19.8039C86.1393 23.0193 89.5701 28.9616 89.5701 35.3924V62.6078C89.5701 69.0385 86.1393 74.9808 80.5701 78.1962L57.0009 91.8039C51.4316 95.0193 44.5701 95.0193 39.0009 91.8039L15.4316 78.1962C9.86242 74.9808 6.43164 69.0385 6.43164 62.6078V35.3924C6.43164 28.9616 9.86242 23.0193 15.4316 19.8039L39.0009 6.19621Z" fill="#F4BA45"/>
<path d="M12.0735 53.0482C12.0735 48.9324 13.2122 48.2524 13.9101 48.2882C14.4978 48.324 15.3794 48.9324 14.608 50.6145L13.2489 53.5492C12.5877 54.9808 14.2774 55.625 14.8652 54.265L18.9425 44.8882C19.971 42.4903 20.7791 41.2734 23.277 41.2734H26.8768C29.4848 41.2734 30.146 42.9198 30.2195 45.2103L30.4766 54.5871C30.5501 56.985 29.5216 57.9513 27.7584 57.9513C25.2238 57.9513 24.232 55.124 26.5095 53.3703L28.6767 51.6882C29.4114 51.1155 29.044 50.2208 28.1624 50.2924L24.0116 50.5429C22.4689 50.6145 21.9913 48.7892 23.2035 48.1092L28.1257 45.3892C29.595 44.5661 28.493 41.9534 26.436 43.0629L20.2282 46.3555C19.1996 46.9282 19.0527 47.2861 19.2364 48.6103L19.8608 53.585C20.1914 56.1619 18.9792 57.9871 16.1875 57.9871C13.6897 57.9871 12 56.6629 12 53.1913V53.0482H12.0735Z" fill="white"/>
<path d="M39.0754 52.9768C39.9937 52.9768 40.2508 52.6905 40.2508 52.261C40.2508 51.7957 39.8468 51.5452 39.2958 51.3663L35.8429 50.2926C33.0145 49.3978 32.2063 48.2526 32.2063 46.7136C32.2063 44.2084 35.7694 40.9873 41.4263 40.9873C46.2383 40.9873 48.6626 43.5999 48.6626 49.9347C48.6626 56.6273 47.1933 57.9515 45.173 57.9515C43.116 57.9515 42.1242 56.0905 43.5935 53.8715L46.5321 49.3978C47.0097 48.6463 47.1566 48.0378 47.1566 47.3936C47.1566 45.9263 46.2015 44.8884 43.7772 44.8884H36.1C34.5205 44.8884 33.6389 45.7115 33.6389 46.7494C33.6389 47.8947 34.4838 49.0399 36.7979 48.6463L43.5935 47.5726C44.5853 47.4294 45.0628 47.7157 45.0628 48.2168C45.0628 48.5747 44.9159 48.9326 44.3282 49.6126L38.4142 56.1263C37.1285 57.5578 36.0266 57.9873 34.9613 57.9873C32.7206 57.9873 31.9492 56.6273 31.9492 55.2673C31.9492 53.9431 33.0512 53.0484 34.5205 53.0484L39.0754 52.9768Z" fill="white"/>
<path d="M50.1328 49.7914C50.1328 44.6735 53.6959 41.0229 58.765 41.0229C62.9893 41.0229 65.4871 43.564 65.4871 46.3556C65.4871 47.8587 64.8259 49.2545 62.5852 49.004C60.7486 48.8251 60.7486 46.9282 60.969 45.7114L61.3363 43.6714C61.52 42.7051 60.969 42.0608 59.9405 42.6693L52.8143 46.8924C51.9695 47.3935 51.896 48.1808 52.851 48.4314L56.8182 49.5051C58.3977 49.9345 59.0222 51.8314 57.1855 52.7977L55.9733 53.4061C52.8878 54.9808 56.7447 58.524 58.765 56.2693L61.9975 52.583C63.7239 50.6145 65.8177 51.7598 65.8177 53.3345C65.8177 55.2314 61.9608 57.9872 57.7732 57.9872C52.5572 57.9514 50.1328 54.3724 50.1328 49.7914Z" fill="white"/>
<path d="M74.4113 52.9768C75.3296 52.9768 75.5868 52.6905 75.5868 52.261C75.5868 51.7957 75.1827 51.5452 74.6317 51.3663L71.1788 50.2926C68.3504 49.3978 67.5423 48.2526 67.5423 46.7136C67.5423 44.2084 71.1054 40.9873 76.7622 40.9873C81.5742 40.9873 83.9986 43.5999 83.9986 49.9347C83.9986 56.6273 82.5293 57.9515 80.509 57.9515C78.4519 57.9515 77.4601 56.0905 78.9295 53.8715L81.8681 49.3978C82.3456 48.6463 82.4925 48.0378 82.4925 47.3936C82.4925 45.9263 81.5375 44.8884 79.1131 44.8884H71.436C69.8565 44.8884 68.9749 45.7115 68.9749 46.7494C68.9749 47.8947 69.8197 49.0399 72.1339 48.6463L78.9295 47.5726C79.9212 47.4294 80.3988 47.7157 80.3988 48.2168C80.3988 48.5747 80.2518 48.9326 79.6641 49.6126L73.7501 56.1263C72.4645 57.5578 71.3625 57.9873 70.2972 57.9873C68.0565 57.9873 67.2852 56.6273 67.2852 55.2673C67.2852 53.9431 68.3871 53.0484 69.8565 53.0484L74.4113 52.9768Z" fill="white"/>
</svg>
