<svg width="97" height="97" viewBox="0 0 97 97" fill="none" xmlns="http://www.w3.org/2000/svg">
<path d="M39.8954 6.18352C45.4646 2.96812 52.3262 2.96812 57.8954 6.18352L81.4646 19.7912C87.0338 23.0066 90.4646 28.9489 90.4646 35.3797V62.5951C90.4646 69.0258 87.0338 74.9681 81.4646 78.1835L57.8954 91.7912C52.3262 95.0066 45.4646 95.0066 39.8954 91.7912L16.3262 78.1835C10.7569 74.9681 7.32617 69.0258 7.32617 62.5951V35.3797C7.32617 28.9489 10.757 23.0066 16.3262 19.7912L39.8954 6.18352Z" fill="#7D808C"/>
<mask id="mask0_185_22202" style="mask-type:alpha" maskUnits="userSpaceOnUse" x="7" y="3" width="84" height="92">
<path d="M39.8954 6.18352C45.4646 2.96812 52.3262 2.96813 57.8954 6.18352L81.4646 19.7912C87.0338 23.0066 90.4646 28.9489 90.4646 35.3797V62.5951C90.4646 69.0258 87.0338 74.9681 81.4646 78.1835L57.8954 91.7912C52.3262 95.0066 45.4646 95.0066 39.8954 91.7912L16.3262 78.1835C10.757 74.9681 7.32617 69.0258 7.32617 62.5951V35.3797C7.32617 28.9489 10.757 23.0066 16.3262 19.7912L39.8954 6.18352Z" fill="url(#paint0_linear_185_22202)"/>
</mask>
<g mask="url(#mask0_185_22202)">
<rect x="0.894531" y="0.987305" width="96" height="96" fill="#636574"/>
</g>
<g clip-path="url(#clip0_185_22202)">
<path d="M35.0146 43.7725H32.8535V47.7607V47.9389L34.1011 47.2928V44.7305H35.0368C36.1285 44.7305 36.5964 45.3098 36.5964 46.0673C36.5964 46.7803 36.0617 47.3819 35.0368 47.3819H34.2125L32.8758 48.34H35.0591C36.7746 48.34 37.8885 47.4487 37.8885 46.0673C37.8662 44.6637 36.7523 43.7725 35.0146 43.7725Z" fill="white"/>
<path d="M41.5424 48.3177L40.4953 46.758H39.7378V48.3177H38.4902V43.7725H41.1191C42.2776 43.7725 42.946 44.4409 42.946 45.2653C42.946 46.0896 42.3445 46.5575 41.7429 46.6466L42.9906 48.3177H41.5424ZM41.6761 45.2653C41.6761 44.9533 41.4088 44.7305 40.9632 44.7305H39.7378V45.8223H40.9632C41.4088 45.8 41.6761 45.5772 41.6761 45.2653Z" fill="white"/>
<path d="M43.6816 48.3177V43.7725H47.6027V44.7082H44.9293V45.5549H47.5359V46.4907H44.9293V47.4042H47.6027V48.34H43.6816V48.3177Z" fill="white"/>
<path d="M58.6079 48.3177V45.3544L57.1597 48.3177H56.5805L55.1324 45.3544V48.3177H53.8848V43.7725H55.5557L56.8701 46.4907L58.1846 43.7725H59.8555V48.3177H58.6079Z" fill="white"/>
<path d="M53.5278 48.3176H52.2356L51.9237 47.6938H49.8295L49.5399 48.3176H48.2031L50.8766 43.5273L53.5278 48.3176ZM50.8766 45.5994L50.2082 46.7803H51.5004L50.8766 45.5994Z" fill="white"/>
<path d="M67.5629 48.3176H66.2707L65.9588 47.6938H63.8646L63.575 48.3176H62.2383L64.9117 43.5273L67.5629 48.3176ZM64.9117 45.5994L64.2434 46.7803H65.5355L64.9117 45.5994Z" fill="white"/>
<path d="M68.0312 48.3177V43.7725H71.9523V44.7082H69.2789V45.5549H71.8855V46.4907H69.2789V47.4042H71.9523V48.34H68.0312V48.3177Z" fill="white"/>
<path d="M76.2737 48.3177L75.2266 46.758H74.4468V48.3177H73.1992V43.7725H75.8281C76.9866 43.7725 77.655 44.4409 77.655 45.2653C77.655 46.0896 77.0534 46.5575 76.4519 46.6466L77.6995 48.3177H76.2737ZM76.3851 45.2653C76.3851 44.9533 76.1177 44.7305 75.6722 44.7305H74.4468V45.8223H75.6722C76.14 45.8 76.3851 45.5772 76.3851 45.2653Z" fill="white"/>
<path d="M78.3242 46.0227C78.3242 44.6413 79.4604 43.6387 81.1091 43.6387C82.7577 43.6387 83.8939 44.6413 83.8939 46.0227C83.8939 47.3818 82.7577 48.4067 81.1091 48.4067C79.4604 48.4067 78.3242 47.4041 78.3242 46.0227ZM82.624 46.0227C82.624 45.2206 82.0225 44.619 81.1091 44.619C80.1956 44.619 79.5941 45.2206 79.5941 46.0227C79.5941 46.8248 80.1956 47.4264 81.1091 47.4264C82.0225 47.4486 82.624 46.8248 82.624 46.0227Z" fill="white"/>
<path d="M27.596 48.6548L22.9174 39.854L13.8945 56.854L32.8538 46.7832V46.605L27.596 48.6548ZM19.5756 51.7518V51.7295L22.9397 45.2682L25.1899 49.6129L19.5756 51.7518Z" fill="white"/>
<path d="M21.5137 55.2274L25.3902 54.96L34.1903 46.2261L21.5137 55.2274Z" fill="white"/>
<path d="M33.8784 50.6601H33.1655L33.0095 50.9943H32.7422L33.3883 49.5684H33.6556L34.3017 50.9943H34.0344L33.8784 50.6601ZM33.7893 50.4596L33.5219 49.8357L33.2546 50.4596H33.7893Z" fill="white"/>
<path d="M35.7495 50.3705C35.7941 50.4373 35.8163 50.5041 35.8163 50.5933C35.8163 50.7269 35.7718 50.8161 35.6827 50.8829C35.5936 50.9498 35.4599 50.9943 35.2816 50.9943H34.6133V49.5684H35.2371C35.393 49.5684 35.5267 49.5906 35.6158 49.6575C35.7049 49.7243 35.7495 49.8134 35.7495 49.9248C35.7495 49.9917 35.7272 50.0585 35.7049 50.1254C35.6604 50.1699 35.6158 50.2145 35.549 50.2591C35.6381 50.2813 35.7049 50.3259 35.7495 50.3705ZM34.8583 50.1922H35.2148C35.3039 50.1922 35.3708 50.1699 35.4153 50.1477C35.4599 50.1031 35.4822 50.0585 35.4822 49.9917C35.4822 49.9248 35.4599 49.8803 35.4153 49.8357C35.3708 49.7912 35.3039 49.7912 35.2148 49.7912H34.8583V50.1922ZM35.549 50.571C35.549 50.4373 35.4599 50.3705 35.2594 50.3705H34.8583V50.7938H35.2816C35.4599 50.7938 35.549 50.7269 35.549 50.571Z" fill="white"/>
<path d="M36.2168 49.5684H36.4841V50.571L37.2416 49.5684H37.4867V50.9943H37.2193V49.9917L36.4619 50.9943H36.2168V49.5684Z" fill="white"/>
<path d="M38.9343 50.6601H38.2213L38.0877 50.9943H37.8203L38.4664 49.5684H38.7337L39.3798 50.9943H39.0679L38.9343 50.6601ZM38.8451 50.4596L38.5778 49.8357L38.3104 50.4596H38.8451Z" fill="white"/>
<path d="M40.6288 49.7912H40.161V50.9943H39.8936V49.7912H39.4258V49.5684H40.6288V49.7912Z" fill="white"/>
<path d="M41.854 49.6352C41.9432 49.6798 42.01 49.7243 42.0546 49.8134C42.0991 49.8803 42.1214 49.9694 42.1214 50.0808C42.1214 50.1922 42.0991 50.2813 42.0546 50.3482C42.01 50.415 41.9432 50.4819 41.854 50.5264C41.7649 50.571 41.6535 50.5933 41.5421 50.5933H41.2302V50.9943H40.9629V49.5684H41.5421C41.6535 49.5684 41.7649 49.5906 41.854 49.6352ZM41.7872 50.2813C41.854 50.2368 41.8763 50.1699 41.8763 50.0808C41.8763 49.9917 41.854 49.9248 41.7872 49.8803C41.7204 49.8357 41.6313 49.8134 41.5199 49.8134H41.208V50.3705H41.5199C41.6313 50.3705 41.7204 50.3482 41.7872 50.2813Z" fill="white"/>
<path d="M43.5479 50.7715V50.9943H42.4785V49.5684H43.5033V49.7912H42.7236V50.1699H43.4142V50.3927H42.7236V50.7715H43.5479Z" fill="white"/>
<path d="M45.2191 49.5684V50.9943H44.9518V50.3927H44.2166V50.9943H43.9492V49.5684H44.2166V50.1477H44.9518V49.5684H45.2191Z" fill="white"/>
<path d="M46.6432 50.6601H45.9303L45.7966 50.9943H45.5293L46.1754 49.5684H46.4427L47.0888 50.9943H46.8215L46.6432 50.6601ZM46.5541 50.4596L46.2868 49.8357L46.0194 50.4596H46.5541Z" fill="white"/>
<path d="M48.5606 50.3924H48.3155V50.994H48.0482V50.3924H47.8031L47.4467 50.994H47.1348L47.5803 50.2587L47.157 49.5903H47.4467L47.8031 50.1919H48.0482V49.5903H48.3155V50.1919H48.5606L48.9171 49.5903H49.2067L48.7834 50.281L49.229 51.0163H48.9171L48.5606 50.3924Z" fill="white"/>
<path d="M50.5655 50.7714V50.9942H49.4961V49.5682H50.5209V49.791H49.7634V50.1698H50.4541V50.3926H49.7634V50.7714H50.5655ZM49.7412 49.4123C49.7189 49.39 49.6966 49.3677 49.6966 49.3231C49.6966 49.2786 49.7189 49.2563 49.7412 49.234C49.7634 49.2117 49.7857 49.1895 49.8303 49.1895C49.8748 49.1895 49.8971 49.2117 49.9194 49.234C49.9417 49.2563 49.9639 49.2786 49.9639 49.3231C49.9639 49.3677 49.9417 49.39 49.9194 49.4123C49.8971 49.4345 49.8748 49.4568 49.8303 49.4568C49.7857 49.4568 49.7634 49.4345 49.7412 49.4123ZM50.1422 49.4123C50.1199 49.39 50.0976 49.3677 50.0976 49.3231C50.0976 49.2786 50.1199 49.2563 50.1422 49.234C50.1645 49.2117 50.1867 49.1895 50.2313 49.1895C50.2759 49.1895 50.2981 49.2117 50.3204 49.234C50.3427 49.2563 50.365 49.2786 50.365 49.3231C50.365 49.3677 50.3427 49.39 50.3204 49.4123C50.2981 49.4345 50.2759 49.4568 50.2313 49.4568C50.1867 49.4345 50.1645 49.4345 50.1422 49.4123Z" fill="white"/>
<path d="M51.856 49.6352C51.9451 49.6798 52.012 49.7243 52.0565 49.8134C52.1011 49.8803 52.1233 49.9694 52.1233 50.0808C52.1233 50.1922 52.1011 50.2813 52.0565 50.3482C52.012 50.415 51.9451 50.4819 51.856 50.5264C51.7669 50.571 51.6555 50.5933 51.5441 50.5933H51.2322V50.9943H50.9648V49.5684H51.5441C51.6555 49.5684 51.7669 49.5906 51.856 49.6352ZM51.7892 50.2813C51.856 50.2368 51.8783 50.1699 51.8783 50.0808C51.8783 49.9917 51.856 49.9248 51.7892 49.8803C51.7223 49.8357 51.6332 49.8134 51.5218 49.8134H51.2099V50.3705H51.5218C51.6555 50.3705 51.7223 50.3482 51.7892 50.2813Z" fill="white"/>
<path d="M53.551 50.1699C53.6401 50.2368 53.6847 50.3705 53.6847 50.5041C53.6847 50.6601 53.6401 50.7715 53.5287 50.8606C53.4396 50.9498 53.2837 50.9943 53.1054 50.9943H52.5039V49.5684H52.7713V50.0585H53.1723C53.3282 50.0585 53.4619 50.1031 53.551 50.1699ZM53.3282 50.7269C53.3728 50.6824 53.4173 50.6155 53.4173 50.5264C53.4173 50.3482 53.3059 50.2591 53.1054 50.2591H52.7713V50.7938H53.1054C53.1946 50.7938 53.2837 50.7715 53.3282 50.7269ZM53.8852 49.5684H54.1525V50.9943H53.8852V49.5684Z" fill="white"/>
<path d="M57.2029 50.7715V51.3062H56.9578V50.9943H55.8662V51.3062H55.6211V50.7715H55.6879C55.777 50.7715 55.8439 50.7047 55.8662 50.571C55.9107 50.4373 55.933 50.2591 55.933 50.014L55.9553 49.5684H57.0024V50.7715H57.2029ZM56.1335 50.5041C56.1112 50.6378 56.0667 50.7047 56.0221 50.7715H56.735V49.7912H56.1781V50.0362C56.1781 50.2368 56.1558 50.3927 56.1335 50.5041Z" fill="white"/>
<path d="M58.7629 49.5684V50.9943H58.4956V49.7912H57.9386L57.9163 50.1477C57.9163 50.3482 57.8941 50.5041 57.8718 50.6378C57.8495 50.7715 57.805 50.8606 57.7381 50.9275C57.6713 50.9943 57.6044 51.0166 57.493 51.0166C57.4485 51.0166 57.4039 51.0166 57.3594 50.9943L57.3817 50.7715C57.4039 50.7715 57.4262 50.7715 57.4485 50.7715C57.5376 50.7715 57.5822 50.7269 57.6267 50.6155C57.6713 50.5264 57.6936 50.3705 57.6936 50.1477L57.7158 49.5684H58.7629Z" fill="white"/>
<path d="M60.3448 49.5682V50.9941H60.0775V50.5931H59.721H59.6988L59.4314 50.9941H59.1641L59.476 50.5485C59.3869 50.504 59.2977 50.4594 59.2532 50.3703C59.2086 50.2812 59.1641 50.192 59.1641 50.0806C59.1641 49.9692 59.1863 49.8801 59.2309 49.791C59.2755 49.7019 59.3423 49.6573 59.4314 49.6127C59.5205 49.5682 59.6319 49.5459 59.7433 49.5459H60.3448V49.5682ZM59.5205 49.8801C59.4537 49.9247 59.4314 50.0138 59.4314 50.1029C59.4314 50.192 59.4537 50.2589 59.5205 50.3257C59.5651 50.3703 59.6542 50.3926 59.7656 50.3926H60.0998V49.8133H59.7879C59.6542 49.791 59.5874 49.8133 59.5205 49.8801Z" fill="white"/>
<path d="M63.1518 50.3705C63.1964 50.4373 63.2187 50.5041 63.2187 50.5933C63.2187 50.7269 63.1741 50.8161 63.085 50.8829C62.9959 50.9498 62.8622 50.9943 62.684 50.9943H62.0156V49.5684H62.6394C62.7954 49.5684 62.9291 49.5906 63.0182 49.6575C63.1073 49.7243 63.1518 49.8134 63.1518 49.9248C63.1518 49.9917 63.1296 50.0585 63.1073 50.1254C63.0627 50.1699 63.0182 50.2145 62.9513 50.2591C63.0405 50.2813 63.1073 50.3259 63.1518 50.3705ZM62.2607 50.1922H62.6172C62.7063 50.1922 62.7731 50.1699 62.8177 50.1477C62.8622 50.1031 62.8845 50.0585 62.8845 49.9917C62.8845 49.9248 62.8622 49.8803 62.8177 49.8357C62.7731 49.7912 62.7063 49.7912 62.6172 49.7912H62.2607V50.1922ZM62.9513 50.571C62.9513 50.4373 62.8622 50.3705 62.6617 50.3705H62.2607V50.7938H62.6617C62.8622 50.7938 62.9513 50.7269 62.9513 50.571Z" fill="white"/>
<path d="M63.8877 50.9273C63.7763 50.8604 63.6872 50.7713 63.6204 50.6599C63.5535 50.5485 63.5312 50.4148 63.5312 50.2812C63.5312 50.1475 63.5535 50.0138 63.6204 49.9024C63.6872 49.791 63.7763 49.7019 63.8877 49.635C63.9991 49.5682 64.1328 49.5459 64.2665 49.5459C64.3778 49.5459 64.4892 49.5682 64.5784 49.6127C64.6675 49.6573 64.7566 49.7019 64.8234 49.791L64.6452 49.9469C64.5338 49.8355 64.4224 49.791 64.2665 49.791C64.1773 49.791 64.0882 49.8133 63.9991 49.8578C63.9323 49.9024 63.8654 49.9692 63.8209 50.0361C63.7763 50.1029 63.754 50.192 63.754 50.3034C63.754 50.3926 63.7763 50.4817 63.8209 50.5708C63.8654 50.6376 63.9323 50.7045 63.9991 50.749C64.0659 50.7936 64.1551 50.8159 64.2665 50.8159C64.4224 50.8159 64.5338 50.749 64.6452 50.6376L64.8234 50.7936C64.7566 50.8604 64.6675 50.9273 64.5784 50.9718C64.4892 51.0164 64.3778 51.0387 64.2665 51.0387C64.1328 51.0164 63.9991 50.9941 63.8877 50.9273Z" fill="white"/>
<path d="M66.2491 50.7715V50.9943H65.1797V49.5684H66.2045V49.7912H65.4248V50.1699H66.1154V50.3927H65.4248V50.7715H66.2491Z" fill="white"/>
<path d="M66.7834 49.5684L67.1176 50.0363L67.4518 49.5684H67.7637L67.2958 50.2591L67.8082 50.9943H67.4963L67.1176 50.4819L66.7611 50.9943H66.4492L66.9616 50.2591L66.4715 49.5684H66.7834Z" fill="white"/>
</g>
<defs>
<linearGradient id="paint0_linear_185_22202" x1="48.8955" y1="0.987305" x2="48.8955" y2="96.9873" gradientUnits="userSpaceOnUse">
<stop stop-opacity="0"/>
<stop offset="1"/>
</linearGradient>
<clipPath id="clip0_185_22202">
<rect width="70" height="17" fill="white" transform="translate(13.8945 40.9873)"/>
</clipPath>
</defs>
</svg>
