<svg width="242" height="39" viewBox="0 0 242 39" fill="none" xmlns="http://www.w3.org/2000/svg">
<path d="M40.8008 13.1057H44.6769V15.9158C45.1614 15.0437 45.7858 14.3869 46.5503 13.9455C47.5301 13.3425 48.6929 13.041 50.0388 13.041C50.4048 13.041 50.7386 13.0626 51.0401 13.1057V17.2078C50.7063 17.1002 50.2918 17.0463 49.7965 17.0463C48.9782 17.0463 48.2515 17.1971 47.6162 17.4985C46.841 17.8538 46.2488 18.3814 45.8397 19.0813C45.4305 19.7811 45.226 20.6317 45.226 21.633V30.548H40.8008V13.1057Z" fill="white"/>
<path d="M59.9586 31.0651C57.9129 31.0651 56.384 30.5429 55.3719 29.4985C54.3706 28.4541 53.7461 27.3505 53.4985 26.1877C53.2616 25.0249 53.1431 23.9267 53.1431 22.893V13.106H57.6006V21.3426C57.6006 22.2255 57.6652 23.0545 57.7944 23.8298C57.9236 24.605 58.2628 25.3156 58.8119 25.9616C59.3718 26.6076 60.217 26.9306 61.3475 26.9306C62.3596 26.9306 63.2317 26.5861 63.9638 25.897C64.696 25.1971 65.0621 23.8836 65.0621 21.9563V13.106H69.4872V30.5483H65.6112V28.7556C64.9544 29.4877 64.1523 30.0584 63.2048 30.4675C62.2573 30.8659 61.1752 31.0651 59.9586 31.0651Z" fill="white"/>
<path d="M80.1706 31.0325C77.9742 31.0325 76.1976 30.5372 74.841 29.5467C73.4952 28.5561 72.6769 27.1456 72.3862 25.3153L76.876 24.637C77.059 25.466 77.4628 26.112 78.0872 26.575C78.7225 27.0272 79.5246 27.2533 80.4936 27.2533C81.2796 27.2533 81.8879 27.1026 82.3186 26.8011C82.7601 26.4889 82.9808 26.0582 82.9808 25.5091C82.9808 25.143 82.8893 24.8631 82.7062 24.6693C82.5339 24.4647 82.1679 24.2655 81.608 24.0717C81.0589 23.8779 80.1168 23.6033 78.7817 23.248C77.3389 22.882 76.1976 22.4728 75.3578 22.0206C74.518 21.5684 73.9097 21.0301 73.5328 20.4056C73.156 19.7811 72.9676 19.0167 72.9676 18.1122C72.9676 17.0033 73.2529 16.0342 73.8235 15.2052C74.3942 14.3761 75.2017 13.7409 76.2461 13.2995C77.2905 12.8472 78.5125 12.6211 79.9122 12.6211C81.2688 12.6211 82.4747 12.8311 83.5299 13.251C84.5958 13.6709 85.4518 14.2739 86.0978 15.0598C86.7546 15.8351 87.1583 16.7449 87.3091 17.7892L82.8193 18.5968C82.7439 17.9507 82.464 17.4393 81.9795 17.0625C81.4949 16.6856 80.8382 16.4649 80.0091 16.4003L79.67 16.3842C78.9593 16.3842 78.3887 16.5187 77.958 16.7879C77.5381 17.0571 77.3282 17.4232 77.3282 17.8861C77.3282 18.1984 77.4358 18.4568 77.6512 18.6614C77.8665 18.8552 78.2864 19.0597 78.9109 19.2751C79.5354 19.4796 80.5582 19.7596 81.9795 20.1149C83.3145 20.4594 84.3805 20.8632 85.1772 21.3262C85.974 21.7784 86.5554 22.3221 86.9214 22.9573C87.2875 23.5926 87.4706 24.3678 87.4706 25.283C87.4706 26.4673 87.1798 27.4956 86.5984 28.3677C86.017 29.229 85.1772 29.8912 84.079 30.3542C82.9808 30.8064 81.678 31.0325 80.1706 31.0325Z" fill="white"/>
<path d="M97.1887 31.0325C94.9923 31.0325 93.2157 30.5372 91.8591 29.5467C90.5132 28.5561 89.695 27.1456 89.4043 25.3153L93.894 24.637C94.0771 25.466 94.4808 26.112 95.1053 26.575C95.7406 27.0272 96.5427 27.2533 97.5117 27.2533C98.2977 27.2533 98.906 27.1026 99.3367 26.8011C99.7781 26.4889 99.9989 26.0582 99.9989 25.5091C99.9989 25.143 99.9073 24.8631 99.7243 24.6693C99.552 24.4647 99.186 24.2655 98.6261 24.0717C98.077 23.8779 97.1349 23.6033 95.7998 23.248C94.357 22.882 93.2157 22.4728 92.3759 22.0206C91.5361 21.5684 90.9278 21.0301 90.5509 20.4056C90.1741 19.7811 89.9857 19.0167 89.9857 18.1122C89.9857 17.0033 90.271 16.0342 90.8416 15.2052C91.4123 14.3761 92.2198 13.7409 93.2642 13.2995C94.3086 12.8472 95.5306 12.6211 96.9303 12.6211C98.2869 12.6211 99.4928 12.8311 100.548 13.251C101.614 13.6709 102.47 14.2739 103.116 15.0598C103.773 15.8351 104.176 16.7449 104.327 17.7892L99.8373 18.5968C99.762 17.9507 99.482 17.4393 98.9975 17.0625C98.513 16.6856 97.8562 16.4649 97.0272 16.4003L96.688 16.3842C95.9774 16.3842 95.4068 16.5187 94.9761 16.7879C94.5562 17.0571 94.3462 17.4232 94.3462 17.8861C94.3462 18.1984 94.4539 18.4568 94.6692 18.6614C94.8846 18.8552 95.3045 19.0597 95.929 19.2751C96.5535 19.4796 97.5763 19.7596 98.9975 20.1149C100.333 20.4594 101.399 20.8632 102.195 21.3262C102.992 21.7784 103.574 22.3221 103.94 22.9573C104.306 23.5926 104.489 24.3678 104.489 25.283C104.489 26.4673 104.198 27.4956 103.617 28.3677C103.035 29.229 102.195 29.8912 101.097 30.3542C99.9989 30.8064 98.6961 31.0325 97.1887 31.0325Z" fill="white"/>
<path d="M115.241 31.0325C113.507 31.0325 111.973 30.6449 110.638 29.8697C109.303 29.0837 108.264 27.9962 107.521 26.6073C106.789 25.2076 106.423 23.6141 106.423 21.8268C106.423 20.0287 106.794 18.4352 107.537 17.0463C108.291 15.6466 109.335 14.5592 110.67 13.784C112.016 13.0087 113.54 12.6211 115.241 12.6211C116.974 12.6211 118.509 13.0141 119.844 13.8001C121.189 14.5753 122.234 15.6628 122.977 17.0625C123.72 18.4622 124.091 20.0503 124.091 21.8268C124.091 23.6141 123.714 25.2076 122.961 26.6073C122.218 27.9962 121.173 29.0837 119.827 29.8697C118.492 30.6449 116.963 31.0325 115.241 31.0325ZM111.074 21.8268C111.074 23.4203 111.429 24.6693 112.14 25.5737C112.861 26.4781 113.895 26.9303 115.241 26.9303C116.608 26.9303 117.647 26.4673 118.358 25.5414C119.079 24.6154 119.44 23.3772 119.44 21.8268C119.44 20.2441 119.079 19.0005 118.358 18.0961C117.636 17.1809 116.597 16.7233 115.241 16.7233C113.852 16.7233 112.807 17.1809 112.108 18.0961C111.419 19.0005 111.074 20.2441 111.074 21.8268Z" fill="white"/>
<path d="M125.705 13.1058H128.45C128.45 12.3736 128.461 11.7868 128.483 11.3454C128.515 10.8932 128.617 10.3979 128.789 9.85954C128.962 9.3212 129.236 8.84207 129.613 8.42216C130.205 7.76538 130.862 7.33471 131.583 7.13014C132.316 6.9148 133.112 6.80713 133.974 6.80713H134.717H136.881V10.3602H134.878C134.21 10.3602 133.704 10.5271 133.36 10.8609C133.015 11.1946 132.843 11.6199 132.843 12.1367V13.1058H136.881V16.4973H132.843V30.5481H128.45V16.4973H125.705V13.1058Z" fill="white"/>
<path d="M149.276 30.5482C148.156 30.7527 147.112 30.855 146.143 30.855C144.829 30.855 143.688 30.6612 142.719 30.2736C141.75 29.8752 141.028 29.2454 140.555 28.384C140.264 27.8457 140.07 27.2966 139.973 26.7367C139.876 26.1768 139.828 25.5147 139.828 24.7502L139.844 23.1513V16.4974H136.872V13.1059H139.844V8.26074H144.237V13.1059H149.276V16.4974H144.237V22.8929V23.8135C144.237 24.3734 144.258 24.8256 144.301 25.1701C144.345 25.5147 144.441 25.8 144.592 26.0261C145.034 26.7259 145.906 27.0759 147.209 27.0759C147.704 27.0759 148.393 27.0166 149.276 26.8982V30.5482Z" fill="white"/>
<path d="M22.9504 10.207H11.0502C4.94734 10.207 0 15.1544 0 21.2572C0 27.3601 4.94734 32.3074 11.0502 32.3074H22.9504C29.0533 32.3074 34.0006 27.3601 34.0006 21.2572C34.0006 15.1544 29.0533 10.207 22.9504 10.207Z" fill="url(#paint0_linear_268_16455)" fill-opacity="0.4"/>
<path d="M22.9494 29.7576C27.6439 29.7576 31.4495 25.952 31.4495 21.2575C31.4495 16.563 27.6439 12.7573 22.9494 12.7573C18.2549 12.7573 14.4492 16.563 14.4492 21.2575C14.4492 25.952 18.2549 29.7576 22.9494 29.7576Z" fill="white"/>
<path d="M182.29 11.0303H181.219V15.5803H182.29V11.0303Z" fill="white"/>
<path d="M182.29 15.5801H181.219V20.13H182.29V15.5801Z" fill="white"/>
<path d="M182.29 20.1299H181.219V24.6798H182.29V20.1299Z" fill="white"/>
<path d="M182.29 24.6797H181.219V29.2295H182.29V24.6797Z" fill="white"/>
<path d="M170.579 19.5544C170.575 19.55 170.478 19.4397 170.312 19.4397C170.224 19.4397 170.133 19.4706 170.043 19.5279C170.027 19.5367 170.017 19.5566 170.021 19.5765C170.021 19.5809 170.087 20.0751 170.037 20.287C169.999 20.4458 169.876 20.6334 169.654 20.6334C169.605 20.6334 169.557 20.6246 169.505 20.6091H169.503L169.672 20.4833C169.684 20.4745 169.692 20.4591 169.692 20.4414C169.692 20.4238 169.684 20.4106 169.672 20.3995L169.337 20.1458C169.443 20.0575 169.509 19.9957 169.517 19.9869C169.527 19.9781 169.533 19.9648 169.533 19.9516C169.533 19.9383 169.529 19.9251 169.519 19.9141L169.459 19.8479C169.451 19.839 169.439 19.8324 169.427 19.8324C169.417 19.8324 169.407 19.8368 169.399 19.8435C169.395 19.8457 169.306 19.9207 169.172 20.0222L169.038 19.9207L169.563 19.5235L169.603 19.6382C169.61 19.6559 169.626 19.6691 169.644 19.6691C169.644 19.6691 169.644 19.6691 169.646 19.6691C169.662 19.6691 169.678 19.6581 169.686 19.6427L169.937 19.1351C169.945 19.1175 169.943 19.0977 169.935 19.0822C169.927 19.069 169.913 19.0601 169.896 19.0601C169.894 19.0601 169.892 19.0601 169.89 19.0601L169.373 19.1462C169.355 19.1484 169.341 19.1616 169.335 19.1815C169.331 19.1992 169.335 19.219 169.349 19.2322L169.433 19.3139L168.835 19.7662L168.239 19.3139L168.323 19.2322C168.335 19.219 168.341 19.1992 168.335 19.1815C168.331 19.1616 168.317 19.1484 168.299 19.1462L167.781 19.0601C167.779 19.0601 167.777 19.0601 167.775 19.0601C167.759 19.0601 167.745 19.0668 167.737 19.0822C167.727 19.0977 167.727 19.1175 167.735 19.1351L167.984 19.6427C167.992 19.6581 168.008 19.6691 168.024 19.6691C168.026 19.6691 168.026 19.6691 168.026 19.6691C168.044 19.6691 168.058 19.6559 168.066 19.6382L168.108 19.5235L168.634 19.9207L168.5 20.0222C168.365 19.9207 168.277 19.8457 168.275 19.8435C168.267 19.8368 168.257 19.8324 168.247 19.8324C168.235 19.8324 168.223 19.8368 168.215 19.8479L168.154 19.9141C168.146 19.9229 168.14 19.9361 168.14 19.9516C168.14 19.9648 168.146 19.9781 168.157 19.9869C168.167 19.9957 168.233 20.0575 168.339 20.1458L168.004 20.3995C167.992 20.4083 167.984 20.4238 167.984 20.4414C167.984 20.4591 167.992 20.4723 168.004 20.4833L168.173 20.6091C168.173 20.6091 168.173 20.6091 168.171 20.6091C168.118 20.6246 168.07 20.6334 168.022 20.6334C167.799 20.6334 167.675 20.4458 167.637 20.287C167.587 20.0751 167.653 19.5809 167.653 19.5765C167.655 19.5566 167.647 19.5367 167.631 19.5279C167.538 19.4706 167.448 19.4397 167.362 19.4397C167.193 19.4397 167.097 19.5478 167.093 19.5544C167.085 19.561 167.081 19.5743 167.081 19.5831C167.079 19.614 167.027 20.3267 167.328 20.6886C167.438 20.821 167.585 20.8893 167.759 20.8893C167.789 20.8893 167.823 20.8893 167.855 20.8827C168.026 20.8607 168.193 20.8099 168.355 20.7482L168.634 20.9556L168.018 21.4145C168.006 21.4256 167.998 21.4388 167.998 21.4565C167.998 21.4719 168.004 21.4873 168.018 21.4983L168.636 21.9684L168.108 22.37L168.068 22.2574C168.062 22.2398 168.046 22.2287 168.028 22.2265C168.028 22.2265 168.028 22.2265 168.026 22.2265C168.01 22.2265 167.994 22.2376 167.986 22.253L167.737 22.7605C167.729 22.776 167.731 22.798 167.739 22.8112C167.747 22.8245 167.761 22.8333 167.777 22.8333C167.779 22.8333 167.781 22.8333 167.783 22.8333L168.301 22.7495C168.319 22.7473 168.333 22.7318 168.337 22.7142C168.343 22.6943 168.337 22.6745 168.325 22.6612L168.239 22.5774L168.837 22.1228L169.435 22.5774L169.349 22.6612C169.335 22.6745 169.331 22.6943 169.335 22.7142C169.339 22.7318 169.355 22.7451 169.373 22.7495L169.89 22.8333C169.892 22.8333 169.894 22.8333 169.896 22.8333C169.911 22.8333 169.925 22.8267 169.935 22.8112C169.945 22.7958 169.945 22.776 169.937 22.7605L169.686 22.253C169.678 22.2376 169.664 22.2265 169.646 22.2265H169.644C169.624 22.2265 169.61 22.2398 169.603 22.2574L169.563 22.37L169.036 21.9684L169.654 21.4983C169.666 21.4895 169.674 21.4741 169.674 21.4565C169.674 21.4388 169.666 21.4256 169.654 21.4145L169.038 20.9556L169.316 20.7482C169.477 20.8121 169.644 20.8607 169.814 20.8827C169.848 20.8871 169.88 20.8893 169.911 20.8893C170.087 20.8893 170.232 20.821 170.342 20.6886C170.643 20.3267 170.591 19.614 170.589 19.5831C170.589 19.5743 170.585 19.5632 170.579 19.5544ZM168.833 20.0796L168.965 20.1788C168.923 20.2076 168.879 20.2384 168.833 20.2693C168.787 20.2384 168.743 20.2098 168.7 20.1788L168.833 20.0796ZM168.351 20.4436L168.534 20.3046C168.57 20.3289 168.606 20.3554 168.646 20.3841C168.574 20.426 168.502 20.4657 168.429 20.5032L168.351 20.4436ZM169.304 21.4565L168.833 21.8139L168.363 21.4565L168.833 21.1056L169.304 21.4565ZM168.833 20.8033L168.606 20.6334C168.686 20.5915 168.761 20.5496 168.833 20.5054C168.905 20.5496 168.981 20.5915 169.062 20.6334L168.833 20.8033ZM169.238 20.5032C169.166 20.4679 169.092 20.4282 169.019 20.3841C169.06 20.3576 169.096 20.3311 169.132 20.3046L169.316 20.4436L169.238 20.5032Z" fill="white"/>
<path d="M170.738 19.9727C170.757 19.9332 170.765 19.8584 170.765 19.8584L170.738 19.8496V19.9727Z" fill="white"/>
<path d="M176.667 18.2056C176.474 18.0777 176.155 18.0335 175.83 18.0666C176.338 17.8724 176.685 17.4576 176.703 17.0869C176.438 17.003 176.163 17.0472 175.924 17.1067C176.171 16.9037 176.577 16.5331 176.526 15.988C176.288 15.9241 175.85 16.1072 175.668 16.1977C176.254 15.8358 176.464 14.9797 176.153 14.4942C175.969 14.6134 175.132 15.5533 174.995 15.6615C175.429 15.1165 175.631 14.7259 175.748 14.3596C175.886 13.9602 175.896 13.263 175.447 13.0291C175.234 13.5631 174.492 14.9333 174.078 15.5026C174.032 15.4585 173.996 15.3989 173.938 15.3879C173.839 15.7343 173.546 16.1954 173.279 16.4161C173.265 16.3874 173.239 16.308 173.193 16.2219C172.91 16.6875 172.176 17.3252 171.939 17.718C171.754 18.0092 171.754 18.2718 172.011 18.5432C172.115 18.658 172.312 18.8587 172.142 19.1412C171.909 19.5141 171.441 19.5582 171.188 19.3376C171.188 19.2714 171.186 19.2074 171.184 19.1478C171.483 19.0198 171.554 18.5719 171.333 18.2939C171.285 18.3954 171.204 18.4704 171.108 18.5079C171.082 18.391 171.06 18.3358 171.058 18.3292L171.046 18.3027H171.02C171.018 18.3027 170.919 18.2961 170.773 18.2784C170.939 18.2188 171.046 18.049 171.022 17.8217C170.765 18.0644 170.508 17.8327 170.45 17.7687C170.289 17.5613 170.243 17.3274 170.307 16.97C170.361 16.6588 170.654 16.1646 170.847 16.0057C170.875 16.0344 170.919 16.0939 171.014 16.0851C171.068 16.0653 171.158 16.0145 171.226 15.9858C171.421 15.9219 171.61 15.9704 171.73 16.0564C171.951 16.2043 171.931 16.3676 171.925 16.4867C172.26 16.2793 172.144 15.9329 171.704 15.8049C172.005 15.8049 172.252 16.1072 172.316 16.1447C172.483 16.2793 172.721 16.2484 172.86 16.1756C173.127 16.0366 173.181 15.6902 173.109 15.6196C173.083 15.7431 172.996 15.8534 172.842 15.8733C172.613 15.902 172.392 15.7939 172.218 15.7078C172.069 15.6394 171.83 15.5887 171.668 15.5997C171.969 15.4166 172.436 15.4364 172.603 15.7189C172.703 15.6306 172.766 15.5511 172.794 15.368C172.88 14.8737 172.529 14.62 172.154 14.62C172.164 14.5009 172.087 14.4412 171.987 14.481C171.987 14.4302 171.975 14.3905 171.949 14.3707C171.957 14.3707 171.969 14.3662 171.977 14.3662C172.354 14.3375 172.711 14.2096 172.904 13.9867C173.241 13.5895 172.703 13.0864 172.896 12.6959C173.081 12.7841 173.217 12.8989 173.472 12.9386C173.498 12.9982 173.522 13.1173 173.53 13.1813C173.613 13.6226 173.217 13.6955 173.32 14.1654C173.364 14.3795 173.51 14.4523 173.558 14.7061C173.558 14.7061 173.576 14.8826 173.436 15.037C173.761 15.0458 173.932 14.7435 173.831 14.4633C173.787 14.3486 173.675 14.2404 173.675 14.1059C173.841 14.3486 173.99 14.3397 174.247 14.2493C174.363 14.2096 174.373 14.3883 174.301 14.5317C174.477 14.417 174.522 14.2294 174.522 14.1456C174.522 13.947 174.381 13.8543 174.247 13.8941C174.17 13.9029 174.018 14.0176 174.008 13.8543C173.976 13.5719 174.381 13.5829 174.299 13.1284C174.255 12.9011 174.024 12.7753 173.665 12.7268C173.629 12.6871 173.538 12.5922 173.49 12.5127C173.293 12.1531 173.089 12.0582 172.966 12.131C172.822 12.2104 172.748 12.2788 172.629 12.3495C172.535 12.4046 172.434 12.4333 172.372 12.5127C172.216 12.7268 172.364 13.0578 172.445 13.2608C172.499 13.3799 172.629 13.6513 172.571 13.8543C172.507 14.0971 172.144 14.2493 171.923 14.3001C171.909 14.3001 171.899 14.3045 171.885 14.3045V14.2096C171.949 14.086 172.003 13.9382 172.047 13.8036C172.196 13.3667 171.975 13.1902 171.648 13.1063C171.606 13.0776 171.562 13.0666 171.507 13.0864H171.497L171.489 13.1593L171.445 13.1438L171.455 13.0556H171.435C171.473 13.0269 171.489 12.9761 171.489 12.9276C171.489 12.8746 171.471 12.8327 171.453 12.804H171.497L171.479 12.7841C171.471 12.7643 171.453 12.7444 171.425 12.7135C171.417 12.7047 171.407 12.6849 171.407 12.6738C171.415 12.6826 171.425 12.6937 171.443 12.7025C171.461 12.7224 171.487 12.7422 171.497 12.7621L171.523 12.7819V12.3826L171.497 12.4068C171.489 12.4157 171.461 12.4355 171.443 12.4576C171.425 12.4774 171.417 12.4774 171.407 12.4863C171.407 12.4774 171.415 12.4664 171.425 12.4466C171.453 12.4267 171.471 12.398 171.479 12.3826L171.497 12.3517H171.128L171.146 12.3826C171.164 12.3958 171.186 12.4267 171.204 12.4466C171.212 12.4664 171.222 12.4774 171.23 12.4863C171.22 12.4774 171.204 12.4774 171.194 12.4576C171.162 12.4377 171.146 12.4179 171.128 12.4068L171.114 12.3826V12.7886L171.132 12.7687C171.15 12.7489 171.168 12.729 171.198 12.7091C171.208 12.7003 171.224 12.6893 171.234 12.6804C171.224 12.6893 171.216 12.7091 171.208 12.7202C171.19 12.7511 171.166 12.7687 171.15 12.7908L171.132 12.8106H171.19C171.158 12.8393 171.15 12.8812 171.15 12.9342C171.15 12.9827 171.168 13.0335 171.198 13.0622H171.19L171.198 13.1504L171.15 13.1659L171.14 13.0931H171.132C171.078 13.0732 171.034 13.0842 170.998 13.1129C170.664 13.1968 170.444 13.3755 170.592 13.8102C170.638 13.9448 170.693 14.0926 170.759 14.2162V14.2802C170.426 14.161 169.826 13.7594 169.665 13.5167C169.647 13.4925 169.633 13.4726 169.625 13.4572H169.623L169.629 13.1946C169.745 12.9805 169.85 12.7179 169.93 12.4774C170.141 11.8486 169.83 11.586 169.336 11.4779C169.286 11.4382 169.224 11.4183 169.141 11.4492L169.123 11.5485L169.019 11.5397L169.027 11.4117C169.013 11.4161 168.995 11.4161 168.977 11.4161C169.047 11.3764 169.097 11.2815 169.097 11.1844C169.097 11.1138 169.065 11.03 169.011 10.9902H169.097C169.047 10.9417 168.967 10.838 168.951 10.7673C169.013 10.7872 169.107 10.8799 169.151 10.9307V10.4165C169.107 10.4562 169.013 10.5555 168.951 10.5643C168.967 10.507 169.047 10.4077 169.097 10.3569H168.63C168.666 10.4077 168.756 10.507 168.764 10.5643C168.71 10.5555 168.619 10.4562 168.569 10.4165V10.9307C168.619 10.8799 168.708 10.7872 168.764 10.7673C168.756 10.8358 168.666 10.9395 168.63 10.9902H168.71C168.656 11.03 168.63 11.1138 168.63 11.1844C168.63 11.2815 168.674 11.3786 168.746 11.4161C168.728 11.4161 168.71 11.4161 168.682 11.4073L168.692 11.5353L168.587 11.5441L168.577 11.4448C168.497 11.4161 168.435 11.436 168.381 11.4734C167.891 11.5838 167.58 11.8442 167.791 12.473C167.863 12.7135 167.967 12.9783 168.092 13.1902V13.4616C168.084 13.4704 168.074 13.4902 168.056 13.5101C167.899 13.7528 167.295 14.1544 166.962 14.2736V14.2096C167.028 14.086 167.084 13.9382 167.128 13.8036C167.277 13.3667 167.056 13.1902 166.723 13.1063C166.685 13.0776 166.643 13.0666 166.589 13.0864H166.581L166.57 13.1593L166.526 13.1438L166.534 13.0556H166.526C166.552 13.0269 166.57 12.9761 166.57 12.9276C166.57 12.8746 166.562 12.8327 166.534 12.804H166.589L166.57 12.7841C166.552 12.7643 166.534 12.7444 166.516 12.7135C166.508 12.7047 166.494 12.6849 166.484 12.6738C166.494 12.6826 166.516 12.6937 166.524 12.7025C166.55 12.7224 166.568 12.7422 166.589 12.7621L166.607 12.7819V12.3826L166.589 12.4068C166.57 12.4157 166.552 12.4355 166.524 12.4576C166.516 12.4774 166.494 12.4774 166.484 12.4863C166.494 12.4774 166.506 12.4664 166.516 12.4466C166.534 12.4267 166.552 12.398 166.57 12.3826L166.589 12.3517H166.219L166.237 12.3826C166.245 12.3958 166.269 12.4267 166.288 12.4466C166.306 12.4664 166.314 12.4774 166.314 12.4863C166.308 12.4752 166.298 12.4752 166.281 12.4554C166.259 12.4355 166.231 12.4157 166.223 12.4046L166.195 12.3803V12.7864L166.223 12.7665C166.231 12.7467 166.259 12.7268 166.281 12.7069C166.3 12.6981 166.308 12.6871 166.316 12.6782C166.316 12.6871 166.308 12.7069 166.29 12.7179C166.271 12.7489 166.247 12.7665 166.239 12.7886L166.221 12.8084H166.269C166.247 12.8371 166.227 12.879 166.227 12.932C166.227 12.9805 166.245 13.0313 166.288 13.06H166.269L166.279 13.1482L166.229 13.1637L166.221 13.0909H166.211C166.157 13.071 166.113 13.082 166.077 13.1107C165.744 13.1946 165.523 13.3733 165.671 13.808C165.718 13.9426 165.772 14.0904 165.838 14.214V14.3089C165.824 14.3089 165.812 14.3045 165.802 14.3045C165.581 14.2537 165.212 14.1015 165.15 13.8587C165.091 13.6557 165.222 13.3843 165.276 13.2652C165.362 13.0622 165.507 12.7312 165.354 12.5172C165.286 12.4377 165.188 12.409 165.091 12.3539C164.975 12.2855 164.903 12.2149 164.754 12.1354C164.636 12.0626 164.435 12.1553 164.231 12.5172C164.186 12.5966 164.092 12.6893 164.054 12.7312C163.699 12.7797 163.47 12.9033 163.42 13.1328C163.337 13.5873 163.743 13.5785 163.717 13.8587C163.707 14.022 163.55 13.9073 163.478 13.8985C163.337 13.8587 163.199 13.9514 163.199 14.15C163.199 14.2338 163.249 14.4214 163.42 14.5361C163.347 14.3927 163.356 14.214 163.478 14.2537C163.735 14.3442 163.877 14.353 164.046 14.1103C164.046 14.2427 163.937 14.353 163.889 14.4677C163.789 14.7502 163.956 15.0502 164.285 15.0414C164.136 14.887 164.166 14.7105 164.166 14.7105C164.212 14.4567 164.357 14.3839 164.405 14.1699C164.505 13.6999 164.108 13.627 164.194 13.1857C164.202 13.1217 164.22 13.0026 164.249 12.943C164.505 12.9033 164.646 12.7908 164.825 12.7003C165.009 13.0909 164.477 13.594 164.816 13.9911C165.011 14.214 165.37 14.3419 165.744 14.3707C165.752 14.3707 165.764 14.3751 165.774 14.3773C165.748 14.3971 165.734 14.4346 165.734 14.4854C165.635 14.4457 165.559 14.5053 165.573 14.6244C165.186 14.6244 164.845 14.8782 164.929 15.3724C164.955 15.5555 165.019 15.635 165.124 15.7233C165.286 15.4408 165.754 15.421 166.059 15.6041C165.892 15.5931 165.653 15.6438 165.507 15.7122C165.334 15.7961 165.116 15.9064 164.887 15.8777C164.728 15.8579 164.648 15.7497 164.616 15.624C164.544 15.6946 164.598 16.0388 164.867 16.18C165.001 16.2528 165.24 16.2837 165.407 16.1491C165.471 16.1094 165.718 15.8093 166.021 15.8093C165.583 15.9373 165.461 16.2837 165.804 16.4911C165.79 16.372 165.774 16.2087 165.993 16.0609C166.115 15.977 166.308 15.9263 166.498 15.9902C166.564 16.0189 166.655 16.0697 166.709 16.0895C166.803 16.0984 166.847 16.0388 166.876 16.0101C167.07 16.169 167.353 16.6632 167.415 16.9744C167.484 17.3318 167.433 17.5635 167.271 17.7732C167.217 17.8371 166.956 18.0688 166.701 17.8261C166.677 18.0534 166.783 18.221 166.95 18.2829C166.801 18.3005 166.701 18.3071 166.699 18.3071H166.673L166.663 18.3336C166.661 18.338 166.639 18.3954 166.611 18.5101C166.518 18.4704 166.438 18.3976 166.39 18.2961C166.169 18.5741 166.237 19.0198 166.534 19.1478C166.532 19.2096 166.53 19.2736 166.53 19.342C166.275 19.5582 165.814 19.5119 165.585 19.1412C165.409 18.8587 165.611 18.6557 165.712 18.5432C165.968 18.2718 165.968 18.0092 165.782 17.718C165.543 17.3274 164.81 16.6875 164.528 16.2219C164.481 16.3058 164.455 16.3852 164.445 16.4161C164.18 16.1954 163.883 15.7343 163.785 15.3879C163.731 15.3967 163.691 15.4585 163.644 15.5026C163.235 14.9333 162.489 13.5631 162.278 13.0291C161.832 13.263 161.84 13.9602 161.977 14.3596C162.097 14.7259 162.3 15.1165 162.727 15.6615C162.593 15.5511 161.756 14.6134 161.571 14.4942C161.262 14.9797 161.473 15.8358 162.057 16.1977C161.878 16.1072 161.437 15.9241 161.198 15.988C161.154 16.5331 161.553 16.9037 161.8 17.1067C161.559 17.0472 161.284 17.003 161.02 17.0869C161.038 17.4576 161.389 17.8747 161.882 18.0666C161.567 18.0313 161.248 18.0777 161.054 18.2056C161.09 18.5918 161.487 18.9249 161.963 19.0044C161.644 19.0441 161.361 19.1986 161.212 19.4104C161.387 19.6619 161.644 19.8561 162.035 19.8473C161.945 19.8826 161.84 19.951 161.752 20.0437C161.742 20.0348 161.724 20.0238 161.708 20.0238C161.688 20.0326 161.682 20.0635 161.688 20.0834C161.688 20.0834 161.688 20.0834 161.688 20.0988C161.65 20.1275 161.63 20.1628 161.626 20.1981C161.589 20.2555 161.551 20.3217 161.531 20.3812C161.541 20.3857 161.549 20.3967 161.557 20.4011C161.555 20.432 161.563 20.4695 161.585 20.507C161.567 20.5269 161.559 20.5556 161.549 20.5865L161.321 20.485C161.309 20.7145 161.355 20.902 161.459 21.019C161.541 21.1227 161.636 21.1072 161.608 21.1425L161.856 21.3102C161.901 21.4139 161.991 21.4139 162.053 21.3852C162.053 21.3852 162.053 21.394 162.053 21.4051C162.053 21.5132 162.121 21.6015 162.21 21.6368C162.192 21.7272 162.228 21.7846 162.34 21.8265L163.275 24.3199C163.239 24.4391 163.275 24.5428 163.358 24.5825C163.337 24.6112 163.321 24.6421 163.321 24.7017C163.358 24.673 163.412 24.6619 163.438 24.7458C163.456 24.8054 163.358 24.9973 163.506 25.1275C163.486 25.2423 163.542 25.3592 163.649 25.41C163.649 25.4695 163.699 25.6615 163.707 25.7299C163.64 25.8336 163.486 25.9925 163.506 26.1668C163.524 26.2904 163.568 26.3301 163.659 26.361C163.622 26.5838 163.735 26.6831 163.905 26.6942C163.905 26.8575 164.044 26.9148 164.134 26.9258C164.22 26.9965 164.257 27.0251 164.355 27.0803C164.265 27.1973 164.329 27.3517 164.493 27.4025C164.511 27.4709 164.558 27.5304 164.65 27.5547C164.704 27.654 164.802 27.654 164.861 27.6253C164.897 27.6055 164.961 27.4907 164.905 27.3914C164.941 27.3429 164.923 27.248 164.897 27.1884C164.951 27.0803 164.905 26.9457 164.831 26.906C164.841 26.8464 164.812 26.7515 164.794 26.6942C164.925 26.6037 165.087 26.4912 165.146 26.4515C165.465 26.1999 165.826 25.9748 166.235 25.9462C166.34 25.9351 166.532 25.9263 166.641 25.9351C166.807 25.955 167.036 26.0101 167.171 25.8954C167.213 25.8667 167.239 25.816 167.231 25.7674C167.213 25.6527 167.1 25.5534 167.064 25.4519C167.054 25.421 167.038 25.3746 167.02 25.3328C167.136 25.3548 167.245 25.3372 167.311 25.3018C167.383 25.2731 167.558 25.1298 167.55 24.9157C167.409 24.9885 167.072 25.0878 167.036 24.7127C167 24.3817 167.265 24.0993 167.68 24.2229C167.963 24.3023 168.377 24.9642 167.999 25.2533C167.815 25.3923 167.532 25.5247 167.568 25.8866C167.688 25.7233 167.851 25.6439 168.062 25.6637C167.753 25.9153 167.514 25.9462 167.189 26.1381C166.906 26.3213 166.695 26.6235 166.472 26.6324C166.302 26.6412 166.207 26.4183 166.374 26.2463C166.207 26.2065 165.986 26.35 165.924 26.5419C165.844 26.8045 165.906 26.9921 166.055 27.098C165.854 27.2171 165.704 27.4488 165.776 27.7798C165.844 28.0512 166.091 28.0512 165.997 28.3976C166.135 28.3579 166.225 28.2542 166.265 28.1064C166.283 28.0027 166.302 27.8945 166.348 27.8438C166.328 28.0512 166.436 28.3579 166.695 28.4969C166.87 28.5918 167.144 28.6293 167.355 28.3888C167.441 28.6602 167.732 28.8941 168.036 28.883C168.174 28.883 168.31 28.8169 168.413 28.7506C168.485 28.9514 168.67 29.1566 168.852 29.2537C169.041 29.1566 169.226 28.9514 169.302 28.7506C169.402 28.8191 169.541 28.883 169.675 28.883C169.966 28.8919 170.273 28.6602 170.355 28.3888C170.566 28.6293 170.841 28.5918 171.016 28.4969C171.273 28.3579 171.381 28.0512 171.363 27.8438C171.411 27.8945 171.429 28.0027 171.449 28.1064C171.485 28.2542 171.574 28.3579 171.714 28.3976C171.62 28.0512 171.873 28.0512 171.935 27.7798C172.007 27.4488 171.859 27.2149 171.66 27.098C171.804 26.9943 171.873 26.8067 171.786 26.5419C171.724 26.35 171.503 26.2065 171.337 26.2463C171.503 26.4183 171.413 26.6412 171.238 26.6324C171.018 26.6235 170.807 26.319 170.522 26.1381C170.199 25.944 169.96 25.9153 169.649 25.6637C169.86 25.6439 170.026 25.7233 170.143 25.8866C170.179 25.5247 169.896 25.3923 169.711 25.2533C169.338 24.9642 169.747 24.3023 170.036 24.2229C170.446 24.0993 170.717 24.3817 170.675 24.7127C170.63 25.09 170.301 24.9907 170.153 24.9157C170.153 25.1275 170.327 25.2709 170.4 25.3018C170.484 25.346 170.64 25.3702 170.779 25.304C170.775 25.3416 170.769 25.3813 170.769 25.3923C170.741 25.7145 170.584 25.7432 170.638 25.8755C170.715 25.9748 171.218 25.955 171.355 25.9859C171.594 26.0212 171.796 26.1183 172.025 26.169C172.282 26.2286 172.555 26.2286 172.786 26.3323C172.934 26.4029 173.101 26.5353 173.245 26.6147C173.466 26.6545 173.43 26.7538 173.57 26.7538C173.697 26.7538 173.745 26.6346 173.908 26.586C174.02 26.5574 174.146 26.6059 174.259 26.5662C174.341 26.5463 174.377 26.4537 174.453 26.4029C174.544 26.3433 174.67 26.3433 174.754 26.2573C174.799 26.2131 174.809 26.1293 174.801 26.0697L174.803 26.0829C174.975 25.9506 175.106 25.7564 175.178 25.5335C175.222 25.5247 175.258 25.4805 175.258 25.4298C175.258 25.421 175.258 25.41 175.258 25.41C175.302 25.3702 175.33 25.3107 175.33 25.2511C175.33 25.176 175.304 25.1165 175.258 25.0679C175.258 25.0679 175.258 25.0569 175.258 25.0481C175.258 25.0084 175.24 24.9797 175.222 24.9532C175.15 24.5229 174.853 24.1765 174.469 24.0684C174.469 24.0573 174.469 24.0573 174.469 24.0485H174.461C174.461 24.0287 174.453 24.0176 174.439 24.0176C174.385 23.958 174.321 23.8654 174.313 23.8058C174.375 23.8257 174.479 23.9338 174.534 23.9779V23.4086C174.479 23.4527 174.377 23.5609 174.313 23.5807C174.321 23.5101 174.419 23.3866 174.469 23.338H173.944C173.992 23.3866 174.092 23.5101 174.1 23.5807C174.038 23.5609 173.934 23.4527 173.881 23.4086V23.9779C173.936 23.9338 174.038 23.8257 174.1 23.8058C174.092 23.8764 173.992 24 173.944 24.0485L173.962 24.0573C173.57 24.1566 173.255 24.5141 173.183 24.9532C173.157 24.9775 173.139 25.0084 173.139 25.0481C173.139 25.0569 173.139 25.0679 173.139 25.0679C173.093 25.1165 173.067 25.176 173.067 25.2511C173.067 25.3085 173.093 25.3702 173.139 25.41C173.139 25.41 173.139 25.4188 173.139 25.4298C173.139 25.4938 173.175 25.5247 173.219 25.5335C173.237 25.5887 173.259 25.6439 173.283 25.6924C173.283 25.688 173.283 25.688 173.289 25.6813C173.257 25.8447 173.077 25.944 173.037 25.944C172.715 25.9947 172.36 25.8447 172.037 25.7123C171.895 25.6527 171.7 25.5843 171.606 25.4298C171.547 25.3173 171.521 25.2467 171.552 25.1474C171.588 25.1959 171.646 25.2511 171.728 25.2996C171.736 25.2511 171.736 25.1959 171.754 25.1562C171.836 25.2908 171.967 25.3592 172.123 25.3504C172.029 25.2621 171.985 25.0282 172.029 24.8252C172.16 25.0679 172.655 25.1165 172.746 24.6818C172.561 24.7767 172.443 24.673 172.408 24.5626C172.354 24.3883 172.535 23.9669 172.372 23.6425C172.242 23.3998 172.093 23.252 171.748 23.1924C171.774 23.146 171.784 23.1063 171.792 23.0379C171.473 23.1659 171.198 23.0666 171.068 22.7864C171.132 22.8151 171.224 22.8261 171.315 22.8261C171.032 22.5724 171.05 21.8552 171.252 21.4845C171.279 21.4647 171.289 21.4448 171.315 21.436C171.377 21.575 171.562 21.575 171.656 21.6875C171.692 21.6478 171.71 21.6368 171.746 21.6037C171.746 21.6037 171.754 22.1928 171.79 22.4355C171.826 22.7069 172.065 22.6783 172.188 22.7974C172.332 22.6231 172.593 22.6319 172.553 22.3318C172.517 22.0317 172.463 21.7582 172.455 21.5552C172.535 21.7383 172.693 22.4267 172.756 22.6231C172.858 22.9144 173.115 22.8261 173.259 22.9408C173.354 22.7378 173.592 22.6783 173.498 22.3716C173.472 22.2921 173.081 21.3874 173.023 21.2131C173.161 21.436 173.54 22.2325 173.657 22.4554C173.787 22.6871 174.026 22.5746 174.197 22.6319C174.229 22.4642 174.459 22.2701 174.291 21.9788C174.08 21.5926 173.584 20.9197 173.558 20.8248C173.657 20.9285 174.425 21.9788 174.486 22.0362C174.664 22.2083 174.925 22.0759 175.08 22.0759C175.08 21.8839 175.218 21.6655 175.017 21.4426C174.833 21.2484 174.409 20.9175 174.319 20.8049C174.602 21.019 174.935 21.3588 175.134 21.4139C175.485 21.5132 175.611 21.3588 175.742 21.2992C175.633 20.9484 175.778 20.785 175.035 20.4431C175.678 20.6946 175.963 20.571 176.191 20.3724C176.101 20.1209 175.872 19.9091 175.686 19.8385C176.079 19.8473 176.34 19.6553 176.51 19.4016C176.366 19.1897 176.079 19.0353 175.75 18.9956C176.235 18.9227 176.623 18.5918 176.667 18.2056ZM161.77 20.7983C161.762 20.7983 161.762 20.8071 161.752 20.8182C161.698 20.8093 161.698 20.7387 161.708 20.6791C161.734 20.6791 161.752 20.6703 161.77 20.6505L161.778 20.6615L161.752 20.6813C161.762 20.7189 161.762 20.7586 161.77 20.7983ZM161.947 21.2131L161.858 21.1558C161.895 21.1094 161.929 21.1094 161.965 21.1359C161.965 21.1646 161.965 21.1932 161.947 21.2131ZM162.212 20.5953C162.2 20.5953 162.188 20.5953 162.175 20.5953C162.173 20.5931 162.171 20.5887 162.169 20.5865C162.186 20.582 162.204 20.582 162.218 20.5776C162.218 20.582 162.214 20.5887 162.212 20.5953ZM167.315 27.8239C167.094 27.8239 166.938 27.6717 167.05 27.4576C167.108 27.5547 167.225 27.5989 167.325 27.6099C167.315 27.7114 167.315 27.74 167.315 27.8239ZM170.672 27.4576C170.785 27.6717 170.628 27.8239 170.408 27.8239C170.408 27.74 170.408 27.7114 170.39 27.6099C170.492 27.6011 170.612 27.5591 170.672 27.4576ZM167.307 14.3596C167.811 14.2404 168.324 13.9293 168.555 13.6668C168.746 13.68 168.993 13.6822 169.179 13.669C169.406 13.9337 169.912 14.2382 170.418 14.3574C170.125 14.3574 169.613 14.3287 169.549 14.2493C169.567 14.4523 169.958 14.6818 170.215 14.7435C170.002 14.7722 169.806 14.7435 169.639 14.6597C169.729 14.8032 169.834 14.9113 170.004 14.9752C169.826 15.218 169.456 15.3746 169.091 15.3371C169.181 15.4563 169.348 15.5313 169.492 15.5092C169.163 16.0851 168.92 16.6765 168.862 17.3605H168.86V17.3627C168.806 16.6765 168.563 16.0851 168.236 15.5092C168.385 15.5291 168.547 15.4563 168.632 15.3371C168.262 15.3768 167.907 15.218 167.722 14.9752C167.895 14.9113 167.997 14.8032 168.088 14.6597C167.925 14.7435 167.722 14.7722 167.512 14.7435C167.769 14.6796 168.164 14.4523 168.182 14.2493C168.112 14.3309 167.6 14.3596 167.307 14.3596ZM162.689 20.4475C162.643 20.4695 162.587 20.496 162.545 20.5159C162.545 20.5115 162.545 20.507 162.545 20.5026C162.589 20.4827 162.645 20.4651 162.689 20.4475ZM165.928 23.0401C165.938 23.1085 165.946 23.1482 165.972 23.1946C165.625 23.2542 165.479 23.402 165.352 23.6447C165.176 23.9713 165.36 24.3927 165.31 24.5648C165.274 24.673 165.16 24.7789 164.975 24.684C165.065 25.1209 165.559 25.0701 165.689 24.8275C165.734 25.0305 165.689 25.2643 165.599 25.3526C165.754 25.3614 165.884 25.293 165.964 25.1584C165.982 25.1981 165.982 25.2533 165.991 25.3018C166.077 25.2533 166.131 25.1981 166.167 25.1496C166.181 25.1981 166.197 25.3129 166.177 25.4055C166.111 25.4541 166.037 25.5004 165.92 25.5666C165.736 25.6659 165.398 25.8093 165.206 25.838C165.047 25.8667 164.772 25.7674 164.702 25.5247C164.638 25.293 164.463 25.218 164.325 25.3614C164.289 25.3328 164.19 25.3107 164.148 25.3835C164.148 25.3835 164.104 25.2731 164.05 25.2202C164.086 25.101 164.058 24.9576 163.96 24.9091C163.952 24.6752 163.821 24.6752 163.775 24.5958C163.749 24.5472 163.749 24.4854 163.811 24.4766C163.785 24.4325 163.729 24.4237 163.721 24.4237C163.739 24.3244 163.711 24.2008 163.59 24.161L162.523 21.7383C162.591 21.6589 162.555 21.5441 162.479 21.5044C162.479 21.5044 162.479 21.4955 162.479 21.4845C162.485 21.4647 162.487 21.4515 162.489 21.436C162.517 21.4316 162.553 21.4227 162.583 21.4139C162.794 21.3588 163.123 21.019 163.408 20.8049C163.307 20.9197 162.894 21.2507 162.709 21.4426C162.537 21.6302 162.609 21.8177 162.637 21.9876L162.677 22.0825C162.834 22.0935 163.069 22.1972 163.243 22.0384C163.297 21.9788 164.068 20.9285 164.17 20.827C164.13 20.9219 163.644 21.5948 163.424 21.981C163.261 22.2723 163.5 22.4642 163.528 22.6341C163.703 22.5746 163.941 22.6893 164.068 22.4576C164.19 22.2347 164.564 21.4382 164.702 21.2153C164.648 21.3896 164.253 22.2943 164.224 22.3738C164.13 22.6805 164.369 22.74 164.463 22.943C164.608 22.8283 164.867 22.9188 164.967 22.6253C165.029 22.4289 165.188 21.7405 165.27 21.5574C165.26 21.7604 165.206 22.034 165.17 22.334C165.134 22.6363 165.39 22.6253 165.525 22.7996C165.655 22.6805 165.894 22.7091 165.93 22.4377C165.966 22.195 165.974 21.6059 165.974 21.6059C166.011 21.6412 166.029 21.65 166.069 21.6897C166.157 21.575 166.344 21.575 166.406 21.4382C166.434 21.447 166.442 21.4669 166.47 21.4867C166.673 21.8575 166.689 22.5746 166.406 22.8283C166.488 22.8283 166.591 22.8173 166.653 22.7886C166.528 23.0688 166.249 23.1681 165.928 23.0401ZM167.923 26.4294C167.757 26.6809 167.626 26.8641 167.518 27.1774C167.323 27.1575 167.361 26.895 167.423 26.7626C167.554 26.5 168.084 26.158 168.351 25.816C168.232 26.0344 168.068 26.233 167.923 26.4294ZM168.499 26.895C168.391 27.3583 168.314 28.0423 168.351 28.3491C167.977 28.135 168.188 27.3098 168.333 26.9545C168.533 26.4603 168.674 25.8557 168.72 25.4695C168.836 25.763 168.577 26.5816 168.499 26.895ZM169.372 28.3491C169.408 28.0423 169.336 27.3583 169.224 26.895C169.145 26.5816 168.888 25.763 169.003 25.4695C169.047 25.8557 169.187 26.4581 169.39 26.9545C169.535 27.3098 169.745 28.135 169.372 28.3491ZM170.299 26.7604C170.363 26.895 170.4 27.1553 170.205 27.1752C170.097 26.8619 169.966 26.6809 169.806 26.4272C169.655 26.233 169.49 26.0322 169.372 25.8138C169.637 26.158 170.169 26.4978 170.299 26.7604ZM170.253 23.2189C169.765 24.2603 168.872 25.1077 168.862 25.0966C168.852 25.1099 167.959 24.2603 167.472 23.2189C166.984 22.1796 166.671 20.5446 166.655 19.7634C166.637 18.9823 166.777 18.6491 166.777 18.6491C166.777 18.6491 167.387 18.6116 167.875 18.4262C168.288 18.2696 168.738 17.8702 168.864 17.7533C168.991 17.8702 169.44 18.2674 169.856 18.4262C170.341 18.6138 170.951 18.6491 170.951 18.6491C170.951 18.6491 171.09 18.9845 171.072 19.7634C171.052 20.5446 170.739 22.1796 170.253 23.2189Z" fill="white"/>
<path d="M186.957 20.7876C187.264 20.7148 187.599 20.6641 187.962 20.6376C188.326 20.6089 188.681 20.5957 189.034 20.5957C189.407 20.5957 189.787 20.631 190.17 20.7038C190.555 20.7766 190.905 20.909 191.22 21.1032C191.535 21.2974 191.792 21.5643 191.995 21.9064C192.195 22.2483 192.297 22.6897 192.297 23.2281C192.297 23.7356 192.205 24.1681 192.022 24.5255C191.84 24.883 191.595 25.1765 191.292 25.4015C190.989 25.6266 190.64 25.7921 190.248 25.8958C189.857 25.9995 189.452 26.0524 189.034 26.0524C188.99 26.0524 188.922 26.0502 188.831 26.0458C188.739 26.0414 188.645 26.037 188.547 26.0348C188.448 26.0304 188.352 26.0237 188.262 26.0171C188.169 26.0083 188.103 26.0017 188.059 25.9929V29.157H186.961V20.7876H186.957ZM189.066 21.657C188.868 21.657 188.677 21.6614 188.49 21.668C188.304 21.6769 188.159 21.6967 188.057 21.7276V24.9293C188.093 24.9448 188.153 24.9558 188.237 24.9602C188.322 24.9646 188.41 24.969 188.5 24.9779C188.593 24.9867 188.679 24.9889 188.763 24.9889C188.848 24.9889 188.912 24.9889 188.956 24.9889C189.219 24.9889 189.48 24.9668 189.737 24.9227C189.993 24.8786 190.224 24.7947 190.435 24.6667C190.644 24.5387 190.812 24.3622 190.941 24.1305C191.069 23.901 191.133 23.6032 191.133 23.2369C191.133 22.9192 191.071 22.6588 190.947 22.4514C190.822 22.2461 190.662 22.0829 190.463 21.9637C190.266 21.8445 190.044 21.7629 189.799 21.7188C189.552 21.6791 189.307 21.657 189.066 21.657Z" fill="white"/>
<path d="M192.547 25.9932C192.547 25.4702 192.609 25.0002 192.734 24.5854C192.858 24.1706 193.04 23.8175 193.283 23.5285C193.524 23.2394 193.819 23.0165 194.168 22.8643C194.515 22.712 194.913 22.6348 195.361 22.6348C195.828 22.6348 196.24 22.7187 196.591 22.8886C196.942 23.0585 197.235 23.2924 197.47 23.5947C197.704 23.897 197.877 24.25 197.991 24.6582C198.106 25.0642 198.162 25.5099 198.162 25.9932C198.162 26.5073 198.098 26.9707 197.969 27.3811C197.841 27.7915 197.659 28.1423 197.42 28.4314C197.181 28.7204 196.888 28.9433 196.541 29.0956C196.193 29.2478 195.8 29.325 195.361 29.325C194.877 29.325 194.46 29.2412 194.108 29.0713C193.757 28.9014 193.466 28.6697 193.235 28.3718C193.005 28.074 192.832 27.7209 192.72 27.3149C192.603 26.9089 192.547 26.4676 192.547 25.9932ZM193.645 25.9932C193.645 26.291 193.675 26.5823 193.737 26.8692C193.799 27.156 193.898 27.4097 194.036 27.637C194.175 27.8643 194.351 28.043 194.568 28.1799C194.785 28.3166 195.051 28.3851 195.371 28.3851C196.498 28.3851 197.062 27.5885 197.062 25.9954C197.062 25.682 197.032 25.3797 196.97 25.0885C196.908 24.7995 196.811 24.5435 196.677 24.3228C196.543 24.1022 196.368 23.9234 196.151 23.7844C195.935 23.6476 195.673 23.5792 195.371 23.5792C194.807 23.5792 194.379 23.7778 194.086 24.1772C193.791 24.5722 193.645 25.179 193.645 25.9932Z" fill="white"/>
<path d="M203.695 28.7204C203.439 28.9212 203.139 29.0735 202.794 29.1728C202.449 29.2743 202.088 29.325 201.706 29.325C201.223 29.325 200.811 29.2434 200.47 29.0823C200.129 28.9212 199.854 28.6962 199.641 28.4071C199.429 28.1181 199.276 27.7672 199.18 27.3568C199.085 26.9464 199.037 26.4918 199.037 25.9932C199.037 24.923 199.274 24.0956 199.746 23.5108C200.217 22.9283 200.898 22.6348 201.783 22.6348C202.17 22.6348 202.507 22.6723 202.794 22.7496C203.079 22.8268 203.336 22.9217 203.563 23.0342L203.302 23.9389C203.105 23.8263 202.892 23.7381 202.664 23.6741C202.435 23.6101 202.186 23.577 201.917 23.577C200.731 23.577 200.139 24.3824 200.139 25.9932C200.139 26.2999 200.171 26.5955 200.238 26.8802C200.303 27.1671 200.408 27.4208 200.555 27.6415C200.701 27.8621 200.892 28.043 201.126 28.1799C201.363 28.3166 201.652 28.3851 201.993 28.3851C202.298 28.3851 202.567 28.3387 202.796 28.246C203.025 28.1534 203.216 28.043 203.37 27.915L203.695 28.7204Z" fill="white"/>
<path d="M208.813 28.7204C208.555 28.9212 208.256 29.0735 207.911 29.1728C207.566 29.2743 207.205 29.325 206.824 29.325C206.34 29.325 205.929 29.2434 205.587 29.0823C205.246 28.9212 204.971 28.6962 204.759 28.4071C204.546 28.1181 204.393 27.7672 204.297 27.3568C204.202 26.9464 204.154 26.4918 204.154 25.9932C204.154 24.923 204.391 24.0956 204.863 23.5108C205.334 22.9283 206.015 22.6348 206.9 22.6348C207.287 22.6348 207.624 22.6723 207.911 22.7496C208.196 22.8268 208.453 22.9217 208.68 23.0342L208.419 23.9389C208.223 23.8263 208.01 23.7381 207.781 23.6741C207.552 23.6101 207.303 23.577 207.034 23.577C205.848 23.577 205.256 24.3824 205.256 25.9932C205.256 26.2999 205.288 26.5955 205.354 26.8802C205.421 27.1671 205.525 27.4208 205.672 27.6415C205.816 27.8621 206.009 28.043 206.245 28.1799C206.482 28.3166 206.771 28.3851 207.112 28.3851C207.418 28.3851 207.687 28.3387 207.915 28.246C208.144 28.1534 208.335 28.043 208.487 27.915L208.813 28.7204Z" fill="white"/>
<path d="M213.819 25.5333L213.974 24.2778H213.854L213.316 25.4605L210.614 29.1565H209.836V22.8149H210.847V26.5571L210.771 27.6693H210.891L211.397 26.5947L214.044 22.8149H214.835V29.1543H213.824V25.5333H213.819Z" fill="white"/>
<path d="M220.312 25.5333L220.467 24.2778H220.346L219.808 25.4605L217.107 29.1565H216.328V22.8149H217.338V26.5571L217.261 27.6693H217.382L217.888 26.5947L220.535 22.8149H221.325V29.1543H220.314V25.5333H220.312Z" fill="white"/>
<path d="M193.16 13.636L193.278 12.3871H193.22L192.773 13.5279L190.631 17.2856H190.336L188.066 13.5169L187.643 12.3871H187.585L187.749 13.6228V19.2229H186.832V10.8999H187.561L190.137 15.1563L190.525 16.0831H190.549L190.914 15.132L193.373 10.8999H194.137V19.2207H193.16V13.636Z" fill="white"/>
<path d="M199.712 15.7038L199.748 14.9668H199.712L199.23 15.728L196.583 19.2232H196.041V13.2788H196.982V16.9042L196.946 17.6058H196.992L197.452 16.8688L200.099 13.2788H200.651V19.2232H199.709V15.7038H199.712Z" fill="white"/>
<path d="M206.061 16.5952H203.402V19.2232H202.461V13.2788H203.402V15.7634H206.061V13.2788H207.002V19.2232H206.061V16.5952Z" fill="white"/>
<path d="M214.099 20.7325H213.462L213.286 19.2232H208.816V13.2788H209.758V18.3913H212.31V13.2788H213.251V18.3913H214.099V20.7325Z" fill="white"/>
<path d="M218.932 15.7038L218.968 14.9668H218.932L218.451 15.728L215.804 19.2232H215.262V13.2788H216.203V16.9042L216.167 17.6058H216.215L216.675 16.8688L219.321 13.2788H219.873V19.2232H218.932V15.7038Z" fill="white"/>
<path d="M224.331 19.2693C224.197 19.3178 224.058 19.3443 223.914 19.3532C223.769 19.362 223.637 19.3642 223.521 19.3642C222.806 19.3642 222.258 19.1104 221.873 18.6029C221.488 18.0954 221.297 17.3121 221.297 16.2485C221.297 15.2335 221.508 14.4701 221.933 13.9538C222.357 13.4396 222.969 13.1814 223.768 13.1814C223.986 13.1814 224.175 13.1969 224.331 13.23V10.8999H225.226V13.2411C225.367 13.2168 225.493 13.2013 225.604 13.1925C225.714 13.1836 225.819 13.1814 225.921 13.1814C226.697 13.1814 227.282 13.4087 227.673 13.8655C228.064 14.3222 228.261 15.0769 228.261 16.1294C228.261 16.6281 228.209 17.0782 228.102 17.4776C227.996 17.877 227.842 18.2168 227.637 18.4948C227.432 18.7728 227.183 18.9869 226.89 19.1369C226.595 19.287 226.256 19.362 225.873 19.362C225.802 19.362 225.698 19.3554 225.561 19.3443C225.425 19.3333 225.313 19.3112 225.226 19.2781V21.5972H224.331V19.2693ZM223.755 18.5809C223.85 18.5809 223.944 18.5764 224.038 18.5698C224.133 18.561 224.235 18.5456 224.343 18.5213V14.0155C224.249 14.0001 224.161 13.9868 224.078 13.9802C223.996 13.9714 223.896 13.9692 223.779 13.9692C223.294 13.9692 222.915 14.1524 222.643 14.523C222.373 14.8915 222.238 15.4674 222.238 16.2529C222.238 16.5862 222.268 16.8951 222.326 17.1797C222.385 17.4643 222.477 17.7137 222.603 17.9233C222.728 18.1329 222.888 18.2962 223.079 18.4109C223.27 18.5235 223.496 18.5809 223.755 18.5809ZM225.742 13.967C225.648 13.967 225.564 13.9692 225.489 13.9736C225.415 13.978 225.323 13.9957 225.212 14.0266V18.5434C225.291 18.5588 225.379 18.5698 225.477 18.572C225.576 18.5764 225.684 18.5786 225.8 18.5786C226.302 18.5786 226.681 18.369 226.936 17.9476C227.191 17.5284 227.319 16.9216 227.319 16.1294C227.319 15.4564 227.203 14.9268 226.972 14.5429C226.742 14.1612 226.332 13.967 225.742 13.967Z" fill="white"/>
<path d="M229.684 13.2787H230.33L230.507 13.9915H230.553C230.734 13.7134 230.966 13.5016 231.253 13.356C231.54 13.2103 231.867 13.1353 232.235 13.1353C233.019 13.1353 233.603 13.3692 233.987 13.837C234.37 14.3048 234.563 15.0704 234.563 16.1318C234.563 16.6305 234.498 17.0806 234.368 17.48C234.238 17.8794 234.057 18.2192 233.82 18.4972C233.585 18.7752 233.3 18.9892 232.967 19.1393C232.634 19.2893 232.263 19.3643 231.855 19.3643C231.564 19.3643 231.336 19.3467 231.167 19.3114C230.998 19.2761 230.816 19.2143 230.619 19.1261V21.5996H229.678V13.2787H229.684ZM232.06 13.9672C231.661 13.9672 231.344 14.0731 231.113 14.2827C230.882 14.4923 230.719 14.8123 230.625 15.2404V18.1883C230.766 18.2986 230.926 18.3847 231.107 18.4442C231.287 18.5038 231.526 18.5325 231.825 18.5325C232.367 18.5325 232.797 18.3295 233.114 17.9213C233.431 17.5131 233.589 16.9129 233.589 16.1207C233.589 15.7964 233.561 15.5007 233.507 15.2359C233.453 14.9711 233.365 14.7439 233.242 14.5585C233.12 14.3732 232.963 14.2275 232.772 14.1238C232.58 14.0201 232.343 13.9672 232.06 13.9672Z" fill="white"/>
<path d="M236.988 15.5493C237.177 15.5184 237.358 15.4964 237.53 15.4831C237.703 15.4721 237.867 15.4655 238.024 15.4655C238.423 15.4655 238.759 15.5118 239.029 15.6023C239.3 15.6927 239.517 15.8185 239.682 15.9774C239.846 16.1362 239.962 16.3238 240.029 16.5422C240.095 16.7607 240.129 16.9924 240.129 17.2373C240.129 17.9588 239.93 18.4818 239.535 18.8062C239.14 19.1305 238.497 19.2938 237.612 19.2938C237.111 19.2938 236.589 19.2695 236.047 19.2232V13.2788H236.988V15.5493ZM236.988 18.3913C237.277 18.4399 237.556 18.4619 237.823 18.4619C238.317 18.4619 238.662 18.3649 238.859 18.1707C239.055 17.9765 239.154 17.7007 239.154 17.3454C239.154 17.0277 239.057 16.7673 238.865 16.5599C238.672 16.3547 238.337 16.251 237.859 16.251C237.725 16.251 237.58 16.2554 237.424 16.262C237.267 16.2709 237.123 16.2929 236.988 16.3326V18.3913ZM241.058 13.2788H242V19.2232H241.058V13.2788Z" fill="white"/>
<defs>
<linearGradient id="paint0_linear_268_16455" x1="34.0006" y1="21.2572" x2="-3.82485" y2="21.1651" gradientUnits="userSpaceOnUse">
<stop stop-color="white"/>
<stop offset="0.932292" stop-color="#7AA0F2" stop-opacity="0.0677083"/>
<stop offset="1" stop-color="#0D4CD3" stop-opacity="0"/>
</linearGradient>
</defs>
</svg>
