<svg width="439" height="101" viewBox="0 0 439 101" fill="none" xmlns="http://www.w3.org/2000/svg">
<g clip-path="url(#clip0_60_1009)">
<path fill-rule="evenodd" clip-rule="evenodd" d="M2.42585 98.8125H114.94C115.798 98.8125 116.411 99.56 116.411 100.557V102.176C116.411 103.173 115.675 103.92 114.94 103.92H2.42585C1.5679 103.92 0.955078 103.173 0.955078 102.176V100.557C0.955078 99.56 1.69046 98.8125 2.42585 98.8125Z" fill="#394B62"/>
<path d="M113.223 36.8982H4.26367V98.8142H113.223V36.8982Z" fill="#FEC800"/>
<path d="M113.223 36.8982H4.26367V41.383H113.223V36.8982Z" fill="#FAB400"/>
<path d="M113.223 96.8209H4.26367V98.8142H113.223V96.8209Z" fill="#FAB400"/>
<path d="M12.2304 41.383H4.26367V96.8209H12.2304V41.383Z" fill="#E3B122"/>
<path d="M12.2304 36.8982H4.26367V41.383H12.2304V36.8982Z" fill="#E0A116"/>
<path d="M12.2304 96.8209H4.26367V98.8142H12.2304V96.8209Z" fill="#E0A116"/>
<path d="M113.101 41.383H105.135V96.8209H113.101V41.383Z" fill="#FFD665"/>
<path d="M113.101 36.8982H105.135V41.383H113.101V36.8982Z" fill="#FDC95B"/>
<path d="M113.101 96.8209H105.135V98.8142H113.101V96.8209Z" fill="#FDC95B"/>
<path fill-rule="evenodd" clip-rule="evenodd" d="M2.42585 32.2888H114.94C115.798 32.2888 116.411 33.0362 116.411 33.9083V35.2787C116.411 36.1507 115.675 36.8982 114.94 36.8982H2.42585C1.5679 36.8982 0.955078 36.1507 0.955078 35.2787V33.9083C0.955078 33.0362 1.69046 32.2888 2.42585 32.2888Z" fill="#394B62"/>
<path fill-rule="evenodd" clip-rule="evenodd" d="M116.533 34.6558H0.955078V35.4032C0.955078 36.2753 1.69046 37.0228 2.42585 37.0228H114.94C115.798 37.0228 116.411 36.2753 116.411 35.4032V34.6558H116.533Z" fill="#1D2B3B"/>
<path fill-rule="evenodd" clip-rule="evenodd" d="M97.4132 61.3142C100.11 61.3142 100.11 57.2031 97.4132 57.2031C92.0204 57.2031 86.505 57.2031 81.1122 57.2031C78.4157 57.2031 78.4157 61.3142 81.1122 61.3142C86.505 61.3142 92.0204 61.3142 97.4132 61.3142Z" fill="#1D2B3B"/>
<path fill-rule="evenodd" clip-rule="evenodd" d="M7.20508 32.2887H110.282V27.9285C110.282 25.8106 108.566 24.1911 106.605 24.1911H10.882C8.79842 24.1911 7.20508 25.9352 7.20508 27.9285V32.2887Z" fill="#1D2B3B"/>
<path d="M20.6872 24.1911H11.9851C9.28867 24.1911 7.20508 25.9352 7.20508 27.9285V32.4133H15.9071V27.9285C15.9071 25.8106 18.1133 24.1911 20.6872 24.1911Z" fill="#182030"/>
<path d="M105.625 24.1911H97.168C99.7418 24.1911 101.825 25.9352 101.825 27.9285V32.4133H110.282V27.9285C110.282 25.8106 108.199 24.1911 105.625 24.1911Z" fill="#2D3647"/>
<path fill-rule="evenodd" clip-rule="evenodd" d="M17.9917 24.1911H26.2035V18.2113C26.2035 17.5884 25.7133 17.09 25.1004 17.09H18.9722C18.3594 17.09 17.8691 17.5884 17.8691 18.2113V24.1911H17.9917Z" fill="#B9B8B9"/>
<path fill-rule="evenodd" clip-rule="evenodd" d="M22.1594 17.09H19.0953C18.4824 17.09 17.9922 17.5884 17.9922 18.2113V24.1911H21.0563H22.0368V17.09H22.1594Z" fill="#A0A0A1"/>
<path fill-rule="evenodd" clip-rule="evenodd" d="M90.0586 24.1922H99.3735V14.5996C99.3735 13.6029 98.8832 12.8555 98.1479 12.8555H91.2842C90.6714 12.8555 90.0586 13.6029 90.0586 14.5996V24.1922Z" fill="#B9B8B9"/>
<path fill-rule="evenodd" clip-rule="evenodd" d="M95.574 12.8555H91.5294C90.794 12.8555 90.0586 13.6029 90.0586 14.5996V24.1922H94.2258H95.574V12.8555Z" fill="#A0A0A1"/>
<path fill-rule="evenodd" clip-rule="evenodd" d="M29.7578 24.1911H87.7308V22.3224C87.7308 22.0732 87.6082 21.9486 87.3631 21.9486H30.1255C29.8804 21.9486 29.7578 22.0732 29.7578 22.3224V24.1911Z" fill="#03111F"/>
<path fill-rule="evenodd" clip-rule="evenodd" d="M42.0141 6.99767H75.4742C76.087 6.99767 76.5772 7.24683 76.9449 7.49598C77.1901 7.74514 77.4352 8.11888 77.4352 8.49262V21.9472H83.9311V8.49262C83.9311 6.25019 82.9506 4.13234 81.3573 2.76196C79.8865 1.39159 77.8029 0.519531 75.5967 0.519531H42.0141C39.8079 0.519531 37.7243 1.39159 36.2535 2.76196C34.6602 4.25692 33.6797 6.25019 33.6797 8.49262V21.9472H40.053V8.49262C40.053 8.11888 40.1756 7.74514 40.5433 7.49598C40.911 7.24683 41.4012 6.99767 42.0141 6.99767Z" fill="#1D2B3B"/>
<path fill-rule="evenodd" clip-rule="evenodd" d="M42.0141 3.7586H75.4742C78.2931 3.7586 80.6219 5.87645 80.6219 8.49262V21.9472H83.8085V8.49262C83.8085 3.88318 79.8865 0.519531 75.4742 0.519531H42.0141C37.6017 0.519531 33.6797 4.00776 33.6797 8.49262V21.9472H36.8664V8.49262C36.8664 5.75187 39.3177 3.7586 42.0141 3.7586Z" fill="#394451"/>
<path fill-rule="evenodd" clip-rule="evenodd" d="M36.6203 61.3142C39.3167 61.3142 39.3167 57.2031 36.6203 57.2031C31.2274 57.2031 25.712 57.2031 20.3192 57.2031C17.6228 57.2031 17.6228 61.3142 20.3192 61.3142C25.8346 61.3142 31.2274 61.3142 36.6203 61.3142Z" fill="#1D2B3B"/>
<path fill-rule="evenodd" clip-rule="evenodd" d="M91.285 50.9774C91.285 48.2367 87.2404 48.2367 87.2404 50.9774V57.2064H81.1122C78.4157 57.2064 78.4157 61.3175 81.1122 61.3175H87.2404V67.5465C87.2404 70.2873 91.285 70.2873 91.285 67.5465V61.3175H97.4132C100.11 61.3175 100.11 57.2064 97.4132 57.2064H91.285V50.9774Z" fill="#1D2B3B"/>
<path d="M170.62 82.4925H162.531L161.183 73.149H151.378L150.03 82.4925H142.676L150.765 30.792H162.531L170.62 82.4925ZM152.481 66.048H160.202L156.403 39.8863L152.481 66.048Z" fill="#1D2B3B"/>
<path d="M197.46 45.245C197.46 50.6019 195.744 54.0901 192.19 55.7097C194.273 56.5817 195.622 57.9521 196.357 59.8208C197.092 61.6895 197.46 64.0565 197.46 66.6727V71.2821C197.46 72.2787 197.583 73.1508 197.705 73.6491C197.828 74.1474 198.073 74.5212 198.441 74.7703C198.808 75.0195 199.176 75.1441 199.544 75.1441C200.034 75.1441 200.524 75.1441 201.137 75.1441H201.627V82.4943H198.318C195.867 82.4943 193.906 81.8714 192.435 80.501C190.964 79.1306 190.229 77.2619 190.229 75.0195V66.5481C190.229 64.1811 189.739 62.437 188.635 61.4403C187.532 60.4437 186.062 59.9454 184.223 59.9454H181.404V82.4943H173.438V30.7938H181.404V52.5952H184.591C186.062 52.5952 187.41 52.2214 188.513 51.3494C189.616 50.6019 190.229 49.107 190.229 47.1137V38.2685C190.229 36.0261 190.964 34.282 192.435 32.787C193.906 31.4167 195.867 30.6692 198.318 30.7938H201.627V38.144H201.26C200.647 38.144 200.034 38.144 199.666 38.144C199.176 38.144 198.808 38.2685 198.563 38.5177C198.196 38.7669 198.073 39.1406 197.828 39.6389C197.705 40.1372 197.583 40.8847 197.583 42.0059V45.245H197.46Z" fill="#1D2B3B"/>
<path d="M213.271 51.8459H218.051C222.096 51.8459 225.038 52.9671 226.999 55.085C228.96 57.2028 229.94 60.4419 229.94 64.6776V69.7854C229.94 74.0211 228.96 77.1356 226.999 79.378C225.038 81.4958 222.096 82.6171 218.051 82.6171H205.305V30.792H226.508V38.1422H213.394V51.8459H213.271ZM218.051 75.1423C219.277 75.1423 220.258 74.7685 220.993 74.0211C221.728 73.2736 221.973 72.0278 221.973 70.1591V64.0547C221.973 62.186 221.606 60.9402 220.993 60.1927C220.258 59.4453 219.4 59.0715 218.051 59.0715H213.271V75.0177H218.051V75.1423Z" fill="#1D2B3B"/>
<path d="M233.617 52.9678H248.202V60.318H233.617V52.9678Z" fill="#1D2B3B"/>
<path d="M269.04 67.5429L274.556 30.792H285.709V82.4925H278.11V45.3678L272.595 82.4925H264.996L258.99 45.8661V82.4925H252.004V30.792H263.157L269.04 67.5429Z" fill="#1D2B3B"/>
<path d="M316.472 82.4925H308.383L307.035 73.149H297.229L295.881 82.4925H288.527L296.617 30.792H308.383L316.472 82.4925ZM298.21 66.048H305.932L302.132 39.8863L298.21 66.048Z" fill="#1D2B3B"/>
<path d="M342.945 63.309V70.1609C342.945 74.3966 341.964 77.5111 339.88 79.7535C337.919 81.996 334.855 83.1172 330.933 83.1172C327.011 83.1172 324.07 81.996 321.986 79.7535C320.025 77.5111 318.922 74.272 318.922 70.1609V43.1272C318.922 38.8915 319.902 35.777 321.986 33.5345C323.947 31.2921 327.011 30.1709 330.933 30.1709C334.855 30.1709 337.797 31.2921 339.88 33.5345C341.841 35.777 342.945 39.016 342.945 43.1272V48.1103H335.346V42.5043C335.346 40.6356 334.978 39.2652 334.242 38.5177C333.507 37.7702 332.527 37.3965 331.178 37.3965C329.953 37.3965 328.972 37.7702 328.114 38.5177C327.379 39.2652 327.011 40.6356 327.011 42.5043V70.5346C327.011 72.4033 327.379 73.7737 328.114 74.5212C328.85 75.2687 329.83 75.6424 331.178 75.6424C332.404 75.6424 333.385 75.2687 334.242 74.5212C334.978 73.7737 335.346 72.5279 335.346 70.6592V63.309H342.945Z" fill="#1D2B3B"/>
<path d="M345.152 30.792H369.91V38.1422H361.576V82.4925H353.609V38.1422H345.275V30.792H345.152Z" fill="#1D2B3B"/>
<path d="M380.451 52.5934H391.482V59.9436H380.451V75.1423H394.301V82.4925H372.484V30.792H394.301V38.1422H380.451V52.5934Z" fill="#1D2B3B"/>
<path d="M409.743 30.792C413.787 30.792 416.729 31.9132 418.69 34.031C420.651 36.1489 421.632 39.388 421.632 43.6237V50.351C421.632 54.5867 420.651 57.7012 418.69 59.9436C416.729 62.0614 413.787 63.1826 409.743 63.1826H405.943V82.6171H397.977V30.792H409.743ZM405.943 38.1422V55.7079H409.743C410.968 55.7079 411.949 55.3341 412.684 54.7112C413.42 53.9638 413.665 52.718 413.665 50.8493V43.1253C413.665 41.2567 413.297 40.0109 412.684 39.2634C411.949 38.5159 411.091 38.2667 409.743 38.2667H405.943V38.1422Z" fill="#1D2B3B"/>
</g>
<defs>
<clipPath id="clip0_60_1009">
<rect width="439" height="101" fill="white"/>
</clipPath>
</defs>
</svg>
